SplineFontDB: 3.2
FontName: TengwarAriador
FullName: Tengwar Ariador
FamilyName: Tengwar Ariador
Weight: Regular
Copyright: Copyright (c) 2025, Igor Voloshin
UComments: "2025-1-16: Created with FontForge (http://fontforge.org)"
Version: 1.2
ItalicAngle: 0
UnderlinePosition: -100
UnderlineWidth: 50
Ascent: 800
Descent: 200
InvalidEm: 0
LayerCount: 2
Layer: 0 0 "+BBcEMAQ0BD0EVgQ5 +BD8EOwQwBD0A" 1
Layer: 1 0 "+BB8ENQRABDUENAQ9BFYEOQAA +BD8EOwQwBD0A" 0
HasVMetrics: 1
XUID: [1021 704 530366807 15726132]
StyleMap: 0x0040
FSType: 0
OS2Version: 0
OS2_WeightWidthSlopeOnly: 0
OS2_UseTypoMetrics: 0
CreationTime: 1736987611
ModificationTime: 1738335137
PfmFamily: 17
TTFWeight: 400
TTFWidth: 5
LineGap: 0
VLineGap: 0
Panose: 2 0 5 3 0 0 0 0 0 0
OS2TypoAscent: 800
OS2TypoAOffset: 0
OS2TypoDescent: -200
OS2TypoDOffset: 0
OS2TypoLinegap: 0
OS2WinAscent: 1100
OS2WinAOffset: 0
OS2WinDescent: 613
OS2WinDOffset: 0
HheadAscent: 1100
HheadAOffset: 0
HheadDescent: -613
HheadDOffset: 0
OS2Vendor: 'PfEd'
OS2UnicodeRanges: 00000003.00000000.00000000.00000000
Lookup: 258 8 0 "'kern' +BBMEPgRABDgENwQ+BD0EQgQwBDsETAQ9BDgEOQAA +BDoENQRABD0EVgQ9BJEA +BEMA +BBsEMARCBDgEPQRBBEwEOgQw, +BEQEVgQ7BEwEQgRABEMEMgQwBD0EPQRP 0" { "'kern' +BBMEPgRABDgENwQ+BD0EQgQwBDsETAQ9BDgEOQAA +BDoENQRABD0EVgQ9BJEA +BEMA +BBsEMARCBDgEPQRBBEwEOgQw, +BEQEVgQ7BEwEQgRABEMEMgQwBD0EPQRP 0-1" [60,0,1] } ['kern' ('DFLT' <'dflt' > 'latn' <'dflt' > ) ]
Lookup: 262 0 0 "'mkmk' +BB8EPgQ3BD0EMARHBDoEMAAA +BEMA +BD8EPgQ3BD0EMARHBDoEQwAA +BEMA +BBsEMARCBDgEPQRBBEwEOgQw, +BEQEVgQ7BEwEQgRABEMEMgQwBD0EPQRP 2" { "'mkmk' +BB8EPgQ3BD0EMARHBDoEMAAA +BEMA +BD8EPgQ3BD0EMARHBDoEQwAA +BEMA +BBsEMARCBDgEPQRBBEwEOgQw, +BEQEVgQ7BEwEQgRABEMEMgQwBD0EPQRP 2-1"  } ['mkmk' ('DFLT' <'dflt' > 'latn' <'dflt' > ) ]

StartChar: zero
Encoding: 48 48 0
Width: 455
GlyphClass: 2
Flags: W
HStem: 0 103<197.785 304.894> 446 114<171.651 274.554>
VStem: 40 28.1074<226.303 320.453> 356 59<184.632 341.195>
AnchorPoint: "Middle" 228 280 basechar 0
AnchorPoint: "Top" 228 800 basechar 0
AnchorPoint: "Bottom" 228 -300 basechar 0
LayerCount: 2
Fore
SplineSet
415 319.239696036 m 4
 415 153.063209307 319.335494183 0 214.44911624 0 c 4
 184.837618106 0 170 12.1998193312 170 37.5016572268 c 4
 170 77.1259788281 206.390140356 132 233.324037778 132 c 4
 237.366750419 132 239.427204202 130.76372773 242.377376703 126.08150956 c 4
 250.128585846 113.779567122 270.281689595 103 285.982682045 103 c 4
 323.804613319 103 356 165.55103698 356 239.669380272 c 4
 356 346.711900329 288.848628242 446 215.407556201 446 c 4
 144.92272624 446 72.9257326257 354.544359463 68.1074036224 257.260168045 c 4
 66.9648341978 234.19118655 62.613266343 226 50.7525370981 226 c 4
 44.6971334963 226 40 228.13506068 40 263.359233354 c 4
 40 417.820141209 130.32094373 560 247.736925227 560 c 4
 346.052062505 560 415 460.316234946 415 319.239696036 c 4
EndSplineSet
Validated: 1
Comment: "telcol+APMA-ra +APMA-r+AOsA (stemless r) - munta (zero) - standalone [o]"
Colour: ff00
EndChar

StartChar: at
Encoding: 64 64 1
Width: 455
GlyphClass: 2
Flags: W
HStem: 0 114<180.331 283.199> 456 104<151.395 257.471>
VStem: 40 59<218.216 374.525> 386.801 28.1995<235.883 334.444>
AnchorPoint: "Middle" 228 280 basechar 0
AnchorPoint: "Top" 228 800 basechar 0
AnchorPoint: "Bottom" 228 -300 basechar 0
LayerCount: 2
Fore
SplineSet
40 239.916543379 m 4
 40 406.408592319 137.258508939 560 242.45566614 560 c 4
 267.705269339 560 285 551.15153315 285 524.497223319 c 4
 285 487.182441207 251.104601854 428 220.964233381 428 c 4
 216.899367063 428 214.961781899 429.076436203 212.932201338 432.679120399 c 4
 205.743235914 445.440167005 186.460062618 456 170.646778476 456 c 4
 132.143599285 456 99 393.395423573 99 319.031103503 c 4
 99 213.050955931 166.316183642 114 239.630202785 114 c 4
 310.07727376 114 382.074267374 205.455640537 386.800509687 301.588377423 c 4
 387.996244631 325.909871141 392.954496736 335 405.238189927 335 c 4
 411 335 415 333 415 300.053182448 c 4
 415 143.181838865 324.318168719 0 206.884617228 0 c 4
 108.800524503 0 40 99.8850988272 40 239.916543379 c 4
EndSplineSet
Validated: 1
Comment: "telcol+APMA-ra anna (stemless a) [a]"
Colour: ff00
EndChar

StartChar: a
Encoding: 97 97 2
Width: 0
GlyphClass: 4
Flags: W
HStem: 762 112<-109.578 -58.4219 58.4219 109.578> 871 112<-26.5625 26.5625>
VStem: -140 112<792.016 844.984> -56 112<900.719 953.281> 28 112<792.016 844.984>
AnchorPoint: "MarkMark" 0 818 basemark 0
AnchorPoint: "Top" 0 818 mark 0
LayerCount: 2
Fore
SplineSet
-76 871 m 2x60
 -31 826 l 2
 -29.0986328125 824.098632812 -28 821.168945312 -28 818.497070312 c 0
 -28 815.657226562 -29.2421875 812.7578125 -31 811 c 2
 -76 766 l 2
 -78 764 -82 762 -84 762 c 0xa0
 -86 762 -90 764 -92 766 c 2
 -137 811 l 2
 -138.7578125 812.7578125 -140 815.657226562 -140 818.497070312 c 0
 -140 821.168945312 -138.901367188 824.098632812 -137 826 c 2
 -92 871 l 2x60
 -90.0986328125 872.901367188 -87.1689453125 874 -84 874 c 0xa0
 -80.8310546875 874 -77.9013671875 872.901367188 -76 871 c 2x60
92 871 m 2x48
 137 826 l 2
 138.901367188 824.098632812 140 821.168945312 140 818.497070312 c 0
 140 815.657226562 138.7578125 812.7578125 137 811 c 2
 92 766 l 2
 90 764 86 762 84 762 c 0x88
 82 762 78 764 76 766 c 2
 31 811 l 2
 29.2421875 812.7578125 28 815.657226562 28 818.497070312 c 0
 28 821.168945312 29.0986328125 824.098632812 31 826 c 2
 76 871 l 2x48
 77.9013671875 872.901367188 80.8310546875 874 84 874 c 0x88
 87.1689453125 874 90.0986328125 872.901367188 92 871 c 2x48
8 980 m 2
 52 935 l 2
 54 933 56 929 56 927 c 0
 56 925 54 921 52 919 c 2
 8 874 l 2x90
 6.09878030638 872.098780306 3.16869948936 871 0 871 c 0x50
 -3.16869948936 871 -6.09878030638 872.098780306 -8 874 c 2x90
 -52 919 l 2
 -54 921 -56 925 -56 927 c 0
 -56 929 -54 933 -52 935 c 2
 -8 980 l 2
 -6.09878030638 981.901219694 -3.16869948936 983 0 983 c 0x50
 3.16869948936 983 6.09878030638 981.901219694 8 980 c 2
EndSplineSet
Validated: 1
Comment: "amatix+AOsA [a superior]"
Colour: ff00ff
EndChar

StartChar: A
Encoding: 65 65 3
Width: 0
GlyphClass: 4
Flags: W
HStem: -483 112<-26.5625 26.5625> -374 112<-109.578 -58.4219 58.4219 109.578>
VStem: -140 112<-344.984 -292.016> -56 112<-453.281 -400.719> 28 112<-344.984 -292.016>
AnchorPoint: "MarkMark" 0 507 mark 0
AnchorPoint: "Bottom" 0 -318 mark 0
LayerCount: 2
Fore
SplineSet
76 -371 m 2x88
 31 -326 l 2
 29.0986328125 -324.098632812 28 -321.168945312 28 -318.497070312 c 0
 28 -315.657226562 29.2421875 -312.7578125 31 -311 c 2
 76 -266 l 2
 78 -264 82 -262 84 -262 c 0x48
 86 -262 90 -264 92 -266 c 2
 137 -311 l 2
 138.7578125 -312.7578125 140 -315.657226562 140 -318.497070312 c 0
 140 -321.168945312 138.901367188 -324.098632812 137 -326 c 2
 92 -371 l 2x88
 90.0986328125 -372.901367188 87.1689453125 -374 84 -374 c 0x48
 80.8310546875 -374 77.9013671875 -372.901367188 76 -371 c 2x88
-92 -371 m 2xa0
 -137 -326 l 2
 -138.901367188 -324.098632812 -140 -321.168945312 -140 -318.497070312 c 0
 -140 -315.657226562 -138.7578125 -312.7578125 -137 -311 c 2
 -92 -266 l 2
 -90 -264 -86 -262 -84 -262 c 0x60
 -82 -262 -78 -264 -76 -266 c 2
 -31 -311 l 2
 -29.2421875 -312.7578125 -28 -315.657226562 -28 -318.497070312 c 0
 -28 -321.168945312 -29.0986328125 -324.098632812 -31 -326 c 2
 -76 -371 l 2xa0
 -77.9013671875 -372.901367188 -80.8310546875 -374 -84 -374 c 0x60
 -87.1689453125 -374 -90.0986328125 -372.901367188 -92 -371 c 2xa0
-8 -480 m 2
 -52 -435 l 2
 -54 -433 -56 -429 -56 -427 c 0
 -56 -425 -54 -421 -52 -419 c 2
 -8 -374 l 2x50
 -6.09878030638 -372.098780306 -3.16869948936 -371 0 -371 c 0x90
 3.16869948936 -371 6.09878030638 -372.098780306 8 -374 c 2x50
 52 -419 l 2
 54 -421 56 -425 56 -427 c 0
 56 -429 54 -433 52 -435 c 2
 8 -480 l 2
 6.09878030638 -481.901219694 3.16869948936 -483 0 -483 c 0x90
 -3.16869948936 -483 -6.09878030638 -481.901219694 -8 -480 c 2
EndSplineSet
Validated: 1
Comment: "unatix+AOsA [a inferior]"
Colour: ff00ff
EndChar

StartChar: B
Encoding: 66 66 4
Width: 840
GlyphClass: 2
Flags: W
HStem: 0 103<252.499 359.894 582.785 689.894> 446 114<235.908 328.879 564.918 660.148>
VStem: 50 80<-344.883 349.381 427 730.134> 411 59<163.956 342.856> 741 59<184.611 343.847>
AnchorPoint: "Middle" 438 280 basechar 0
AnchorPoint: "Top" 478 800 basechar 0
AnchorPoint: "Bottom" 478 -300 basechar 0
LayerCount: 2
Fore
SplineSet
604.380193692 446 m 0
 538.258332476 446 470 357.812227385 470 260.984421328 c 0
 470 140.991121855 365.173887097 0 268.3261614 0 c 0
 239.837618106 0 225 12.1998193312 225 37.5016572268 c 0
 225 77.1259788281 261.390140356 132 288.324037778 132 c 0
 292.366750419 132 294.427204202 130.76372773 297.377376703 126.08150956 c 0
 305.128585846 113.779567122 325.281689595 103 340.982682045 103 c 0
 378.804613319 103 411 165.55103698 411 239.669380272 c 0
 411 346.711900329 343.848628242 446 270.33666096 446 c 0
 210.563880717 446 150.849980738 380.357060307 130 291 c 1
 130 -200 l 2
 130 -351.426174398 28.2284317519 -608.996192804 -31.5391655158 -609.917368513 c 0
 -36.9004504596 -610 -40 -608.062781537 -40 -604.389462629 c 0
 -40 -601.59629495 -38.2078459872 -597.613730478 -31.5529526365 -585.791493249 c 0
 28.8497306363 -478.487767512 50 -391.014431254 50 -250 c 2
 50 576 l 2
 50 742.45828269 147.409688474 998.990629976 211.034589819 999.909083455 c 0
 217.33273811 1000 220 997.629100543 220 994.461635506 c 0
 220 989.830458915 214.29803322 978.806656474 206.088999628 964.614269523 c 0
 144.79142498 858.638469966 130 783.300812066 130 581 c 2
 130 427 l 1
 167.63802548 504.25699967 244.337040972 560 312.965735449 560 c 0
 379.244840557 560 432.721786183 508.008525086 457 420 c 1
 493.390964767 500.65024624 571.817425093 560 641.80797919 560 c 0
 733.273351232 560 800 458.643065162 800 319.57642738 c 0
 800 153.063209307 704.335494183 0 599.44911624 0 c 0
 569.837618106 0 555 12.1998193312 555 37.5016572268 c 0
 555 77.1259788281 591.390140356 132 618.324037778 132 c 0
 622.366750419 132 624.427204202 130.76372773 627.377376703 126.08150956 c 0
 635.128585846 113.779567122 655.281689595 103 670.982682045 103 c 0
 708.804613319 103 741 165.55103698 741 239.249989146 c 0
 741 344.5227578 675.309418093 446 604.380193692 446 c 0
EndSplineSet
Validated: 1
Comment: "anda ando [nd]"
Colour: ff00
EndChar

StartChar: D
Encoding: 68 68 5
Width: 510
GlyphClass: 2
Flags: W
HStem: 0 103<252.785 359.894> 446 114<234.317 328.959>
VStem: 50 80<-344.883 349.381 427 730.134> 411 59<184.564 344.04>
AnchorPoint: "Middle" 268 280 basechar 0
AnchorPoint: "Top" 298 800 basechar 0
AnchorPoint: "Bottom" 288 -300 basechar 0
LayerCount: 2
Fore
SplineSet
470 318.875778919 m 0
 470 153.063209307 374.335494183 0 269.44911624 0 c 0
 239.837618106 0 225 12.1998193312 225 37.5016572268 c 0
 225 77.1259788281 261.390140356 132 288.324037778 132 c 0
 292.366750419 132 294.427204202 130.76372773 297.377376703 126.08150956 c 0
 305.128585846 113.779567122 325.281689595 103 340.982682045 103 c 0
 378.804613319 103 411 165.55103698 411 239.669380272 c 0
 411 346.711900329 343.848628242 446 270.33666096 446 c 0
 210.563880717 446 150.849980738 380.357060307 130 291 c 1
 130 -200 l 2
 130 -351.426174398 28.2284317519 -608.996192804 -31.5391655158 -609.917368513 c 0
 -36.9004504596 -610 -40 -608.062781537 -40 -604.389462629 c 0
 -40 -601.59629495 -38.2078459872 -597.613730478 -31.5529526365 -585.791493249 c 0
 28.8497306363 -478.487767512 50 -391.014431254 50 -250 c 2
 50 576 l 2
 50 742.45828269 147.409688474 998.990629976 211.034589819 999.909083455 c 0
 217.33273811 1000 220 997.629100543 220 994.461635506 c 0
 220 989.830458915 214.29803322 978.806656474 206.088999628 964.614269523 c 0
 144.79142498 858.638469966 130 783.300812066 130 581 c 2
 130 427 l 1
 167.521159828 504.017117542 244.129314771 560 311.618408646 560 c 0
 402.770043437 560 470 457.878546993 470 318.875778919 c 0
EndSplineSet
Validated: 1
Comment: "anda +AP4A+gAA-l+AOsA [th]"
Colour: ff00
EndChar

StartChar: G
Encoding: 71 71 7
Width: 495
GlyphClass: 2
Flags: W
HStem: 0 94<30.1335 308.72> 0 87<137.973 329.317 359 449.398> 446 114<193.674 295.319>
VStem: 60 29.2773<225.56 325.177> 376 59<196.143 339.791>
AnchorPoint: "Middle" 248 280 basechar 0
AnchorPoint: "Top" 248 800 basechar 0
AnchorPoint: "Bottom" 248 -300 basechar 0
LayerCount: 2
Fore
SplineSet
122 6 m 0x78
 57 6 75 0 16.635982857 0 c 0x78
 -4.89601355302 0 -10 0.816637831517 -10 4 c 2
 -10 7 l 2
 -10 63.0068495139 42.0114939193 94 136.17774487 94 c 0xb8
 174 94 242 89 312 87 c 1
 351.31006392 126.31006392 376 191.506926382 376 256 c 2
 376 259 l 1
 375 263 374 269 373.28863324 273.043468988 c 0
 355.062636707 376.641578843 300.221094397 446 237.286212066 446 c 0
 165.989070748 446 93.9992306121 356.985535508 89.2773395196 261.939341095 c 0
 88.0331788513 236.895828984 82.3983124904 225 71.036794078 225 c 0
 62.3291660154 225 60 231.987498046 60 257.683770013 c 0
 60 422.141986807 155.405048866 560 268.78522568 560 c 0
 364.582266258 560 435 461.584854048 435 327.768581195 c 0
 435 241.479570417 405.719724032 148.630274255 359 87 c 1
 380.170522104 87 404.320127555 87.7546751703 420.602705599 88.9036108301 c 0
 507 95 497 123 509.625652447 123 c 0
 513 123 515 121 515 111.155300035 c 0
 515 55.7725643017 451.704354163 3.98521770817 372 0 c 1
 339 0 l 2
 269 0 187 6 122 6 c 0x78
EndSplineSet
Validated: 1
Comment: "telcol+APMA-ra vala (stemless ng) [ng/+AUsA-g]"
Colour: ff00
EndChar

StartChar: R
Encoding: 82 82 8
Width: 510
GlyphClass: 2
Flags: W
HStem: 0 103<260.412 349.79> 446 114<238.005 330.573>
VStem: -15 141<462.388 519.251> 50 79<131.894 349.812> 411 59<184.769 338.656>
AnchorPoint: "Middle" 268 280 basechar 0
AnchorPoint: "Top" 268 800 basechar 0
AnchorPoint: "Bottom" 268 -300 basechar 0
LayerCount: 2
Fore
SplineSet
318 560 m 4xe8
 410 560 470 447 470 320 c 4
 470 165 382 15 313 3 c 4
 301 1 298 0 284 0 c 4
 226 0 225 21 225 33 c 4
 225 82 265 132 290 132 c 4
 293 132 296 130 297 128 c 4
 305 114 325 103 343 103 c 4
 380 103 411 167 411 235 c 4
 411 321 360 446 271 446 c 4
 210 446 148 378 129 286 c 5
 121 110 68 0 32 0 c 4
 29 0 24 1 24 7 c 6
 24 10 l 5
 32 47 50 115 50 219 c 6
 50 249 l 6xd8
 50 302 49 374 28 428 c 4
 6 482 -15 464 -15 478 c 4
 -15 498 27 559 63 559 c 4
 98 559 118 500 126 419 c 5
 175 528 270 560 318 560 c 4xe8
EndSplineSet
Validated: 1
LCarets2: 1 0
Comment: "or+AOsA [r final]"
Colour: ff00
EndChar

StartChar: ocircumflex
Encoding: 244 244 9
Width: 465
GlyphClass: 2
Flags: W
HStem: 56 119<266.918 344.798> 446 114<182.632 282.633>
VStem: 40 58<175.124 356.231> 249 54<-344.074 -161.735> 376 49<183.775 322.533>
AnchorPoint: "Middle" 228 280 basechar 0
AnchorPoint: "Top" 228 800 basechar 0
AnchorPoint: "Bottom" 228 -300 basechar 0
LayerCount: 2
Fore
SplineSet
425 307.595340205 m 0
 425 194.027075671 386.591280227 95.3207958235 331.108576596 68.7746931406 c 0
 314.935460559 61.036548261 290.527572833 56 278.650410397 56 c 0
 255.106217066 56 245 75.7913417543 245 103.388715041 c 0
 245 145.014926204 267.992536898 191 291.898653569 191 c 0
 306 191 314 175 332.903181966 175 c 0
 352.011112483 175 368.359595461 191.348482977 376 220 c 1
 374.028450962 335.335618745 300.088974991 446 226.243204202 446 c 0
 162.284968109 446 98 362.986340395 98 281.689963084 c 0
 98 236.32362752 118.018634396 183.906828021 121.202775784 170.111522377 c 0
 133 119 273 -36 297.201735486 -140.587912698 c 0
 300.970204739 -156.873370139 303 -176.833023543 303 -199.058553135 c 0
 303 -300.981099332 260.31369855 -440 228.706487424 -440 c 0
 224.212238212 -440 221 -437.189291565 221 -424.111339871 c 0
 221 -385.5 249 -337.5 249 -263.911105079 c 0
 249 -88 89 -17 52.9337742225 120.532256647 c 0
 45.7273251476 148.012792309 40 192.069139598 40 220.819261658 c 0
 40 282.140050465 66.0548105228 392.091350871 90 432 c 1
 128.729134921 512.437434068 191.526585254 560 258.947624047 560 c 0
 357.735282198 560 425 457.887295866 425 307.595340205 c 0
EndSplineSet
Validated: 1
Comment: "anda rempe [+AOsA]"
Colour: ff00
EndChar

StartChar: F
Encoding: 70 70 10
Width: 530
GlyphClass: 2
Flags: W
HStem: 0 87<130 170.049 172.451 364.317 394 484.398> 6 88<130.825 343.72> 446 114<228.151 330.365>
VStem: 50 80<-344.883 6 92 354.737 424 730.134> 411 59<196.143 339.791>
AnchorPoint: "Middle" 268 280 basechar 0
AnchorPoint: "Top" 298 800 basechar 0
AnchorPoint: "Bottom" 288 -300 basechar 0
LayerCount: 2
Fore
SplineSet
50 -250 m 2x78
 50 576 l 2
 50 742.45828269 147.409688474 998.990629976 211.034589819 999.909083455 c 0
 217.33273811 1000 220 997.629100543 220 994.461635506 c 0
 220 989.830458915 214.29803322 978.806656474 206.088999628 964.614269523 c 0
 144.79142498 858.638469966 130 783.300812066 130 581 c 2
 130 424 l 1
 168.790578161 508.543567786 234.624542905 560 303.848276894 560 c 0
 399.582266258 560 470 461.584854048 470 328.849679385 c 0
 470 243.062834379 440.586183089 149.790072859 394 87 c 1
 415.170522104 87 439.320127555 87.7546751703 455.602705599 88.9036108301 c 0
 542 95 532 123 544.625652447 123 c 0
 548 123 550 121 550 111.155300035 c 0
 550 55.7725643017 486.704354163 3.98521770817 407 0 c 1
 374 0 l 2xb8
 300 0 218 6 144 6 c 2
 130 6 l 1
 130 -200 l 2
 130 -351.426174398 28.2284317519 -608.996192804 -31.5391655158 -609.917368513 c 0
 -36.9004504596 -610 -40 -608.062781537 -40 -604.389462629 c 0
 -40 -601.59629495 -38.2078459872 -597.613730478 -31.5529526365 -585.791493249 c 0
 28.8497306363 -478.487767512 50 -391.014431254 50 -250 c 2x78
130 301 m 1
 130 92 l 1
 147.701485185 93.4751237654 158.199009877 94 170.630638433 94 c 0x78
 209 94 277 89 347 87 c 1
 386.31006392 126.31006392 411 191.506926382 411 256 c 2
 411 259 l 1
 410 263 409 269 408.28863324 273.043468988 c 0
 390.062636707 376.641578843 335.221094397 446 272.433228027 446 c 0
 212.337557188 446 150.114053029 382.461914768 130 301 c 1
EndSplineSet
Validated: 1
Comment: "anda formen [ph]"
Colour: ff00
EndChar

StartChar: n
Encoding: 110 110 11
Width: 840
GlyphClass: 2
Flags: W
HStem: 0 103<266.892 357.533 596.767 687.352> 446 114<221.931 327.812 564.789 658.574>
VStem: -15 141<461.662 520.491> 50 79<135.81 349.391> 411 59<163.966 342.944> 741 59<184.508 340.743>
AnchorPoint: "Middle" 438 280 basechar 0
AnchorPoint: "Top" 418 800 basechar 0
AnchorPoint: "Bottom" 418 -300 basechar 0
LayerCount: 2
Fore
SplineSet
604 446 m 0xec
 538 446 470 358 470 261 c 0
 470 141 365 0 268 0 c 0
 240 0 225 13 225 38 c 0
 225 78 261 132 288 132 c 0
 292 132 294 131 297 126 c 0
 305 114 325 103 341 103 c 0
 379 103 411 166 411 240 c 0
 411 347 343 446 270 446 c 0
 209 446 148 377 129 286 c 1
 122 137 76 0 32 0 c 0
 26 0 24 2 24 7 c 2
 24 10 l 1
 45 109 50 148 50 219 c 2
 50 249 l 2xdc
 50 334 43 385 28 425 c 0
 6 482 -15 464 -15 481 c 0
 -15 508 37 559 66 559 c 0
 95 559 117 509 126 419 c 1
 169 515 232 560 292 560 c 0
 367 560 437 494 457 420 c 1
 493 501 572 560 642 560 c 0
 733 560 800 459 800 320 c 0
 800 153 704 0 599 0 c 0
 569 0 555 13 555 38 c 0
 555 78 591 132 618 132 c 0
 622 132 624 131 627 126 c 0
 635 114 655 103 671 103 c 0
 709 103 741 165 741 239 c 0
 741 344 675 446 604 446 c 0xec
EndSplineSet
Validated: 1
Comment: "n+APoA-men [n]"
Colour: ff00
EndChar

StartChar: b
Encoding: 98 98 12
Width: 860
GlyphClass: 2
Flags: W
HStem: 5 88<131.035 347.247> 5 81<130 215.271 218.722 363.412 396 692.254> 446 114<227.157 330.397 557.645 661.413>
VStem: -15 141<462.526 519.687> 51 79<-343.43 5 86 316.108> 411 59<192.573 339.256> 741 59<195.439 339.298>
AnchorPoint: "Middle" 438 280 basechar 0
AnchorPoint: "Top" 478 800 basechar 0
AnchorPoint: "Bottom" 478 -300 basechar 0
LayerCount: 2
Fore
SplineSet
126 416 m 1x76
 165.271202088 505.618897072 232.492287651 560 304.209355313 560 c 0
 375.056747852 560 433.019942537 506.929802268 458 419 c 1
 496.768007457 506.476529646 563.577445629 560 634.037975306 560 c 0
 729.582266258 560 800 461.584854048 800 327.43313196 c 0
 800 242.214622551 771.584362291 150.439792653 726 89 c 1
 794.45986667 91.8524944446 839.215965587 98.4959778776 853.444508198 107.77109225 c 0
 863 114 869 128 876.804643142 128 c 0
 879.205266808 128 880 126.67544468 880 123 c 2
 880 119 l 2
 880 60.8208687559 815.699586168 15.9693455273 718.209663189 5.86412942045 c 0
 682.616617165 2.17476942327 611.211687768 0 523.895492131 0 c 0
 391.5 0 283.5 5 154 5 c 2xb6
 130 5 l 1
 130 -198 l 2
 130 -349.796327411 28.0806377733 -608.998656037 -31.566914436 -609.917811409 c 0
 -36.9004504596 -610 -40 -608.062781537 -40 -604.331144373 c 0
 -40 -601.053287604 -37.6084486631 -595.738729078 -33.054462267 -587.756762836 c 0
 29.6277356655 -477.891000324 51 -388.492382437 51 -204.334927862 c 0x6e
 51 -164.5 50 -9.5 49.7567576776 72.1049770246 c 0
 49.0125929168 321.763620384 46.2348829017 367.217056994 28 428 c 1
 6 482 -15 464 -15 481.378771471 c 0
 -15 508.635285222 36.6561177209 559 65.9022146062 559 c 0
 95.3365447604 559 117.098236866 507.98488572 126 416 c 1x76
130 301 m 1xae
 130 86 l 1x6e
 152.071798918 91.2551902186 175.252843157 93 217.224929867 93 c 0
 249 93 291 92 350 91 c 1
 387.58291665 130.614425658 411 193.955716687 411 256 c 2
 411 259 l 1
 410 263 409 269 408.28863324 273.043468988 c 0
 390.062636707 376.641578843 335.221094397 446 272.433228027 446 c 0
 212.337557188 446 150.114053029 382.461914768 130 301 c 1xae
606.229577278 446 m 0
 541.634747293 446 470 366.05977476 470 289.292117558 c 0
 470 236.960366814 436.711234676 146.091034442 396 90 c 1
 484.264963992 87.6357598931 528.344316578 87 572.775776811 87 c 0
 628.5 87 652.5 88 677 88 c 1
 716.501412441 127.501412441 741 191.810204784 741 256 c 2
 741 259 l 1
 740 263 739 269 738.283468418 273.072513239 c 0
 720.277114369 375.414290002 666.927449835 446 606.229577278 446 c 0
EndSplineSet
Validated: 1
Comment: "umbar [b]"
Colour: ff00
EndChar

StartChar: d
Encoding: 100 100 13
Width: 840
GlyphClass: 2
Flags: W
HStem: -610 21G<-34.5 -2> 0 103<252 360 582.375 690> 446 114<228.377 329.407 566.061 658.574>
VStem: -15 141<462.51 520.491> 51 79<-343.521 316.106> 411 54<158.745 342.944> 741 59<184.508 340.743>
AnchorPoint: "Middle" 438 280 basechar 0
AnchorPoint: "Top" 478 800 basechar 0
AnchorPoint: "Bottom" 478 -300 basechar 0
LayerCount: 2
Fore
SplineSet
604 446 m 0xf6
 538 446 465 358 465 261 c 0
 465 141 365 0 268 0 c 0
 240 0 225 13 225 38 c 0
 225 78 261 132 288 132 c 0
 292 132 294 131 297 126 c 0
 305 114 325 103 341 103 c 0
 379 103 411 166 411 240 c 0
 411 347 344 446 270 446 c 0
 210 446 151 380 130 291 c 1
 130 -198 l 2
 130 -350 28 -609 -32 -610 c 0
 -37 -610 -40 -608 -40 -604 c 0
 -40 -601 -38 -596 -33 -588 c 0
 30 -478 51 -388 51 -204 c 0xee
 51 -164 50 -10 50 72 c 0
 49 322 46 367 28 428 c 1
 6 482 -15 464 -15 481 c 0
 -15 508 37 559 66 559 c 0
 95 559 117 509 126 419 c 1
 169 515 242 560 302 560 c 0
 377 560 437 494 457 420 c 1
 493 501 572 560 642 560 c 0
 733 560 800 459 800 320 c 0
 800 153 704 0 599 0 c 0
 569 0 555 13 555 38 c 0
 555 78 591 132 618 132 c 0
 622 132 624 131 627 126 c 0
 635 114 655 103 671 103 c 0
 709 103 741 165 741 239 c 0
 741 344 675 446 604 446 c 0xf6
EndSplineSet
Validated: 1
Comment: "ando [d]"
Colour: ff00
EndChar

StartChar: f
Encoding: 102 102 14
Width: 530
GlyphClass: 2
Flags: W
HStem: 0 87<170.507 364.317 394 484.398> 6 88<102.855 343.72> 446 114<228.479 330.386>
VStem: 50 80<110.953 354.737 425 728.69> 411 59<196.143 339.791>
AnchorPoint: "Middle" 268 280 basechar 0
AnchorPoint: "Top" 298 800 basechar 0
AnchorPoint: "Bottom" 268 -300 basechar 0
LayerCount: 2
Fore
SplineSet
30 0 m 1xb8
 30 8 l 1
 40.0977371482 56.4691383114 47.0190873908 130.782583021 49 212 c 1
 49 228 l 1
 49.8099968981 240.149953471 50 299.620924369 50 541 c 2
 50 574 l 2
 50 740.848802135 147.561554895 998.993040554 210.096886899 999.902331129 c 0
 216.813942393 1000 220 997.167948794 220 993.916242922 c 0
 220 990.284792483 216.026334039 982.602371625 206.606948904 966.210473407 c 0
 144.970698355 858.949210482 130 781.900016281 130 577 c 2
 130 476 l 2
 130 454 131 447 131 425 c 1
 170.101062697 509.217673502 235.177673691 560 303.905426888 560 c 0
 399.582266258 560 470 461.584854048 470 327.768581195 c 0
 470 241.479570417 440.719724032 148.630274255 394 87 c 1
 415.170522104 87 439.320127555 87.7546751703 455.602705599 88.9036108301 c 0
 542 95 532 123 544.625652447 123 c 0
 548 123 550 121 550 111.155300035 c 0
 550 55.7725643017 486.704354163 3.98521770817 407 0 c 1
 374 0 l 2xb8
 304 0 222 6 152 6 c 0x78
 82 6 100 0 30 0 c 1xb8
130 301 m 1
 126.952413046 206.524804429 117.755904094 136.237200293 102 87 c 1xb8
 120.18365599 91.7851726289 141.69912188 94 168.592558087 94 c 0x78
 209 94 277 89 347 87 c 1
 386.31006392 126.31006392 411 191.506926382 411 256 c 2
 411 259 l 1
 410 263 409 269 408.28863324 273.043468988 c 0
 390.062636707 376.641578843 335.221094397 446 272.433228027 446 c 0
 212.337557188 446 150.114053029 382.461914768 130 301 c 1
EndSplineSet
Validated: 1
Comment: "formen [f]"
Colour: ff00
EndChar

StartChar: m
Encoding: 109 109 15
Width: 860
GlyphClass: 2
Flags: W
HStem: 5 88<92.3619 368.076 396 699> 446 114<229.736 330.502 557.645 661.413>
VStem: -15 141<461.753 519.519> 50 79<130.588 356.628> 411 59<192.573 339.256> 741 59<195.439 339.298>
AnchorPoint: "Middle" 438 280 basechar 0
AnchorPoint: "Top" 418 800 basechar 0
AnchorPoint: "Bottom" 418 -300 basechar 0
LayerCount: 2
Fore
SplineSet
126 416 m 1xec
 164.996186275 504.991296885 232.993055404 560 304.661967194 560 c 0
 375.056747852 560 433.019942537 506.929802268 458 419 c 1
 496.768007457 506.476529646 563.577445629 560 634.037975306 560 c 0
 729.582266258 560 800 461.584854048 800 327.43313196 c 0
 800 242.214622551 771.584362291 150.439792653 726 89 c 1
 794.45986667 91.8524944446 839.215965587 98.4959778776 853.444508198 107.77109225 c 0
 863 114 869 128 876.804643142 128 c 0
 879.205266808 128 880 126.67544468 880 123 c 2
 880 119 l 2
 880 60.8208687559 815.699586168 15.9693455273 718.209663189 5.86412942045 c 0
 682.616617165 2.17476942327 611.211687768 0 529.657974999 0 c 0
 406 0 299 5 202 5 c 0
 105 5 130 0 55.7692743255 0 c 0
 26.9141629142 0 24 0.755523718496 24 7 c 2
 24 10 l 1
 45.1773131798 108.827461506 50 147.594444022 50 219 c 2
 50 249 l 2xdc
 50 333.873155646 43.586055294 385.476256236 28.0915288676 425.267335316 c 0
 6 482 -15 464 -15 481.378771471 c 0
 -15 508.635285222 36.6561177209 559 65.7445997824 559 c 0
 95.122494809 559 117.036381313 507.628102129 126 416 c 1xec
677 88 m 1
 716.501412441 127.501412441 741 191.810204784 741 256 c 2
 741 259 l 1
 740 263 739 269 738.283468418 273.072513239 c 0
 720.277114369 375.414290002 666.927449835 446 606.229577278 446 c 0
 541.634747293 446 470 366.05977476 470 289.292117558 c 0
 470 236.960366814 436.711234676 146.091034442 396 90 c 1
 484.264963992 87.6357598931 528.344316578 87 572.775776811 87 c 0
 628.5 87 652.5 88 677 88 c 1
350 91 m 1
 387.58291665 130.614425658 411 193.955716687 411 256 c 2
 411 259 l 1
 410 263 409 269 408.28863324 273.043468988 c 0
 390.062636707 376.641578843 335.221094397 446 272.124334867 446 c 0
 211.115603664 446 148.036171383 381.156108075 129 299 c 1
 125.923033744 212.844944831 112.469306315 134.600898466 91 78 c 1
 119.944208164 88.9788375795 155.866592454 93 218.010110479 93 c 0
 249 93 291 92 350 91 c 1
EndSplineSet
Validated: 1
Comment: "malta [m]"
Colour: ff00
EndChar

StartChar: N
Encoding: 78 78 16
Width: 840
GlyphClass: 2
Flags: W
HStem: 0 103<260.412 349.79 590.412 679.79> 446 114<237.793 330.303 568.273 660.573> 980 20G<193 215> 980 20G<193 215>
VStem: 30 100<107.25 269.79> 50 80<110.175 347.924 428 736.188> 411 59<186.755 339.555> 741 59<184.769 338.656>
AnchorPoint: "Middle" 438 280 basechar 0
AnchorPoint: "Top" 478 800 basechar 0
AnchorPoint: "Bottom" 478 -300 basechar 0
LayerCount: 2
Fore
SplineSet
648 560 m 4xe7
 740 560 800 447 800 320 c 4
 800 165 712 15 643 3 c 4
 631 1 628 0 614 0 c 4
 556 0 555 21 555 33 c 4
 555 82 595 132 620 132 c 4
 623 132 626 130 627 128 c 4
 635 114 655 103 673 103 c 4
 710 103 741 167 741 235 c 4
 741 321 690 446 601 446 c 4
 549 446 496 397 470 325 c 5
 470 320 l 6
 470 165 382 15 313 3 c 4
 301 1 298 0 284 0 c 4
 226 0 225 21 225 33 c 4
 225 82 265 132 290 132 c 4
 293 132 296 130 297 128 c 4
 305 114 325 103 343 103 c 4
 380 103 411 167 411 235 c 4
 411 321 360 446 271 446 c 4
 211 446 150 379 130 289 c 5xe7
 125 161 106 28 42 2 c 4
 37 0 30 -2 30 5 c 6
 30 8 l 5xeb
 38 45 47 113 49 212 c 5
 49 228 l 5
 50 253 50 527 50 541 c 6
 50 574 l 6
 50 801 173 999 213 1000 c 4
 217 1000 220 998 220 992 c 5
 220 992 220 989 207 966 c 4
 131 834 130 727 130 581 c 6
 130 428 l 5
 180 530 271 560 318 560 c 4
 384 560 434 501 457 420 c 5
 506 528 600 560 648 560 c 4xe7
EndSplineSet
Validated: 1
Comment: "anto [+APAA]"
Colour: ff00
EndChar

StartChar: P
Encoding: 80 80 17
Width: 860
GlyphClass: 2
Flags: W
HStem: 5 88<101.43 368.076 396 699> 446 114<228.533 330.443 557.645 661.413>
VStem: 50 80<109.506 354.737 425 728.69> 411 59<192.573 339.256> 741 59<195.439 339.298>
AnchorPoint: "Middle" 438 280 basechar 0
AnchorPoint: "Top" 478 800 basechar 0
AnchorPoint: "Bottom" 478 -300 basechar 0
LayerCount: 2
Fore
SplineSet
30 3 m 2
 30 8 l 1
 39.5292596171 51.8345942387 46.8936271633 130.904645787 49 212 c 1
 49 228 l 1
 49.8099968981 240.149953471 50 299.620924369 50 541 c 2
 50 574 l 2
 50 740.848802135 147.561554895 998.993040554 210.096886899 999.902331129 c 0
 216.813942393 1000 220 997.167948794 220 993.916242922 c 0
 220 990.284792483 216.026334039 982.602371625 206.537600696 966.089873325 c 0
 144.881812162 858.79514108 130 782.600262812 130 579 c 2
 130 476 l 2
 130 454 131 447 131 425 c 1
 170.101062697 509.217673502 235.177673691 560 304.346733235 560 c 0
 375.056747852 560 433.019942537 506.929802268 458 419 c 1
 496.768007457 506.476529646 563.577445629 560 634.037975306 560 c 0
 729.582266258 560 800 461.584854048 800 327.43313196 c 0
 800 242.214622551 771.584362291 150.439792653 726 89 c 1
 794.45986667 91.8524944446 839.215965587 98.4959778776 853.444508198 107.77109225 c 0
 863 114 869 128 876.804643142 128 c 0
 879.205266808 128 880 126.67544468 880 123 c 2
 880 119 l 2
 880 60.8208687559 815.699586168 15.9693455273 718.209663189 5.86412942045 c 0
 682.616617165 2.17476942327 611.211687768 0 529.657974999 0 c 0
 406 0 299 5 202 5 c 0
 105 5 130 0 45.1547351797 0 c 0
 30.9772609758 0 30 0.139608710834 30 3 c 2
130 301 m 1
 127.026606303 204.86027048 117.154194403 132.462583209 100 81 c 1
 130.443556103 89.6981588865 164.562580942 93 219.026796271 93 c 0
 249 93 291 92 350 91 c 1
 387.58291665 130.614425658 411 193.955716687 411 256 c 2
 411 259 l 1
 410 263 409 269 408.28863324 273.043468988 c 0
 390.062636707 376.641578843 335.221094397 446 272.433228027 446 c 0
 212.337557188 446 150.114053029 382.461914768 130 301 c 1
606.229577278 446 m 0
 541.634747293 446 470 366.05977476 470 289.292117558 c 0
 470 236.960366814 436.711234676 146.091034442 396 90 c 1
 484.264963992 87.6357598931 528.344316578 87 572.775776811 87 c 0
 628.5 87 652.5 88 677 88 c 1
 716.501412441 127.501412441 741 191.810204784 741 256 c 2
 741 259 l 1
 740 263 739 269 738.283468418 273.072513239 c 0
 720.277114369 375.414290002 666.927449835 446 606.229577278 446 c 0
EndSplineSet
Validated: 1
Comment: "ampa [mp]"
Colour: ff00
EndChar

StartChar: p
Encoding: 112 112 18
Width: 530
GlyphClass: 2
Flags: W
HStem: 0 87<130 170.049 172.451 364.317 394 484.398> 6 88<130.825 343.72> 446 114<228.77 330.518>
VStem: -15 141<462.526 519.687> 51 79<-343.43 6 92 316.108> 411 59<196.143 339.791>
AnchorPoint: "Middle" 268 280 basechar 0
AnchorPoint: "Top" 268 800 basechar 0
AnchorPoint: "Bottom" 288 -300 basechar 0
LayerCount: 2
Fore
SplineSet
126 416 m 1x74
 164.996186275 504.991296885 232.993055404 560 304.259150404 560 c 0
 399.582266258 560 470 461.584854048 470 328.849679385 c 0
 470 243.062834379 440.586183089 149.790072859 394 87 c 1
 415.170522104 87 439.320127555 87.7546751703 455.602705599 88.9036108301 c 0
 542 95 532 123 544.625652447 123 c 0
 548 123 550 121 550 111.155300035 c 0
 550 55.7725643017 486.704354163 3.98521770817 407 0 c 1
 374 0 l 2xb4
 300 0 218 6 144 6 c 2
 130 6 l 1
 130 -198 l 2
 130 -349.796327411 28.0806377733 -608.998656037 -31.566914436 -609.917811409 c 0
 -36.9004504596 -610 -40 -608.062781537 -40 -604.331144373 c 0
 -40 -601.053287604 -37.6084486631 -595.738729078 -33.054462267 -587.756762836 c 0
 29.6277356655 -477.891000324 51 -388.492382437 51 -204.334927862 c 0x6c
 51 -164.5 50 -9.5 49.7567576776 72.1049770246 c 0
 49.0125929168 321.763620384 46.2348829017 367.217056994 28 428 c 1
 6 482 -15 464 -15 481.378771471 c 0
 -15 508.635285222 36.6561177209 559 65.9022146062 559 c 0
 95.3365447604 559 117.098236866 507.98488572 126 416 c 1x74
130 301 m 1xac
 130 92 l 1
 147.701485185 93.4751237654 158.199009877 94 170.630638433 94 c 0x6c
 209 94 277 89 347 87 c 1
 386.31006392 126.31006392 411 191.506926382 411 256 c 2
 411 259 l 1
 410 263 409 269 408.28863324 273.043468988 c 0
 390.062636707 376.641578843 335.221094397 446 272.433228027 446 c 0
 212.337557188 446 150.114053029 382.461914768 130 301 c 1xac
EndSplineSet
Validated: 1
Comment: "parma [p]"
Colour: ff00
EndChar

StartChar: T
Encoding: 84 84 19
Width: 510
GlyphClass: 2
Flags: W
HStem: 0 103<252.785 359.894> 446 114<234.36 329.072>
VStem: 50 80<109.074 351.242 428 728.69> 411 59<184.564 344.04>
AnchorPoint: "Middle" 268 280 basechar 0
AnchorPoint: "Top" 298 800 basechar 0
AnchorPoint: "Bottom" 268 -300 basechar 0
LayerCount: 2
Fore
SplineSet
470 318.875778919 m 0
 470 153.063209307 374.335494183 0 269.44911624 0 c 0
 239.837618106 0 225 12.1998193312 225 37.5016572268 c 0
 225 77.1259788281 261.390140356 132 288.324037778 132 c 0
 292.366750419 132 294.427204202 130.76372773 297.377376703 126.08150956 c 0
 305.128585846 113.779567122 325.281689595 103 340.982682045 103 c 0
 378.804613319 103 411 165.55103698 411 239.669380272 c 0
 411 346.711900329 343.848628242 446 270.835938816 446 c 0
 210.58542271 446 149.864059967 378.388269854 130 289 c 1
 124.078418598 120.23493003 94.6890264222 23.2837167621 44.0903111807 2.22206123412 c 0
 34.7795929101 -1.65351426216 30 -0.550531282891 30 5 c 2
 30 8 l 1
 40.0977371482 56.4691383114 47.0190873908 130.782583021 49 212 c 1
 49 228 l 1
 49.8099968981 240.149953471 50 299.620924369 50 541 c 2
 50 574 l 2
 50 740.848802135 147.561554895 998.993040554 210.096886899 999.902331129 c 0
 216.813942393 1000 220 997.167948794 220 993.916242922 c 0
 220 990.284792483 216.026334039 982.602371625 206.537600696 966.089873325 c 0
 144.881812162 858.79514108 130 782.600262812 130 579 c 2
 130 428 l 1
 167.036494979 504.022279167 244.217897945 560 311.667519943 560 c 0
 402.770043437 560 470 457.878546993 470 318.875778919 c 0
EndSplineSet
Validated: 1
Comment: "+AP4A+gAA-l+AOsA [+A7gA]"
Colour: ff00
EndChar

StartChar: grave
Encoding: 96 96 20
Width: 180
GlyphClass: 2
Flags: W
HStem: 0 21G<29.6375 57.5809> 539 20G<51.2568 84.9589>
VStem: 50 80<139.094 421.414>
AnchorPoint: "Middle" 60 280 basechar 0
AnchorPoint: "Top" 60 800 basechar 0
AnchorPoint: "Bottom" 60 -300 basechar 0
LayerCount: 2
Fore
SplineSet
65.857516368 559 m 0
 104.060205101 559 130 472.800066181 130 342.86845849 c 0
 130 167.360495191 82.6706471326 0 32.4912311215 0 c 0
 26.7837660727 0 24 2.16515138991 24 7 c 2
 24 10 l 1
 45.1773131798 108.827461506 50 147.594444022 50 219 c 2
 50 249 l 2
 50 333.873155646 43.586055294 385.476256236 28.0915288676 425.267335316 c 0
 6 482 -15 464 -15 481.378771471 c 0
 -15 508.635285222 36.6561177209 559 65.857516368 559 c 0
EndSplineSet
Validated: 1
Comment: "telco (short carrier)"
Colour: ff00
EndChar

StartChar: one
Encoding: 49 49 21
Width: 475
GlyphClass: 2
Flags: W
HStem: 0 114<199.681 301.326> 473 87<164.862 496.023> 475 142<23.8337 81.3231>
VStem: 60 59<220.209 362.638> 405.723 29.2773<234.823 334.44>
AnchorPoint: "Bottom" 248 -300 basechar 0
AnchorPoint: "Top" 248 800 basechar 0
AnchorPoint: "Middle" 248 280 basechar 0
LayerCount: 2
Fore
SplineSet
137 475 m 1xb8
 31.5810911853 480.967108046 -15 497.822108146 -15 529.762966824 c 0
 -15 562.319822391 33.3950997228 617 62.1685507346 617 c 0xb8
 80 617 62 596 112.811471429 576.273326218 c 0
 147.037775353 562.985556483 187.156190588 560 328 560 c 2
 436 560 l 2
 495.329260745 560 535 559.20703125 535 556 c 6
 535 553 l 6
 535 491.513671875 472.977259892 474 340.625660507 474 c 0
 309 474 260 473 226 473 c 2
 184 473 l 1xd8
 144.302521861 435.287395768 119 369.500838929 119 304 c 2
 119 301 l 1
 120 297 121 291 121.71136676 286.956531012 c 0
 139.937363293 183.358421157 194.778905603 114 257.713787934 114 c 0
 329.010929252 114 401.000769388 203.014464492 405.72266048 298.060658905 c 0
 406.966821149 323.104171016 412.60168751 335 423.963205922 335 c 0
 432.670833985 335 435 328.012501954 435 302.316229987 c 0
 435 137.858013193 339.594951134 0 226.21477432 0 c 0
 130.417733742 0 60 98.4151459523 60 231.84151725 c 0
 60 318.66262824 89.8159994586 412.757275882 137 475 c 1xb8
EndSplineSet
Validated: 1
Comment: "telcol+APMA-ra vala (steamless v) - min+AOsA (one)"
Colour: ff00
EndChar

StartChar: h
Encoding: 104 104 22
Width: 180
GlyphClass: 2
Flags: W
VStem: 50 80<115.746 728.69>
AnchorPoint: "Middle" 88 280 basechar 0
AnchorPoint: "Top" 58 800 basechar 0
AnchorPoint: "Bottom" 88 -300 basechar 0
LayerCount: 2
Fore
SplineSet
49 228 m 1
 49.8099968981 240.149953471 50 299.620924369 50 541 c 2
 50 574 l 2
 50 740.848802135 147.561554895 998.993040554 210.096886899 999.902331129 c 0
 216.813942393 1000 220 997.167948794 220 993.916242922 c 0
 220 990.284792483 216.026334039 982.602371625 206.537600696 966.089873325 c 0
 144.881812162 858.79514108 130 782.600262812 130 579 c 2
 130 476 l 2
 130 438 131 402 131 362.063195322 c 0
 131 146.146891509 101.770307559 25.9065657868 44.068980486 2.16815365909 c 0
 34.7795929101 -1.65351426216 30 -0.550531282891 30 5 c 2
 30 8 l 1
 40.0977371482 56.4691383114 47.0190873908 130.782583021 49 212 c 1
 49 228 l 1
EndSplineSet
Comment: "halla [h]"
Colour: ff00
EndChar

StartChar: asciitilde
Encoding: 126 126 23
Width: 180
GlyphClass: 2
Flags: W
HStem: 539 20G<51.2434 85.2968>
VStem: 51 79<-343.43 316.108>
AnchorPoint: "Middle" 60 280 basechar 0
AnchorPoint: "Top" 60 800 basechar 0
AnchorPoint: "Bottom" 60 -300 basechar 0
LayerCount: 2
Fore
SplineSet
130 328 m 2
 130 -198 l 2
 130 -349.796327411 28.0806377733 -608.998656037 -31.566914436 -609.917811409 c 0
 -36.9004504596 -610 -40 -608.062781537 -40 -604.331144373 c 0
 -40 -601.053287604 -37.6084486631 -595.738729078 -33.054462267 -587.756762836 c 0
 29.6277356655 -477.891000324 51 -388.492382437 51 -204.334927862 c 0
 51 -164.5 50 -9.5 49.7567576776 72.1049770246 c 0
 49.0125929168 321.763620384 46.2348829017 367.217056994 28 428 c 1
 6 482 -15 464 -15 481.378771471 c 0
 -15 508.635285222 36.6561177209 559 65.830669776 559 c 0
 104.762938475 559 130 469.311365964 130 328 c 2
EndSplineSet
Comment: "+AOEA-ra (long carrier)"
Colour: ff00
EndChar

StartChar: t
Encoding: 116 116 24
Width: 510
GlyphClass: 2
Flags: W
HStem: -610 21G<-34.5 -2> 0 103<252 360> 446 114<214.878 328.422>
VStem: -15 141<462.51 520.491> 51 79<-343.521 316.106> 411 59<159.953 342.258>
AnchorPoint: "Middle" 268 280 basechar 0
AnchorPoint: "Top" 268 800 basechar 0
AnchorPoint: "Bottom" 288 -300 basechar 0
LayerCount: 2
Fore
SplineSet
470 255 m 0xf4
 470 140 365 0 268 0 c 0
 240 0 225 13 225 38 c 0
 225 78 261 132 288 132 c 0
 292 132 294 131 297 126 c 0
 305 114 325 103 341 103 c 0
 379 103 411 166 411 240 c 0
 411 347 344 446 270 446 c 0
 210 446 151 380 130 291 c 1
 130 -198 l 2
 130 -350 28 -609 -32 -610 c 0
 -37 -610 -40 -608 -40 -604 c 0
 -40 -601 -38 -596 -33 -588 c 0
 30 -478 51 -388 51 -204 c 0xec
 51 -164 50 -10 50 72 c 0
 49 322 46 367 28 428 c 1
 6 482 -15 464 -15 481 c 0
 -15 508 37 559 66 559 c 0
 95 559 117 509 126 419 c 1
 169 516 224 560 276 560 c 0
 426 560 470 410 470 255 c 0xf4
EndSplineSet
Validated: 1
Comment: "tinco [t]"
Colour: ff00
EndChar

StartChar: percent
Encoding: 37 37 25
Width: 830
GlyphClass: 3
Flags: W
HStem: 0 114<181.046 273.794> 0 103<572.785 679.894> 446 114<554.317 648.959> 456 104<151.395 257.471>
VStem: 40 59<215.75 374.725> 370 80<-344.883 121 186.219 349.381 427 730.134> 731 59<184.564 344.04>
AnchorPoint: "Middle" 412 280 basechar 0
AnchorPoint: "Top" 228 800 basechar 0
AnchorPoint: "Bottom" 602 -300 basechar 0
LayerCount: 2
Fore
SplineSet
790 318.875778919 m 0xae
 790 153.063209307 694.335494183 0 589.44911624 0 c 0
 559.837618106 0 545 12.1998193312 545 37.5016572268 c 0
 545 77.1259788281 581.390140356 132 608.324037778 132 c 0
 612.366750419 132 614.427204202 130.76372773 617.377376703 126.08150956 c 0
 625.128585846 113.779567122 645.281689595 103 660.982682045 103 c 0
 698.804613319 103 731 165.55103698 731 239.669380272 c 0
 731 346.711900329 663.848628242 446 590.33666096 446 c 0x6e
 530.563880717 446 470.849980738 380.357060307 450 291 c 1
 450 -200 l 2
 450 -351.426174398 348.228431752 -608.996192804 288.460834484 -609.917368513 c 0
 283.09954954 -610 280 -608.062781537 280 -604.389462629 c 0
 280 -601.59629495 281.792154013 -597.613730478 288.447047363 -585.791493249 c 0
 348.849730636 -478.487767512 370 -391.014431254 370 -250 c 2
 370 121 l 1
 331.829733422 49.5530907641 261.390629195 0 198.419883025 0 c 0
 107.59051141 0 40 103.096919302 40 240.993620663 c 0
 40 406.408592319 137.258508939 560 242.45566614 560 c 0
 267.705269339 560 285 551.15153315 285 524.497223319 c 0
 285 487.182441207 251.104601854 428 220.964233381 428 c 0
 216.899367063 428 214.961781899 429.076436203 212.932201338 432.679120399 c 0
 205.743235914 445.440167005 186.460062618 456 170.646778476 456 c 0x9e
 132.143599285 456 99 393.395423573 99 319.031103503 c 0
 99 213.050955931 166.316183642 114 239.252018964 114 c 0
 288.836397033 114 341.90765006 159.779019787 370 227 c 1
 370 576 l 2
 370 742.45828269 467.409688474 998.990629976 531.034589819 999.909083455 c 0
 537.33273811 1000 540 997.629100543 540 994.461635506 c 0
 540 989.830458915 534.29803322 978.806656474 526.088999628 964.614269523 c 0
 464.79142498 858.638469966 450 783.300812066 450 581 c 2
 450 427 l 1
 487.521159828 504.017117542 564.129314771 560 631.618408646 560 c 0
 722.770043437 560 790 457.878546993 790 318.875778919 c 0xae
EndSplineSet
Validated: 1
Comment: "haranta (hundreth, %) - also ligature [ht]"
Colour: ff00
EndChar

StartChar: two
Encoding: 50 50 26
Width: 805
GlyphClass: 2
Flags: W
HStem: 0 114<198.587 302.355 529.576 631.198> 473 87<337.163 466 496.387 829.547> 476 141<21.6612 80.271>
VStem: 60 59<220.702 363.861> 390 59<220.819 367.066> 735.723 29.2773<234.823 334.44>
AnchorPoint: "Middle" 428 280 basechar 0
AnchorPoint: "Top" 428 800 basechar 0
AnchorPoint: "Bottom" 428 -300 basechar 0
LayerCount: 2
Fore
SplineSet
185 474 m 1xdc
 144.70128579 435.7162215 119 369.515939921 119 304 c 2
 119 301 l 1
 120 297 121 291 121.716531582 286.927486761 c 0
 139.722885631 184.585709998 193.072550165 114 253.770422722 114 c 0
 318.365252707 114 390 193.94022524 390 270.8661363 c 0
 390 324.161849373 424.384521957 416.909573072 466 473 c 1
 259 473 l 2
 218.277168078 473 202.228890428 473.216868617 185 474 c 1xdc
138 476 m 1xbc
 31.763283509 481.957199056 -15 498.767529729 -15 531.065873808 c 0
 -15 563.695139511 32.7264448564 617 61.7702746698 617 c 0xbc
 80 617 62 596 107.091454355 578.178513016 c 0
 146.926127785 562.434662563 208.817812949 560 589 560 c 2
 820 560 l 2
 864.010742188 560 865 559.93359375 865 557 c 2
 865 554 l 2
 865 491.028320312 805.055563595 473 683 473 c 2
 514 473 l 1xdc
 474 434 449 369 449 304 c 2
 449 301 l 1
 450 297 451 291 451.71136676 286.956531012 c 0
 469.937363293 183.358421157 524.778905603 114 587.713787934 114 c 0
 659.010929252 114 731.000769388 203.014464492 735.72266048 298.060658905 c 0
 736.966821149 323.104171016 742.60168751 335 753.963205922 335 c 0
 762.670833985 335 765 328.012501954 765 302.316229987 c 0
 765 137.858013193 669.594951134 0 555.64433074 0 c 0
 484.943252148 0 426.980057463 53.0701977315 402 141 c 1
 363.231992543 53.523470354 296.422554371 0 225.962024694 0 c 0
 130.417733742 0 60 98.4151459523 60 232.498478318 c 0
 60 320.076937987 90.041876698 414.054090735 138 476 c 1xbc
EndSplineSet
Validated: 1
Comment: "atta (two)"
Colour: ff00
EndChar

StartChar: three
Encoding: 51 51 27
Width: 1135
GlyphClass: 2
Flags: W
HStem: 0 114<198.587 302.355 527.116 632.432 859.576 961.198> 473 87<337.163 466 496.387 796 826.387 1176.02> 476 141<21.6612 80.271>
VStem: 60 59<220.702 363.861> 390 59<220.819 367.066> 720 59<220.819 367.066> 1065.72 29.2773<234.823 334.44>
AnchorPoint: "Middle" 588 280 basechar 0
AnchorPoint: "Top" 578 800 basechar 0
AnchorPoint: "Bottom" 578 -300 basechar 0
LayerCount: 2
Fore
SplineSet
185 474 m 1xde
 144.70128579 435.7162215 119 369.515939921 119 304 c 2
 119 301 l 1
 120 297 121 291 121.716531582 286.927486761 c 0
 139.722885631 184.585709998 193.072550165 114 253.770422722 114 c 0
 318.365252707 114 390 193.94022524 390 270.8661363 c 0
 390 324.161849373 424.384521957 416.909573072 466 473 c 1
 259 473 l 2
 218.277168078 473 202.228890428 473.216868617 185 474 c 1xde
732 141 m 1
 692.957042026 52.9030691873 626.92200531 0 555.988606802 0 c 0
 484.943252148 0 426.980057463 53.0701977315 402 141 c 1
 363.231992543 53.523470354 296.422554371 0 225.962024694 0 c 0
 130.417733742 0 60 98.4151459523 60 232.498478318 c 0
 60 320.076937987 90.041876698 414.054090735 138 476 c 1
 31.763283509 481.957199056 -15 498.767529729 -15 531.065873808 c 0
 -15 563.695139511 32.7264448564 617 61.7702746698 617 c 0xbe
 80 617 62 596 107.091454355 578.178513016 c 0
 146.926127785 562.434662563 208.817812949 560 589 560 c 2
 1151 560 l 2
 1194.01074219 560 1195 559.932617188 1195 557 c 2
 1195 554 l 2
 1195 490.962890625 1167.94433594 473 1073 473 c 2
 844 473 l 1
 804 434 779 369 779 304 c 2
 779 301 l 1
 780 297 781 291 781.71136676 286.956531012 c 0
 799.937363293 183.358421157 854.778905603 114 917.713787934 114 c 0
 989.010929252 114 1061.00076939 203.014464492 1065.72266048 298.060658905 c 0
 1066.96682115 323.104171016 1072.60168751 335 1083.96320592 335 c 0
 1092.67083398 335 1095 328.012501954 1095 302.316229987 c 0
 1095 137.858013193 999.594951134 0 885.64433074 0 c 0
 814.943252148 0 756.980057463 53.0701977315 732 141 c 1
514 473 m 1xde
 474 434 449 369 449 304 c 2
 449 301 l 1
 450 297 451 291 451.716531582 286.927486761 c 0
 469.722885631 184.585709998 523.072550165 114 583.770422722 114 c 0
 648.365252707 114 720 193.94022524 720 270.8661363 c 0
 720 324.161849373 754.384521957 416.909573072 796 473 c 1
 514 473 l 1xde
EndSplineSet
Validated: 1
Comment: "neld+AOsA (three)"
Colour: ff00
EndChar

StartChar: C
Encoding: 67 67 28
Width: 510
GlyphClass: 2
Flags: W
HStem: 0 114<181.465 274.337> 456 104<151.395 257.471>
VStem: 40 59<215.7 374.715> 380 80<-344.883 141 203.271 730.134>
AnchorPoint: "Middle" 228 280 basechar 0
AnchorPoint: "Top" 228 800 basechar 0
AnchorPoint: "Bottom" 208 -300 basechar 0
LayerCount: 2
Fore
SplineSet
40 240.937427545 m 0
 40 406.408592319 137.258508939 560 242.45566614 560 c 0
 267.705269339 560 285 551.15153315 285 524.497223319 c 0
 285 487.182441207 251.104601854 428 220.964233381 428 c 0
 216.899367063 428 214.961781899 429.076436203 212.932201338 432.679120399 c 0
 205.743235914 445.440167005 186.460062618 456 170.646778476 456 c 0
 132.143599285 456 99 393.395423573 99 319.031103503 c 0
 99 213.050955931 166.316183642 114 239.683819735 114 c 0
 297.716495738 114 359.251974133 175.971900228 380 256 c 1
 380 576 l 2
 380 742.45828269 477.409688474 998.990629976 541.034589819 999.909083455 c 0
 547.33273811 1000 550 997.629100543 550 994.461635506 c 0
 550 989.830458915 544.29803322 978.806656474 536.088999628 964.614269523 c 0
 474.79142498 858.638469966 460 783.300812066 460 581 c 2
 460 -200 l 2
 460 -351.426174398 358.228431752 -608.996192804 298.460834484 -609.917368513 c 0
 293.09954954 -610 290 -608.062781537 290 -604.389462629 c 0
 290 -601.59629495 291.792154013 -597.613730478 298.447047363 -585.791493249 c 0
 358.849730636 -478.487767512 380 -391.014431254 380 -250 c 2
 380 141 l 1
 342.496491138 58.0975067263 267.91742222 0 199.201030576 0 c 0
 107.805618056 0 40 102.774553154 40 240.937427545 c 0
EndSplineSet
Validated: 1
Comment: "anda calma [+AqYA]"
Colour: ff00
EndChar

StartChar: H
Encoding: 72 72 29
Width: 510
GlyphClass: 2
Flags: W
HStem: 0 114<181.542 273.829> 456 104<151.395 257.471>
VStem: 40 59<215.7 374.715> 380 80<203.271 728.69> 383 141<38.915 96.1246>
AnchorPoint: "Middle" 228 280 basechar 0
AnchorPoint: "Top" 228 800 basechar 0
AnchorPoint: "Bottom" 228 -300 basechar 0
LayerCount: 2
Fore
SplineSet
379 228 m 1025xe0
40 240.937427545 m 0
 40 406.408592319 137.258508939 560 242.45566614 560 c 0
 267.705269339 560 285 551.15153315 285 524.497223319 c 0
 285 487.182441207 251.104601854 428 220.964233381 428 c 0
 216.899367063 428 214.961781899 429.076436203 212.932201338 432.679120399 c 0
 205.743235914 445.440167005 186.460062618 456 170.646778476 456 c 0
 132.143599285 456 99 393.395423573 99 319.031103503 c 0
 99 213.050955931 166.316183642 114 239.683819735 114 c 0
 297.716495738 114 359.251974133 175.971900228 380 256 c 1
 380 574 l 2
 380 740.848802135 477.561554895 998.993040554 540.096886899 999.902331129 c 0
 546.813942393 1000 550 997.167948794 550 993.916242922 c 0
 550 990.284792483 546.026334039 982.602371625 536.537600696 966.089873325 c 0
 474.881812162 858.79514108 460 782.600262812 460 579 c 2
 460 286 l 2xf0
 460 214.130039131 466.37529866 167.074263304 481.156550402 130.721465531 c 0
 503 77 524 94 524 76.6775252517 c 0
 524 49.5543361565 472.514975422 0 443.252507183 0 c 0
 412.922251554 0 390.980059458 53.2367939391 383 148 c 1xe8
 346.612450481 61.4566389812 270.206899315 0 199.387598487 0 c 0
 107.805618056 0 40 102.774553154 40 240.937427545 c 0
EndSplineSet
Validated: 1
Comment: "harma [kh]"
Colour: ff00
EndChar

StartChar: copyright
Encoding: 169 169 30
Width: 0
GlyphClass: 4
Flags: W
HStem: 601 21G<-7.23926 9.33984>
VStem: -19 60<607.277 787.939>
AnchorPoint: "MarkMark" 11 789 basemark 0
AnchorPoint: "Top" 11 789 mark 0
LayerCount: 2
Fore
SplineSet
-19 620 m 2
 -19 660 l 2
 -19 773.48828125 57.7958984375 967.995117188 102.245117188 968.912109375 c 0
 106.514648438 969 109 967.342773438 109 964.685546875 c 0
 109 963 110 966 102.29296875 952.216796875 c 0
 57.3134765625 871.7734375 40 801.452148438 40 689.020507812 c 0
 40 662 41 682 41 651 c 2
 41 641 l 2
 41 621 20 601 -1.3203125 601 c 0
 -13.158203125 601 -19 607.166015625 -19 620 c 2
EndSplineSet
Validated: 1
Comment: "amor+AOsA [r superior]"
Colour: ff00ff
EndChar

StartChar: K
Encoding: 75 75 31
Width: 850
GlyphClass: 2
Flags: W
HStem: 0 114<198.587 302.355 529.496 630.703> 473 87<165.571 466 496.387 720> 476 141<21.6612 81.0321>
VStem: 60 59<220.702 363.861> 390 59<220.819 367.066> 720 80<188.044 474 564 728.69> 725 139<36.5813 96.1246>
AnchorPoint: "Middle" 418 280 basechar 0
AnchorPoint: "Top" 418 800 basechar 0
AnchorPoint: "Bottom" 418 -300 basechar 0
LayerCount: 2
Fore
SplineSet
185 474 m 1xd8
 144.70128579 435.7162215 119 369.515939921 119 304 c 2
 119 301 l 1
 120 297 121 291 121.716531582 286.927486761 c 0
 139.722885631 184.585709998 193.072550165 114 253.770422722 114 c 0
 318.365252707 114 390 193.94022524 390 270.8661363 c 0
 390 324.161849373 424.384521957 416.909573072 466 473 c 1
 259 473 l 2
 218.277168078 473 202.228890428 473.216868617 185 474 c 1xd8
725 126 m 1xda
 684.987966927 46.976234681 621.980160093 0 555.550420998 0 c 0
 484.943252148 0 426.980057463 53.0701977315 402 141 c 1
 363.231992543 53.523470354 296.422554371 0 225.962024694 0 c 0
 130.417733742 0 60 98.4151459523 60 232.498478318 c 0
 60 320.076937987 90.041876698 414.054090735 138 476 c 1
 31.763283509 481.957199056 -15 498.767529729 -15 531.065873808 c 0
 -15 563.695139511 32.7264448564 617 61.7702746698 617 c 0xba
 80 617 62 596 111.898392964 576.400494474 c 0
 145.198270601 563.32069176 185.827910955 560 313.917764894 560 c 0
 454.5 560 584.5 564 720 564 c 1
 720 574 l 2
 720 740.848802135 817.561554895 998.993040554 880.096886899 999.902331129 c 0
 886.813942393 1000 890 997.167948794 890 993.916242922 c 0
 890 990.284792483 886.026334039 982.602371625 876.537600696 966.089873325 c 0
 814.881812162 858.79514108 800 782.600262812 800 579 c 2
 800 286 l 2xdc
 800 214.130039131 806.37529866 167.074263304 821.156550402 130.721465531 c 0
 843 77 864 94 864 76.6775252517 c 0
 864 49.5543361565 812.514975422 0 783.407086856 0 c 0
 755.801254072 0 734.930245911 44.5719835293 725 126 c 1xda
514 473 m 1xdc
 474 434 449 369 449 304 c 2
 449 301 l 1
 450 297 451 291 451.71136676 286.956531012 c 0
 469.937363293 183.358421157 524.778905603 114 587.396694664 114 c 0
 638.789656332 114 692.887519565 160.720881882 720 228 c 1
 720 474 l 1
 711.298351546 473.20894105 703.567532709 473 683 473 c 2
 514 473 l 1xdc
EndSplineSet
Validated: 1
Comment: "unqu+AOsA [nk]"
Colour: ff00
EndChar

StartChar: M
Encoding: 77 77 32
Width: 850
GlyphClass: 2
Flags: W
HStem: 0 114<198.587 302.355 529.496 630.703> 473 87<184.086 466 496.387 684.986> 476 141<21.6612 80.271>
VStem: 60 59<220.702 363.861> 390 59<220.819 367.066> 720 80<187.333 426.954> 725 140<36.9386 96.716>
AnchorPoint: "Bottom" 418 -300 basechar 0
AnchorPoint: "Top" 418 800 basechar 0
AnchorPoint: "Middle" 418 280 basechar 0
LayerCount: 2
Fore
SplineSet
185 474 m 1xd8
 144.70128579 435.7162215 119 369.515939921 119 304 c 2
 119 301 l 1
 120 297 121 291 121.716531582 286.927486761 c 0
 139.722885631 184.585709998 193.072550165 114 253.770422722 114 c 0
 318.365252707 114 390 193.94022524 390 270.8661363 c 0
 390 324.161849373 424.384521957 416.909573072 466 473 c 1
 259 473 l 2
 218.277168078 473 202.228890428 473.216868617 185 474 c 1xd8
725 126 m 1xda
 684.987966927 46.976234681 621.980160093 0 555.550420998 0 c 0
 484.943252148 0 426.980057463 53.0701977315 402 141 c 1
 363.231992543 53.523470354 296.422554371 0 225.962024694 0 c 0
 130.417733742 0 60 98.4151459523 60 232.498478318 c 0
 60 320.076937987 90.041876698 414.054090735 138 476 c 1
 31.763283509 481.957199056 -15 498.767529729 -15 531.065873808 c 0
 -15 563.695139511 32.7264448564 617 61.7702746698 617 c 0xba
 80 617 62 596 107.091454355 578.178513016 c 0
 146.926127785 562.434662563 208.817812949 560 436.6112261 560 c 0
 697.349390003 560 790.252786947 563.189816204 821.748790836 567.574433244 c 0
 840.112645739 570.130899499 850 568.718420319 850 564 c 2
 850 561 l 2
 850 524.582009728 839.706816662 504.853408331 814 492 c 1
 804.591415185 439.730084358 800 389.880433784 800 340 c 2
 800 310 l 2xdc
 800 221.134001579 806.153580829 171.62564673 821.676698374 132.813915815 c 0
 844 77 865 94 865 76.6775252517 c 0
 865 49.5543361565 813.514975422 0 784.381598309 0 c 0
 756.473931987 0 734.820449644 45.4723129207 725 126 c 1xda
514 473 m 1xdc
 474 434 449 369 449 304 c 2
 449 301 l 1
 450 297 451 291 451.71136676 286.956531012 c 0
 469.937363293 183.358421157 524.778905603 114 587.396694664 114 c 0
 638.789656332 114 692.887519565 160.720881882 720 228 c 1
 720 323.256922193 733.064474559 411.177305038 757 477 c 1
 738.783284368 474.267492655 715.334670246 473 683 473 c 2
 514 473 l 1xdc
EndSplineSet
Validated: 1
Comment: "+APEA-walm+AOsA [nw/+AUsA-w]"
Colour: ff00
EndChar

StartChar: V
Encoding: 86 86 33
Width: 510
GlyphClass: 2
Flags: W
HStem: 0 114<181.435 273.678> 456 104<151.395 257.471>
VStem: 40 59<215.7 374.715> 381 79<204.84 422.62> 383 142<41.224 96.716>
AnchorPoint: "Middle" 228 280 basechar 0
AnchorPoint: "Top" 228 800 basechar 0
AnchorPoint: "Bottom" 228 -300 basechar 0
LayerCount: 2
Fore
SplineSet
40 240.937427545 m 0xe8
 40 406.408592319 137.258508939 560 242.45566614 560 c 0
 267.705269339 560 285 551.15153315 285 524.497223319 c 0
 285 487.182441207 251.104601854 428 220.964233381 428 c 0
 216.899367063 428 214.961781899 429.076436203 212.932201338 432.679120399 c 0
 205.743235914 445.440167005 186.460062618 456 170.646778476 456 c 0
 132.143599285 456 99 393.395423573 99 319.031103503 c 0
 99 213.050955931 166.316183642 114 239.10857058 114 c 0
 297.438134234 114 360.155824732 177.601038251 381 258 c 1
 386.005162417 415.162099883 432.046349209 560 477.641528177 560 c 0
 483.216233927 560 486 557.83484861 486 553 c 2
 486 550 l 1
 465.088855707 453.410428741 460 412.308132648 460 340 c 2
 460 310 l 2xf0
 460 221.134001579 466.153580829 171.62564673 481.676698374 132.813915815 c 0
 504 77 525 94 525 76.6775252517 c 0
 525 49.5543361565 473.514975422 0 444.226870064 0 c 0
 413.600177195 0 390.899997918 54.1875247267 383 148 c 1
 346.612450481 61.4566389812 270.206899315 0 199.387598487 0 c 0
 107.805618056 0 40 102.774553154 40 240.937427545 c 0xe8
EndSplineSet
Validated: 1
Comment: "anna [+AmYA]"
Colour: ff00
EndChar

StartChar: W
Encoding: 87 87 34
Width: 860
GlyphClass: 2
Flags: W
HStem: 5 88<131.035 347.247> 5 81<130 215.271 218.722 363.412 396 692.254> 446 114<228.206 330.427 557.645 661.413>
VStem: 50 80<-344.883 5 86 354.737 424 730.134> 411 59<192.573 339.256> 741 59<195.439 339.298>
AnchorPoint: "Middle" 438 280 basechar 0
AnchorPoint: "Top" 478 800 basechar 0
AnchorPoint: "Bottom" 478 -300 basechar 0
LayerCount: 2
Fore
SplineSet
50 -250 m 2x7c
 50 576 l 2
 50 742.45828269 147.409688474 998.990629976 211.034589819 999.909083455 c 0
 217.33273811 1000 220 997.629100543 220 994.461635506 c 0
 220 989.830458915 214.29803322 978.806656474 206.088999628 964.614269523 c 0
 144.79142498 858.638469966 130 783.300812066 130 581 c 2
 130 424 l 1
 168.790578161 508.543567786 234.624542905 560 304.298586967 560 c 0
 375.056747852 560 433.019942537 506.929802268 458 419 c 1
 496.768007457 506.476529646 563.577445629 560 634.037975306 560 c 0
 729.582266258 560 800 461.584854048 800 327.43313196 c 0
 800 242.214622551 771.584362291 150.439792653 726 89 c 1
 794.45986667 91.8524944446 839.215965587 98.4959778776 853.444508198 107.77109225 c 0
 863 114 869 128 876.804643142 128 c 0
 879.205266808 128 880 126.67544468 880 123 c 2
 880 119 l 2
 880 60.8208687559 815.699586168 15.9693455273 718.209663189 5.86412942045 c 0
 682.616617165 2.17476942327 611.211687768 0 523.895492131 0 c 0
 391.5 0 283.5 5 154 5 c 2xbc
 130 5 l 1
 130 -200 l 2
 130 -351.426174398 28.2284317519 -608.996192804 -31.5391655158 -609.917368513 c 0
 -36.9004504596 -610 -40 -608.062781537 -40 -604.389462629 c 0
 -40 -601.59629495 -38.2078459872 -597.613730478 -31.5529526365 -585.791493249 c 0
 28.8497306363 -478.487767512 50 -391.014431254 50 -250 c 2x7c
606.229577278 446 m 0
 541.634747293 446 470 366.05977476 470 289.292117558 c 0
 470 236.960366814 436.711234676 146.091034442 396 90 c 1
 484.264963992 87.6357598931 528.344316578 87 572.775776811 87 c 0
 628.5 87 652.5 88 677 88 c 1
 716.501412441 127.501412441 741 191.810204784 741 256 c 2
 741 259 l 1
 740 263 739 269 738.283468418 273.072513239 c 0
 720.277114369 375.414290002 666.927449835 446 606.229577278 446 c 0
350 91 m 1
 387.58291665 130.614425658 411 193.955716687 411 256 c 2
 411 259 l 1
 410 263 409 269 408.28863324 273.043468988 c 0
 390.062636707 376.641578843 335.221094397 446 272.433228027 446 c 0
 212.337557188 446 150.114053029 382.461914768 130 301 c 1
 130 86 l 1x7c
 152.071798918 91.2551902186 175.252843157 93 217.224929867 93 c 0
 249 93 291 92 350 91 c 1
EndSplineSet
Validated: 1
Comment: "anda ampa [+AlYA]"
Colour: ff00
EndChar

StartChar: X
Encoding: 88 88 35
Width: 850
GlyphClass: 2
Flags: W
HStem: 0 114<198.587 302.355 529.692 631.837> 473 87<165.571 466 496.387 720> 476 141<21.6612 81.0321>
VStem: 60 59<220.702 363.861> 390 59<220.819 367.066> 720 80<-344.883 116 187.073 474 564 730.134>
AnchorPoint: "Bottom" 418 -300 basechar 0
AnchorPoint: "Top" 418 800 basechar 0
AnchorPoint: "Middle" 418 280 basechar 0
LayerCount: 2
Fore
SplineSet
185 474 m 1xdc
 144.70128579 435.7162215 119 369.515939921 119 304 c 2
 119 301 l 1
 120 297 121 291 121.716531582 286.927486761 c 0
 139.722885631 184.585709998 193.072550165 114 253.770422722 114 c 0
 318.365252707 114 390 193.94022524 390 270.8661363 c 0
 390 324.161849373 424.384521957 416.909573072 466 473 c 1
 259 473 l 2
 218.277168078 473 202.228890428 473.216868617 185 474 c 1xdc
720 116 m 1
 680.06544187 43.1194314135 619.103487113 0 555.931713884 0 c 0
 485.442277353 0 426.804624746 53.6877208932 402 141 c 1
 363.231992543 53.523470354 296.422554371 0 225.962024694 0 c 0
 130.417733742 0 60 98.4151459523 60 232.498478318 c 0
 60 320.076937987 90.041876698 414.054090735 138 476 c 1
 31.763283509 481.957199056 -15 498.767529729 -15 531.065873808 c 0
 -15 563.695139511 32.7264448564 617 61.7702746698 617 c 0xbc
 80 617 62 596 111.898392964 576.400494474 c 0
 145.198270601 563.32069176 185.827910955 560 313.917764894 560 c 0
 454.5 560 584.5 564 720 564 c 1
 720 576 l 2
 720 742.45828269 817.409688474 998.990629976 881.034589819 999.909083455 c 0
 887.33273811 1000 890 997.629100543 890 994.461635506 c 0
 890 989.830458915 884.29803322 978.806656474 876.088999628 964.614269523 c 0
 814.79142498 858.638469966 800 783.300812066 800 581 c 2
 800 -200 l 2
 800 -351.426174398 698.228431752 -608.996192804 638.460834484 -609.917368513 c 0
 633.09954954 -610 630 -608.062781537 630 -604.389462629 c 0
 630 -601.59629495 631.792154013 -597.613730478 638.447047363 -585.791493249 c 0
 698.849730636 -478.487767512 720 -391.014431254 720 -250 c 2
 720 116 l 1
514 473 m 1xdc
 474 434 449 369 449 304 c 2
 449 301 l 1
 450 297 451 291 451.71136676 286.956531012 c 0
 469.937363293 183.358421157 524.778905603 114 587.396694664 114 c 0
 638.789656332 114 692.887519565 160.720881882 720 228 c 1
 720 474 l 1
 711.298351546 473.20894105 703.567532709 473 683 473 c 2
 514 473 l 1xdc
EndSplineSet
Validated: 1
Comment: "anda unqu+AOsA [+AqcA]"
Colour: ff00
EndChar

StartChar: c
Encoding: 99 99 36
Width: 510
GlyphClass: 2
Flags: W
HStem: 0 114<181.406 274.197> 456 104<151.395 257.471>
VStem: 40 59<215.7 374.715> 380 80<-345.515 141 203.977 426.496>
AnchorPoint: "Middle" 228 280 basechar 0
AnchorPoint: "Top" 228 800 basechar 0
AnchorPoint: "Bottom" 208 -300 basechar 0
LayerCount: 2
Fore
SplineSet
40 240.937427545 m 0
 40 406.408592319 137.258508939 560 242.45566614 560 c 0
 267.705269339 560 285 551.15153315 285 524.497223319 c 0
 285 487.182441207 251.104601854 428 220.964233381 428 c 0
 216.899367063 428 214.961781899 429.076436203 212.932201338 432.679120399 c 0
 205.743235914 445.440167005 186.460062618 456 170.646778476 456 c 0
 132.143599285 456 99 393.395423573 99 319.031103503 c 0
 99 213.050955931 166.316183642 114 239.364230148 114 c 0
 297.434195474 114 359.154444166 176.595713213 380 257 c 1
 382.991202392 411.545456927 429.864169727 559 476.558073706 559 c 0
 482.216233927 559 485 556.83484861 485 552 c 2
 485 549 l 1
 465.675353904 458.479289338 460 410.806316548 460 339 c 2
 460 -200 l 2
 460 -352.875011805 360.049104473 -608.999181592 300.45967224 -609.917404985 c 0
 295.09954954 -610 292 -608.062781537 292 -604.331144373 c 0
 292 -601.053287604 294.391551337 -595.738729078 299.200811782 -587.327831733 c 0
 360.263314089 -480.535853132 380 -396.342648674 380 -248 c 2
 380 141 l 1
 342.496491138 58.0975067263 267.91742222 0 199.201030576 0 c 0
 107.805618056 0 40 102.774553154 40 240.937427545 c 0
EndSplineSet
Validated: 1
Comment: "calma [c]"
Colour: ff00
EndChar

StartChar: g
Encoding: 103 103 37
Width: 830
GlyphClass: 2
Flags: W
HStem: -3 114<185.99 267.357 500.708 592.302> 453 104<169.897 242.496 473.7 562.157>
VStem: 40 59<215.75 374.725> 360 59<212.253 368.752> 700 80<-348.515 138 200.977 423.496>
AnchorPoint: "Bottom" 398 -300 basechar 0
AnchorPoint: "Top" 398 800 basechar 0
AnchorPoint: "Middle" 398 280 basechar 0
LayerCount: 2
Fore
SplineSet
361 208 m 1
 360.224744871 214.977296157 360 221.494897428 360 229.869708112 c 0
 360 403.668433044 456.790551641 557 562.347782172 557 c 0
 587.705269339 557 605 548.15153315 605 521.497223319 c 0
 605 484.182441207 571.104601854 425 540.964233381 425 c 0
 536.899367063 425 534.961781899 426.076436203 532.932201338 429.679120399 c 0
 525.743235914 442.440167005 506.460062618 453 490.646778476 453 c 0
 452.143599285 453 419 390.395423573 419 316.031103503 c 0
 419 210.050955931 486.316183642 111 559.364230148 111 c 0
 617.434195474 111 679.154444166 173.595713213 700 254 c 1
 702.991202392 408.545456927 749.864169727 556 796.558073706 556 c 0
 802.216233927 556 805 553.83484861 805 549 c 2
 805 546 l 1
 785.675353904 455.479289338 780 407.806316548 780 336 c 2
 780 -203 l 2
 780 -355.875011805 680.049104473 -611.999181592 620.45967224 -612.917404985 c 0
 615.09954954 -613 612 -611.062781537 612 -607.331144373 c 0
 612 -604.053287604 614.391551337 -598.738729078 619.200811782 -590.327831733 c 0
 680.263314089 -483.535853132 700 -399.342648674 700 -251 c 2
 700 138 l 1
 663.080917844 55.1815184072 587.156099497 -3 515.819427788 -3 c 0
 451.253495054 -3 401.102386396 44.6613373062 375 131 c 1
 336.407170727 53.8143414543 263.696190289 0 198.218923561 0 c 0
 107.59051141 0 40 103.096919302 40 240.993620663 c 0
 40 406.408592319 137.258508939 560 242.45566614 560 c 0
 267.705269339 560 285 551.15153315 285 524.497223319 c 0
 285 487.182441207 251.104601854 428 220.964233381 428 c 0
 216.899367063 428 214.961781899 429.076436203 212.932201338 432.679120399 c 0
 205.743235914 445.440167005 186.460062618 456 170.646778476 456 c 0
 132.143599285 456 99 393.395423573 99 319.031103503 c 0
 99 213.050955931 166.316183642 114 238.735890381 114 c 0
 282.989362262 114 330.992742724 150.986211176 361 208 c 1
EndSplineSet
Validated: 1
Comment: "anga [g]"
Colour: ff00
EndChar

StartChar: k
Encoding: 107 107 38
Width: 830
GlyphClass: 2
Flags: W
HStem: -3 114<185.99 267.357 501.408 592.036> 453 104<169.746 256.733 471.395 577.409>
VStem: 40 59<215.75 374.725> 360 59<212.253 368.752> 700 80<200.271 728.69> 703 141<38.915 96.1246>
AnchorPoint: "Bottom" 398 -300 basechar 0
AnchorPoint: "Top" 398 800 basechar 0
AnchorPoint: "Middle" 398 280 basechar 0
LayerCount: 2
Fore
SplineSet
361 208 m 1xf4
 360.224744871 214.977296157 360 221.494897428 360 229.869708112 c 0
 360 403.668433044 456.790551641 557 562.347782172 557 c 0
 587.705269339 557 605 548.15153315 605 521.497223319 c 0
 605 484.182441207 571.104601854 425 540.964233381 425 c 0
 536.899367063 425 534.961781899 426.076436203 532.932201338 429.679120399 c 0
 525.743235914 442.440167005 506.460062618 453 490.646778476 453 c 0
 452.143599285 453 419 390.395423573 419 316.031103503 c 0
 419 210.050955931 486.316183642 111 559.683819735 111 c 0
 617.716495738 111 679.251974133 172.971900228 700 253 c 1
 700 574 l 2
 700 740.848802135 797.561554895 998.993040554 860.096886899 999.902331129 c 0
 866.813942393 1000 870 997.167948794 870 993.916242922 c 0
 870 990.284792483 866.026334039 982.602371625 856.537600696 966.089873325 c 0
 794.881812162 858.79514108 780 782.600262812 780 579 c 2
 780 286 l 2xf8
 780 214.130039131 786.37529866 167.074263304 801.156550402 130.721465531 c 0
 823 77 844 94 844 76.6775252517 c 0
 844 49.5543361565 792.514975422 0 763.559697362 0 c 0
 733.359963413 0 710.837836779 53.9054178458 703 146 c 1
 666.77069661 58.8538377909 589.557180978 -3 517.160118459 -3 c 0
 452.491669237 -3 400.192691543 46.3525564153 375 131 c 1
 336.407170727 53.8143414543 263.696190289 0 198.218923561 0 c 0
 107.59051141 0 40 103.096919302 40 240.993620663 c 0
 40 406.408592319 137.258508939 560 242.45566614 560 c 0
 267.705269339 560 285 551.15153315 285 524.497223319 c 0
 285 487.182441207 251.104601854 428 220.964233381 428 c 0
 216.899367063 428 214.961781899 429.076436203 212.932201338 432.679120399 c 0
 205.743235914 445.440167005 186.460062618 456 170.646778476 456 c 0
 132.143599285 456 99 393.395423573 99 319.031103503 c 0
 99 213.050955931 166.316183642 114 238.735890381 114 c 0
 282.989362262 114 330.992742724 150.986211176 361 208 c 1xf4
EndSplineSet
Validated: 1
Comment: "anca [k]"
Colour: ff00
EndChar

StartChar: q
Encoding: 113 113 39
Width: 525
GlyphClass: 2
Flags: W
HStem: 0 114<219.641 321.907> 473 87<184.862 457.32> 475 142<37.5497 96.3339> 548 20G<461.027 507.595>
VStem: 80 59<220.209 362.638> 420 80<-345.515 136 205.833 430.968>
AnchorPoint: "Middle" 268 280 basechar 0
AnchorPoint: "Top" 268 800 basechar 0
AnchorPoint: "Bottom" 248 -300 basechar 0
LayerCount: 2
Fore
SplineSet
525 564 m 2x9c
 525 549 l 1
 505.675353904 458.479289338 500 410.806316548 500 339 c 2
 500 -200 l 2
 500 -352.875011805 400.049104473 -608.999181592 340.45967224 -609.917404985 c 0
 335.09954954 -610 332 -608.062781537 332 -604.331144373 c 0
 332 -601.053287604 334.391551337 -595.738729078 339.200811782 -587.327831733 c 0
 400.263314089 -480.535853132 420 -396.342648674 420 -248 c 2
 420 136 l 1
 381.209421839 51.4564322142 315.375457095 0 246.151723106 0 c 0
 150.417733742 0 80 98.4151459523 80 231.84151725 c 0
 80 318.66262824 109.815999459 412.757275882 157 475 c 1
 47.7993012137 481.01104764 0 498.06047992 0 530.52773593 c 0
 0 563.139030072 48.2243567956 617 77.0197538301 617 c 0xac
 95 617 77 596 127.864392143 575.909360588 c 0
 156.750550987 564.499779605 191.342606701 560 247.766414243 560 c 0xcc
 323 560 426 568 496.053060761 568 c 0
 519.13664655 568 525 567.131355044 525 564 c 2x9c
204 473 m 1xcc
 164.302521861 435.287395768 139 369.500838929 139 304 c 2
 139 301 l 1
 140 297 141 291 141.71136676 286.956531012 c 0
 159.937363293 183.358421157 214.778905603 114 277.605600207 114 c 0
 337.876762033 114 399.958717889 177.830743345 420 260 c 1
 421.985065947 346.350368695 435.825023153 426.551146348 459 486 c 1
 432.229587039 477.762949858 398.67661747 474 348.74181327 474 c 0
 323 474 274 473 245 473 c 2
 204 473 l 1xcc
EndSplineSet
Validated: 1
Comment: "quess+AOsA [kw]"
Colour: ff00
EndChar

StartChar: v
Encoding: 118 118 40
Width: 520
GlyphClass: 2
Flags: W
HStem: 0 87<171.849 364.214 394 483.982> 6 88<94.9873 343.72> 446 114<212.623 328.378>
VStem: -15 141<461.662 519.693> 50 79<131.882 356.562> 411 59<192.283 339.919>
AnchorPoint: "Middle" 268 280 basechar 0
AnchorPoint: "Top" 268 800 basechar 0
AnchorPoint: "Bottom" 268 -300 basechar 0
LayerCount: 2
Fore
SplineSet
24 10 m 1xb4
 45 105 50 147 50 219 c 2
 50 249 l 2xac
 50 334 43 385 28 425 c 0
 6 482 -15 464 -15 481 c 0
 -15 508 37 559 66 559 c 0
 95 559 117 508 126 416 c 1
 171 519 224 560 274 560 c 0
 427 560 470 395 470 287 c 0
 470 235 436 144 394 87 c 1
 415 87 440 88 456 89 c 0
 542 95 532 123 545 123 c 0
 548 123 550 121 550 111 c 0
 550 56 487 4 407 0 c 1
 374 0 l 2xb4
 304 0 222 6 155 6 c 0x74
 88 6 106 0 37 0 c 0
 25 0 24 0 24 7 c 2
 24 10 l 1xb4
129 299 m 1
 126 217 114 142 94 85 c 1
 115 91 140 94 170 94 c 0x6c
 209 94 277 89 347 87 c 1
 386 126 411 192 411 256 c 2
 411 259 l 1
 410 263 409 269 408 273 c 0
 390 377 335 446 272 446 c 0
 211 446 148 381 129 299 c 1
EndSplineSet
Validated: 1
Comment: "vilya [v]"
Colour: ff00
EndChar

StartChar: w
Encoding: 119 119 41
Width: 530
GlyphClass: 2
Flags: W
HStem: 2 112<201.622 317.196> 473 87<164.755 437.291> 475 142<21.7412 81.1665> 548 20G<441 487.5>
VStem: 60 59<220.081 369.419> 401 79<203.438 429.776> 403 142<42.625 96.7817>
AnchorPoint: "Middle" 248 280 basechar 0
AnchorPoint: "Top" 248 800 basechar 0
AnchorPoint: "Bottom" 248 -300 basechar 0
LayerCount: 2
Fore
SplineSet
505 552 m 1026x88
184 473 m 1xcc
 144 435 119 370 119 304 c 2
 119 301 l 1
 120 297 121 291 122 287 c 0
 140 183 195 114 258 114 c 0
 319 114 382 179 401 261 c 1
 404 351 418 430 440 486 c 1
 414 478 381 474 332 474 c 0
 307 474 260 473 228 473 c 2
 184 473 l 1xcc
505 561 m 2
 505 556 506 558 506 553 c 2
 506 550 l 1
 485 453 480 412 480 340 c 2
 480 310 l 2x9c
 480 221 486 172 502 133 c 0
 524 77 545 94 545 77 c 0
 545 50 494 0 465 0 c 0
 435 0 412 53 403 144 c 1
 358 41 306 2 256 2 c 0
 103 2 60 166 60 273 c 0
 60 326 95 419 137 475 c 1
 32 481 -15 498 -15 530 c 0
 -15 563 33 617 62 617 c 0xaa
 80 617 62 596 115 575 c 0
 144 564 175 560 228 560 c 0xca
 303 560 406 568 476 568 c 0x9a
 499 568 505 567 505 564 c 2
 505 561 l 2
EndSplineSet
Validated: 1
Comment: "wilya [w]"
Colour: ff00
EndChar

StartChar: x
Encoding: 120 120 42
Width: 830
GlyphClass: 2
Flags: W
HStem: -3 114<185.99 267.357 500.767 592.444> 453 104<169.746 256.733 471.395 577.409>
VStem: 40 59<215.75 374.725> 360 59<212.253 368.752> 700 80<-344.883 138 200.271 730.134>
AnchorPoint: "Bottom" 398 -300 basechar 0
AnchorPoint: "Top" 398 800 basechar 0
AnchorPoint: "Middle" 398 280 basechar 0
LayerCount: 2
Fore
SplineSet
361 208 m 1
 360.224744871 214.977296157 360 221.494897428 360 229.869708112 c 0
 360 403.668433044 456.790551641 557 562.347782172 557 c 0
 587.705269339 557 605 548.15153315 605 521.497223319 c 0
 605 484.182441207 571.104601854 425 540.964233381 425 c 0
 536.899367063 425 534.961781899 426.076436203 532.932201338 429.679120399 c 0
 525.743235914 442.440167005 506.460062618 453 490.646778476 453 c 0
 452.143599285 453 419 390.395423573 419 316.031103503 c 0
 419 210.050955931 486.316183642 111 559.683819735 111 c 0
 617.716495738 111 679.251974133 172.971900228 700 253 c 1
 700 576 l 2
 700 742.45828269 797.409688474 998.990629976 861.034589819 999.909083455 c 0
 867.33273811 1000 870 997.629100543 870 994.461635506 c 0
 870 989.830458915 864.29803322 978.806656474 856.088999628 964.614269523 c 0
 794.79142498 858.638469966 780 783.300812066 780 581 c 2
 780 -200 l 2
 780 -351.426174398 678.228431752 -608.996192804 618.460834484 -609.917368513 c 0
 613.09954954 -610 610 -608.062781537 610 -604.389462629 c 0
 610 -601.59629495 611.792154013 -597.613730478 618.447047363 -585.791493249 c 0
 678.849730636 -478.487767512 700 -391.014431254 700 -250 c 2
 700 138 l 1
 663.080917844 55.1815184072 587.156099497 -3 515.819427788 -3 c 0
 451.253495054 -3 401.102386396 44.6613373062 375 131 c 1
 336.407170727 53.8143414543 263.696190289 0 198.218923561 0 c 0
 107.59051141 0 40 103.096919302 40 240.993620663 c 0
 40 406.408592319 137.258508939 560 242.45566614 560 c 0
 267.705269339 560 285 551.15153315 285 524.497223319 c 0
 285 487.182441207 251.104601854 428 220.964233381 428 c 0
 216.899367063 428 214.961781899 429.076436203 212.932201338 432.679120399 c 0
 205.743235914 445.440167005 186.460062618 456 170.646778476 456 c 0
 132.143599285 456 99 393.395423573 99 319.031103503 c 0
 99 213.050955931 166.316183642 114 238.735890381 114 c 0
 282.989362262 114 330.992742724 150.986211176 361 208 c 1
EndSplineSet
Validated: 1
Comment: "anda anca [x]"
Colour: ff00
EndChar

StartChar: Eth
Encoding: 208 208 43
Width: 515
GlyphClass: 2
Flags: W
HStem: -515 60<160.17 280.36> 68 20G<-108.648 -79.168>
VStem: 35 66<-395.355 -284.342> 364 111<-362.581 -217.625>
AnchorPoint: "Middle" 238 280 basechar 0
AnchorPoint: "Top" 238 800 basechar 0
AnchorPoint: "Bottom" 238 -300 basechar 0
LayerCount: 2
Fore
SplineSet
35 -313.778320312 m 0
 35 -275.543945312 48.8056640625 -251 70.978515625 -251 c 0
 97.1142578125 -251 136 -285.099609375 136 -307.8828125 c 0
 136 -320 125 -313 112.240234375 -334.69140625 c 0
 105.022460938 -346.9609375 101 -361.954101562 101 -376.150390625 c 0
 101 -422.07421875 143.094726562 -455 202.958007812 -455 c 0
 296.5078125 -455 364 -374.592773438 364 -266.071289062 c 0
 364 -227.140625 355.314453125 -219.46875 244 -156 c 2
 -144 34 l 2
 -155.302734375 40.0859375 -160 43.609375 -160 46 c 2
 -160 47 l 1
 -138.96484375 78.052734375 -122.951171875 88 -94.3447265625 88 c 0
 -63.9912109375 88 -30.3916015625 76.7998046875 11 53 c 2
 344 -105 l 2
 440.830078125 -161.484375 475 -206.609375 475 -278.592773438 c 0
 475 -404.1015625 371.120117188 -515 251.184570312 -515 c 0
 139.610351562 -515 35 -419.02734375 35 -313.778320312 c 0
EndSplineSet
Validated: 1
Comment: "hyarmen telda (+AOcA final) [+AOcA]"
Colour: ff00
EndChar

StartChar: Thorn
Encoding: 222 222 44
Width: 510
GlyphClass: 2
Flags: W
HStem: -365 35<169.791 278.414> -215 20G<78.9902 109.343> 0 94<-120.29 279.484>
VStem: 52 91<-289.306 -213.893> 373 97<-239.327 -80.8604>
AnchorPoint: "Middle" 248 280 basechar 0
AnchorPoint: "Top" 248 800 basechar 0
AnchorPoint: "Bottom" 248 -300 basechar 0
LayerCount: 2
Fore
SplineSet
252.888671875 -365 m 0
 145.103515625 -365 52 -303.0859375 52 -232.268554688 c 0
 52 -206.298828125 64.5205078125 -195 93.4599609375 -195 c 0
 125.225585938 -195 152 -208.614257812 152 -228.481445312 c 0
 152 -240 143 -246 143 -264.553710938 c 0
 143 -300.35546875 176.51171875 -330 221.083007812 -330 c 0
 297 -330 373 -244 373 -158.724609375 c 0
 373 -132.154296875 365.62109375 -105.099609375 352.399414062 -81.884765625 c 0
 320.05078125 -25.0888671875 257.172851562 0 149 0 c 2
 -140 0 l 2
 -155.504882812 0 -160 0.8994140625 -160 4 c 2
 -160 7 l 2
 -160 63.2001953125 -108.666992188 94 -15 94 c 2
 210 94 l 2
 367.09765625 94 470 0.2001953125 470 -143.27734375 c 0
 470 -275.715820312 382.32421875 -365 252.888671875 -365 c 0
EndSplineSet
Validated: 1
Comment: "n+APoA-n sarinc+AOsA nuquerna (j/+ApAA final) [j/+ApAA]"
Colour: ff00
EndChar

StartChar: ampersand
Encoding: 38 38 45
Width: 505
GlyphClass: 3
Flags: W
HStem: 473 87<119.482 409.611> 548 20G<416.027 462.595>
VStem: 375 80<-344.883 428.381>
AnchorPoint: "Middle" 268 280 basechar 0
AnchorPoint: "Top" 268 800 basechar 0
AnchorPoint: "Bottom" 268 -300 basechar 0
LayerCount: 2
Fore
SplineSet
480 564 m 2x60
 480 549 l 1
 479 546 481 524 471 507 c 1
 460.138200714 451.70356727 455 397.752459776 455 339 c 2
 455 -200 l 2
 455 -351.426174398 353.228431752 -608.996192804 293.460834484 -609.917368513 c 0
 288.09954954 -610 285 -608.062781537 285 -604.331144373 c 0
 285 -601.053287604 287.391551337 -595.738729078 291.034282996 -589.31201271 c 0
 353.744207286 -478.675563305 375 -390.240968926 375 -248 c 2
 375 237 l 2
 375 327.168499123 387.784975972 412.40167227 411 477 c 1
 396.41046029 474.915780041 379.010639502 474 350.887684372 474 c 0
 321.5 474 272.5 473 234.633711982 473 c 0
 74.2412866046 473 0 490.941644263 0 530.919057495 c 0
 0 563.139030072 48.2243567956 617 77.0197538301 617 c 0
 95 617 77 596 127.864392143 575.909360588 c 0
 156.750550987 564.499779605 191.342606701 560 247.766414243 560 c 0xa0
 323 560 381 568 451.053060761 568 c 0
 474.13664655 568 480 567.131355044 480 564 c 2x60
EndSplineSet
Validated: 1
Comment: "ta (and) - also ligature [ut]"
Colour: ff00
EndChar

StartChar: asterisk
Encoding: 42 42 46
Width: 455
GlyphClass: 2
Flags: W
HStem: 0 114<181.194 285.967> 446 114<168.965 273.806>
VStem: 40 59<216.562 377.656> 356 59<183.205 343.788>
AnchorPoint: "Middle" 228 280 basechar 0
AnchorPoint: "Top" 228 800 basechar 0
AnchorPoint: "Bottom" 228 -300 basechar 0
LayerCount: 2
Fore
SplineSet
207 0 m 0
 93 0 40 119 40 247 c 0
 40 397 113 560 248 560 c 0
 362 560 415 442 415 314 c 0
 415 164 341 0 207 0 c 0
351 191 m 1
 354 206 356 223 356 240 c 0
 356 347 288 446 215 446 c 0
 174 446 133 415 104 370 c 1
 101 354 99 337 99 319 c 0
 99 213 167 114 240 114 c 0
 281 114 323 146 351 191 c 1
EndSplineSet
Validated: 1
Comment: "+APoA-r+AOsA - standalone [u]"
Colour: ff00
EndChar

StartChar: Q
Encoding: 81 81 47
Width: 480
GlyphClass: 2
Flags: W
HStem: -0 114<180.057 294.761> 446 116<174.273 275.814>
VStem: 40 59<222.064 362.388> 350 80<161.529 357.038 519 728.402> 359 135<37.4636 96.027>
AnchorPoint: "Middle" 218 280 basechar 0
AnchorPoint: "Top" 198 800 basechar 0
AnchorPoint: "Bottom" 198 -300 basechar 0
LayerCount: 2
Fore
SplineSet
350 290 m 1xf0
 331.048757101 382.761346822 277.154799109 446 217.051921187 446 c 0
 174.985598616 446 131.989734632 414.982206695 102 363 c 1
 99.9901621775 349.936054154 99 336.93493276 99 323.609115289 c 0
 99 214.229070814 165.847109714 114 238.797400225 114 c 0
 278.092974057 114 321.070738526 143.110823691 351 190 c 1
 351 202 350 213 350 225 c 2
 350 290 l 1xf0
40 241 m 2
 40 252 l 2
 40 353.33360611 64.1291850849 433.157696385 115 487 c 0
 160.023326613 534.653249222 191.60926143 562 238.960036298 562 c 0
 274.577556692 562 327.490385155 541.509614845 350 519 c 1
 350 574 l 2
 350 740.188353321 446.694740368 998.995575947 509.123545708 999.900341242 c 0
 515.473481174 999.992369292 520 997.32870112 520 993.5 c 0
 520 990.465265398 518.093980478 986.657092666 506.027088768 965.582521228 c 0
 444.959252419 858.928835211 430 782.864032393 430 579 c 2
 430 286 l 2xf0
 430 212.656299458 436.268506455 166.34687619 451.069865952 130.343569305 c 0
 473 77 494 94 494 76.903270178 c 0
 494 49.7284495232 441.715100544 0 413.143271354 0 c 0
 388.881119898 0 369.94649052 35.3210568794 359 101 c 1xe8
 321.048769069 32.0885543628 280.064377853 0 230 0 c 2
 192 -0 l 2
 106.112004422 0 40 104.822322801 40 241 c 2
EndSplineSet
Validated: 1
Comment: "hwesta sindarinwa [wh]"
Colour: ff00
EndChar

StartChar: period
Encoding: 46 46 48
Width: 350
GlyphClass: 1
Flags: W
HStem: 205 150<148.125 201.875>
VStem: 100 150<253.125 306.875>
LayerCount: 2
Fore
SplineSet
185 350 m 2
 245 290 l 2
 248 287 250 283 250 280 c 0
 250 277 248 273 245 270 c 2
 185 210 l 2
 182 207 178 205 175 205 c 0
 172 205 168 207 165 210 c 2
 105 270 l 2
 102 273 100 277 100 280 c 0
 100 283 102 287 105 290 c 2
 165 350 l 2
 168 353 172 355 175 355 c 0
 178 355 182 353 185 350 c 2
EndSplineSet
Validated: 1
Comment: "tix+AOsA (words separator)"
Colour: 999999
EndChar

StartChar: I
Encoding: 73 73 49
Width: 0
GlyphClass: 4
Flags: W
HStem: -356 112<-25.875 25.875>
VStem: -56 112<-325.875 -274.125>
AnchorPoint: "MarkMark" 0 525 mark 0
AnchorPoint: "Bottom" 0 -300 mark 0
LayerCount: 2
Fore
SplineSet
8 -248 m 2
 52 -292 l 2
 54 -294 56 -298 56 -300 c 0
 56 -302 54 -306 52 -308 c 2
 8 -352 l 2
 6 -354 2 -356 0 -356 c 0
 -2 -356 -6 -354 -8 -352 c 2
 -52 -308 l 2
 -54 -306 -56 -302 -56 -300 c 0
 -56 -298 -54 -294 -52 -292 c 2
 -8 -248 l 2
 -6 -246 -2 -244 0 -244 c 0
 2 -244 6 -246 8 -248 c 2
EndSplineSet
Validated: 1
Comment: "unitix+AOsA [i inferior]"
Colour: ff00ff
EndChar

StartChar: comma
Encoding: 44 44 50
Width: 350
GlyphClass: 1
Flags: W
HStem: -20 150<148.125 201.875> 430 150<148.125 201.875>
VStem: 100 150<28.125 81.875 478.125 531.875>
LayerCount: 2
Fore
SplineSet
185 575 m 2
 245 515 l 2
 248 512 250 508 250 505 c 0
 250 502 248 498 245 495 c 2
 185 435 l 2
 182 432 178 430 175 430 c 0
 172 430 168 432 165 435 c 2
 105 495 l 2
 102 498 100 502 100 505 c 0
 100 508 102 512 105 515 c 2
 165 575 l 2
 168 578 172 580 175 580 c 0
 178 580 182 578 185 575 c 2
185 125 m 2
 245 65 l 2
 248 62 250 58 250 55 c 0
 250 52 248 48 245 45 c 2
 185 -15 l 2
 182 -18 178 -20 175 -20 c 0
 172 -20 168 -18 165 -15 c 2
 105 45 l 2
 102 48 100 52 100 55 c 0
 100 58 102 62 105 65 c 2
 165 125 l 2
 168 128 172 130 175 130 c 0
 178 130 182 128 185 125 c 2
EndSplineSet
Validated: 1
Comment: "tanta tix+AOsA (comma)"
Colour: 999999
EndChar

StartChar: colon
Encoding: 58 58 51
Width: 350
GlyphClass: 1
Flags: W
HStem: -20 150<147.188 202.812> 205 150<148.125 201.875> 430 150<147.188 202.812>
VStem: 100 150<27.125 82.875 253.125 306.875 477.125 532.875>
CounterMasks: 1 e0
LayerCount: 2
Fore
SplineSet
185 576 m 2
 245 516 l 2
 247.754311627 513.245688373 250 508.305173952 250 505 c 0
 250 501.694826048 247.754311627 496.754311627 245 494 c 2
 185 434 l 2
 182.163977795 431.163977795 179.254033308 430 175 430 c 0
 170.745966692 430 167.836022205 431.163977795 165 434 c 2
 105 494 l 2
 102.245688373 496.754311627 100 501.694826048 100 505 c 0
 100 508.305173952 102.245688373 513.245688373 105 516 c 2
 165 576 l 2
 167.836022205 578.836022205 170.745966692 580 175 580 c 0
 179.254033308 580 182.163977795 578.836022205 185 576 c 2
185 126 m 2
 245 66 l 2
 247.754311627 63.2456883731 250 58.3051739523 250 55 c 0
 250 51.6948260477 247.754311627 46.7543116269 245 44 c 2
 185 -16 l 2
 182.163977795 -18.8360222051 179.254033308 -20 175 -20 c 0
 170.745966692 -20 167.836022205 -18.8360222051 165 -16 c 2
 105 44 l 2
 102.245688373 46.7543116269 100 51.6948260477 100 55 c 0
 100 58.3051739523 102.245688373 63.2456883731 105 66 c 2
 165 126 l 2
 167.836022205 128.836022205 170.745966692 130 175 130 c 0
 179.254033308 130 182.163977795 128.836022205 185 126 c 2
185 350 m 2
 245 290 l 2
 248 287 250 283 250 280 c 0
 250 277 248 273 245 270 c 2
 185 210 l 2
 182 207 178 205 175 205 c 0
 172 205 168 207 165 210 c 2
 105 270 l 2
 102 273 100 277 100 280 c 0
 100 283 102 287 105 290 c 2
 165 350 l 2
 168 353 172 355 175 355 c 0
 178 355 182 353 185 350 c 2
EndSplineSet
Validated: 1
Comment: "pusta (period)"
Colour: 999999
EndChar

StartChar: uni00B3
Encoding: 179 179 52
Width: 120
GlyphClass: 1
Flags: W
HStem: 435 270<44.3185 66.4565>
VStem: 44 66<493.593 628.425>
LayerCount: 2
Fore
SplineSet
67 705 m 0
 83 705 110 627 110 581 c 0
 110 521 66 435 36 435 c 0
 29 435 26 440 26 451 c 0
 26 478 44 496 44 523 c 0
 44 560 10 575 10 604 c 0
 10 636 51 705 67 705 c 0
EndSplineSet
Validated: 1
Comment: "lambess+AOsA metta (end of spoken name, alias)"
Colour: 999999
EndChar

StartChar: uni00B9
Encoding: 185 185 53
Width: 122
GlyphClass: 1
Flags: W
HStem: -45 270<45.0453 67.6885>
VStem: 45 67<16.1715 148.425>
LayerCount: 2
Fore
SplineSet
68 225 m 0
 85 225 112 147 112 101 c 0
 112 42 67 -45 37 -45 c 0
 30 -45 27 -40 27 -29 c 0
 27 -2 45 16 45 42 c 0
 45 79 10 95 10 125 c 0
 10 157 52 225 68 225 c 0
EndSplineSet
Validated: 1
Comment: "lambess+AOsA yesta (beginning of spoken name, alias)"
Colour: 999999
EndChar

StartChar: uni00B2
Encoding: 178 178 54
Width: 122
GlyphClass: 1
Flags: W
HStem: 435 270<54.3115 76.9547>
VStem: 10 67<511.575 643.828>
LayerCount: 2
Fore
SplineSet
54 435 m 0
 37 435 10 513 10 559 c 0
 10 618 55 705 85 705 c 0
 92 705 95 700 95 689 c 0
 95 662 77 644 77 618 c 0
 77 581 112 565 112 535 c 0
 112 503 70 435 54 435 c 0
EndSplineSet
Validated: 1
Comment: "lambess+AOsA yesta (beginning of spoken name, alias)"
Colour: 999999
EndChar

StartChar: semicolon
Encoding: 59 59 55
Width: 350
GlyphClass: 1
Flags: W
HStem: -140 21G<138.894 163.682> 430 150<147.188 202.812>
VStem: 100 150<477.125 532.875> 154 89<-67.2853 46.5785>
LayerCount: 2
Fore
SplineSet
185 576 m 2xe0
 245 516 l 2
 247.754311627 513.245688373 250 508.305173952 250 505 c 0
 250 501.694826048 247.754311627 496.754311627 245 494 c 2
 185 434 l 2
 182.163977795 431.163977795 179.254033308 430 175 430 c 0
 170.745966692 430 167.836022205 431.163977795 165 434 c 2
 105 494 l 2
 102.245688373 496.754311627 100 501.694826048 100 505 c 0
 100 508.305173952 102.245688373 513.245688373 105 516 c 2
 165 576 l 2
 167.836022205 578.836022205 170.745966692 580 175 580 c 0
 179.254033308 580 182.163977795 578.836022205 185 576 c 2xe0
184.543650836 130 m 0
 207.037989028 130 243 51.7668533251 243 5.67830925163 c 0
 243 -53.4837640078 183.742304115 -140 143.622485749 -140 c 0
 134.165857586 -140 130 -135.193241247 130 -123.813656175 c 0
 130 -96.5 154 -79.5 154 -53.0351015558 c 0xd0
 154 -16 107 0 107 29.5530382194 c 0
 107 61.9749960934 163.568161143 130 184.543650836 130 c 0
EndSplineSet
Validated: 1
Comment: "ampa tix+AOsA (semicolon)"
Colour: 999999
EndChar

StartChar: i
Encoding: 105 105 56
Width: 0
GlyphClass: 4
Flags: W
HStem: 744 112<-25.875 25.875>
VStem: -56 112<774.125 825.875>
AnchorPoint: "MarkMark" 0 800 basemark 0
AnchorPoint: "Top" 0 800 mark 0
LayerCount: 2
Fore
SplineSet
8 852 m 2
 52 808 l 2
 54 806 56 802 56 800 c 0
 56 798 54 794 52 792 c 2
 8 748 l 2
 6 746 2 744 0 744 c 0
 -2 744 -6 746 -8 748 c 2
 -52 792 l 2
 -54 794 -56 798 -56 800 c 0
 -56 802 -54 806 -52 808 c 2
 -8 852 l 2
 -6 854 -2 856 0 856 c 0
 2 856 6 854 8 852 c 2
EndSplineSet
Validated: 1
Comment: "amitix+AOsA [i superior]"
Colour: ff00ff
EndChar

StartChar: plus
Encoding: 43 43 57
Width: 800
GlyphClass: 1
Flags: W
HStem: -20 150<372.188 427.812> 205 150<147.125 202.875 597.125 652.875> 430 150<372.188 427.812>
VStem: 100 150<252.188 307.812> 325 150<27.125 82.875 477.125 532.875> 550 150<252.188 307.812>
CounterMasks: 1 fc
LayerCount: 2
Fore
SplineSet
410 576 m 2
 470 516 l 2
 472.754311627 513.245688373 475 508.305173952 475 505 c 0
 475 501.694826048 472.754311627 496.754311627 470 494 c 2
 410 434 l 2
 407.163977795 431.163977795 404.254033308 430 400 430 c 0
 395.745966692 430 392.836022205 431.163977795 390 434 c 2
 330 494 l 2
 327.245688373 496.754311627 325 501.694826048 325 505 c 0
 325 508.305173952 327.245688373 513.245688373 330 516 c 2
 390 576 l 2
 392.836022205 578.836022205 395.745966692 580 400 580 c 0
 404.254033308 580 407.163977795 578.836022205 410 576 c 2
410 126 m 2
 470 66 l 2
 472.754311627 63.2456883731 475 58.3051739523 475 55 c 0
 475 51.6948260477 472.754311627 46.7543116269 470 44 c 2
 410 -16 l 2
 407.163977795 -18.8360222051 404.254033308 -20 400 -20 c 0
 395.745966692 -20 392.836022205 -18.8360222051 390 -16 c 2
 330 44 l 2
 327.245688373 46.7543116269 325 51.6948260477 325 55 c 0
 325 58.3051739523 327.245688373 63.2456883731 330 66 c 2
 390 126 l 2
 392.836022205 128.836022205 395.745966692 130 400 130 c 0
 404.254033308 130 407.163977795 128.836022205 410 126 c 2
186 350 m 2
 246 290 l 2
 248.836022205 287.163977795 250 284.254033308 250 280 c 0
 250 275.745966692 248.836022205 272.836022205 246 270 c 2
 186 210 l 2
 183.245688373 207.245688373 178.305173952 205 175 205 c 0
 171.694826048 205 166.754311627 207.245688373 164 210 c 2
 104 270 l 2
 101.163977795 272.836022205 100 275.745966692 100 280 c 0
 100 284.254033308 101.163977795 287.163977795 104 290 c 2
 164 350 l 2
 166.754311627 352.754311627 171.694826048 355 175 355 c 0
 178.305173952 355 183.245688373 352.754311627 186 350 c 2
636 350 m 2
 696 290 l 2
 698.836022205 287.163977795 700 284.254033308 700 280 c 0
 700 275.745966692 698.836022205 272.836022205 696 270 c 2
 636 210 l 2
 633.245688373 207.245688373 628.305173952 205 625 205 c 0
 621.694826048 205 616.754311627 207.245688373 614 210 c 2
 554 270 l 2
 551.163977795 272.836022205 550 275.745966692 550 280 c 0
 550 284.254033308 551.163977795 287.163977795 554 290 c 2
 614 350 l 2
 616.754311627 352.754311627 621.694826048 355 625 355 c 0
 628.305173952 355 633.245688373 352.754311627 636 350 c 2
EndSplineSet
Validated: 1
Comment: "canta pusta (end of paragraph)"
Colour: 999999
EndChar

StartChar: plusminus
Encoding: 177 177 58
Width: 800
GlyphClass: 1
Flags: W
HStem: -20 150<372.188 427.812> 205 150<147.125 202.875 373.125 426.875 597.125 652.875> 430 150<372.188 427.812>
VStem: 100 150<252.188 307.812> 325 150<27.125 82.875 253.125 306.875 477.125 532.875> 550 150<252.188 307.812>
CounterMasks: 1 fc
LayerCount: 2
Fore
SplineSet
410 576 m 2
 470 516 l 2
 472.754311627 513.245688373 475 508.305173952 475 505 c 0
 475 501.694826048 472.754311627 496.754311627 470 494 c 2
 410 434 l 2
 407.163977795 431.163977795 404.254033308 430 400 430 c 0
 395.745966692 430 392.836022205 431.163977795 390 434 c 2
 330 494 l 2
 327.245688373 496.754311627 325 501.694826048 325 505 c 0
 325 508.305173952 327.245688373 513.245688373 330 516 c 2
 390 576 l 2
 392.836022205 578.836022205 395.745966692 580 400 580 c 0
 404.254033308 580 407.163977795 578.836022205 410 576 c 2
410 126 m 2
 470 66 l 2
 472.754311627 63.2456883731 475 58.3051739523 475 55 c 0
 475 51.6948260477 472.754311627 46.7543116269 470 44 c 2
 410 -16 l 2
 407.163977795 -18.8360222051 404.254033308 -20 400 -20 c 0
 395.745966692 -20 392.836022205 -18.8360222051 390 -16 c 2
 330 44 l 2
 327.245688373 46.7543116269 325 51.6948260477 325 55 c 0
 325 58.3051739523 327.245688373 63.2456883731 330 66 c 2
 390 126 l 2
 392.836022205 128.836022205 395.745966692 130 400 130 c 0
 404.254033308 130 407.163977795 128.836022205 410 126 c 2
186 350 m 2
 246 290 l 2
 248.836022205 287.163977795 250 284.254033308 250 280 c 0
 250 275.745966692 248.836022205 272.836022205 246 270 c 2
 186 210 l 2
 183.245688373 207.245688373 178.305173952 205 175 205 c 0
 171.694826048 205 166.754311627 207.245688373 164 210 c 2
 104 270 l 2
 101.163977795 272.836022205 100 275.745966692 100 280 c 0
 100 284.254033308 101.163977795 287.163977795 104 290 c 2
 164 350 l 2
 166.754311627 352.754311627 171.694826048 355 175 355 c 0
 178.305173952 355 183.245688373 352.754311627 186 350 c 2
636 350 m 2
 696 290 l 2
 698.836022205 287.163977795 700 284.254033308 700 280 c 0
 700 275.745966692 698.836022205 272.836022205 696 270 c 2
 636 210 l 2
 633.245688373 207.245688373 628.305173952 205 625 205 c 0
 621.694826048 205 616.754311627 207.245688373 614 210 c 2
 554 270 l 2
 551.163977795 272.836022205 550 275.745966692 550 280 c 0
 550 284.254033308 551.163977795 287.163977795 554 290 c 2
 614 350 l 2
 616.754311627 352.754311627 621.694826048 355 625 355 c 0
 628.305173952 355 633.245688373 352.754311627 636 350 c 2
410 350 m 2
 470 290 l 2
 473 287 475 283 475 280 c 0
 475 277 473 273 470 270 c 2
 410 210 l 2
 407 207 403 205 400 205 c 0
 397 205 393 207 390 210 c 2
 330 270 l 2
 327 273 325 277 325 280 c 0
 325 283 327 287 330 290 c 2
 390 350 l 2
 393 353 397 355 400 355 c 0
 403 355 407 353 410 350 c 2
EndSplineSet
Validated: 1
Comment: "lemp+AOsA pusta (end of section)"
Colour: 999999
EndChar

StartChar: e
Encoding: 101 101 59
Width: 0
GlyphClass: 4
Flags: W
HStem: 773 229
VStem: -36 132
AnchorPoint: "MarkMark" 0 800 basemark 0
AnchorPoint: "Top" 0 800 mark 0
LayerCount: 2
Fore
SplineSet
-27 773 m 5
 -30.302734375 773 -36 776.165039062 -36 778 c 6
 -36 779 l 5
 22 972 l 6
 25.029296875 981.088867188 30.0380859375 989.01953125 34 991 c 6
 75 1002 l 5
 76 1002 l 6
 79.900390625 1002 82.9736328125 1000.07910156 84 997 c 6
 96 956 l 5
 96 953 l 6
 96 951 95 951 84 937 c 5
 -26 774 l 5
 -27 773 l 5
EndSplineSet
Validated: 1
Comment: "tecco [e superior]"
Colour: ff00ff
EndChar

StartChar: E
Encoding: 69 69 60
Width: 0
GlyphClass: 4
Flags: W
HStem: -482 229
VStem: -96 132
AnchorPoint: "MarkMark" 0 504 mark 0
AnchorPoint: "Bottom" 0 -321 mark 0
LayerCount: 2
Fore
SplineSet
27 -253 m 1
 30.302734375 -253 36 -256.165039062 36 -258 c 2
 36 -259 l 1
 -22 -452 l 2
 -25.029296875 -461.088867188 -30.0380859375 -469.01953125 -34 -471 c 2
 -75 -482 l 1
 -76 -482 l 2
 -79.900390625 -482 -82.9736328125 -480.079101562 -84 -477 c 2
 -96 -436 l 1
 -96 -433 l 2
 -96 -431 -95 -431 -84 -417 c 1
 26 -254 l 1
 27 -253 l 1
EndSplineSet
Validated: 1
Comment: "unutecco [e inferior]"
Colour: ff00ff
EndChar

StartChar: r
Encoding: 114 114 61
Width: 540
GlyphClass: 2
Flags: W
HStem: -610 100<97.3745 218.249> 460 100<269.448 359.729>
VStem: 0 91<-454.537 -322.686> 409 91<271.081 404.225>
AnchorPoint: "Middle" 288 280 basechar 0
AnchorPoint: "Top" 288 800 basechar 0
AnchorPoint: "Bottom" 288 -300 basechar 0
LayerCount: 2
Fore
SplineSet
403 -371.411952221 m 0
 403 -461.103758566 248.075570653 -610 135.881174086 -610 c 0
 58.8677734484 -610 0 -539.842516575 0 -435.832225165 c 0
 0 -357.646365731 33.2645315823 -272.677181798 92 -201 c 1
 191 -69 l 1
 87.0750410399 356.789637681 77.7986493488 390.280140036 55.1512315811 421.608460102 c 0
 18 473 0 442 0 466.199904495 c 0
 0 504.054063797 44.0425455215 560 73.6599736996 560 c 0
 98.8099003381 560 123.782937333 519.658940239 152 434 c 1
 205.749098503 511.637586726 283.666319889 560 355.516004135 560 c 0
 441.833401695 560 500 490.200082034 500 386.063324653 c 0
 500 303.059396064 463.045880282 213.052332197 399 140 c 1
 125 -223 l 1
 101.014685432 -265.973688601 91 -303.970583328 91 -352.271516107 c 0
 91 -450.009259456 132.00632898 -510 198.785712986 -510 c 0
 263.663133535 -510 337.842573297 -453.377824086 368.122839666 -380.066697901 c 0
 376.058088175 -360.854779561 383.071284212 -353 392.366680602 -353 c 0
 399 -353 403 -357 403 -371.411952221 c 0
166 388 m 1
 175.926077718 352.549722437 182.618950039 327.524199846 189 302 c 2
 259 21 l 1
 372 172 l 1
 398.962115213 217.935455547 409 252.932405212 409 300.865956764 c 0
 409 398.583727159 367.283286372 460 300.88424198 460 c 0
 256.249690245 460 204.213747656 432.247497286 166 388 c 1
EndSplineSet
Validated: 1
Comment: "r+APMA-men [r]"
Colour: ff00
EndChar

StartChar: registered
Encoding: 174 174 62
Width: 0
GlyphClass: 4
Flags: W
HStem: -156 20G<-9.33984 7.23926>
VStem: -41 60<-322.939 -142.277>
AnchorPoint: "MarkMark" -11 530 mark 0
AnchorPoint: "Bottom" -11 -305 mark 0
LayerCount: 2
Fore
SplineSet
19 -155 m 6
 19 -195 l 6
 19 -308.48828125 -57.7958984375 -502.995117188 -102.245117188 -503.912109375 c 4
 -106.514648438 -504 -109 -502.342773438 -109 -499.685546875 c 4
 -109 -498 -110 -501 -102.29296875 -487.216796875 c 4
 -57.3134765625 -406.7734375 -40 -336.452148438 -40 -224.020507812 c 4
 -40 -197 -41 -217 -41 -186 c 6
 -41 -176 l 6
 -41 -156 -20 -136 1.3203125 -136 c 4
 13.158203125 -136 19 -142.166015625 19 -155 c 6
EndSplineSet
Validated: 1
Comment: "unor+AOsA [r inferior]"
Colour: ff00ff
EndChar

StartChar: o
Encoding: 111 111 63
Width: 0
GlyphClass: 4
Flags: W
HStem: 480 9<-17.9375 -13.8132> 721 42<57.1002 68.8053> 915 50<-56.7941 37.5307>
VStem: -140 40<738.488 867.845> -7 46<488.081 565.281> 74 66<766.301 881.194>
AnchorPoint: "MarkMark" 0 801 basemark 0
AnchorPoint: "Top" 0 801 mark 0
LayerCount: 2
Fore
SplineSet
74 830 m 4
 74 878 23 915 -27 915 c 4
 -72 915 -100 845 -100 800 c 4
 -100 754 -76 733 -39 683 c 4
 8 620 39 584 39 533 c 4
 39 515 23 480 0 480 c 4
 -8 480 -17 483 -19 489 c 5
 -13 489 -7 507 -7 519 c 4
 -7 542 -39 582 -72 622 c 4
 -136 700 -140 760 -140 800 c 4
 -140 867 -67 965 0 965 c 4
 72 965 140 915 140 831 c 4
 140 745 104 721 75 721 c 4
 55 721 42 742 42 763 c 5
 73 765 74 800 74 830 c 4
EndSplineSet
Validated: 1
Comment: "rempe [o superior]"
Colour: ff00ff
EndChar

StartChar: u
Encoding: 117 117 64
Width: 0
GlyphClass: 4
Flags: W
HStem: 670 83<-106.943 -46.1421> 900 65<-67.49 49.1413>
VStem: -140 100<705.875 752.49> -32 54<500.274 591.48> 89 51<719.108 858.56>
AnchorPoint: "MarkMark" 0 801 basemark 0
AnchorPoint: "Top" 0 801 mark 0
LayerCount: 2
Fore
SplineSet
-140 795 m 4
 -140 892 -77 965 7 965 c 4
 85 965 140 901 140 809 c 4
 140 754 116.510742188 698.82421875 61 635 c 4
 29.2275390625 598.46875 22 566 22 549 c 4
 22 531 29 524 49 516 c 5
 49 502 21 480 2 480 c 4
 -22 480 -32 503 -32 532 c 4
 -32 548 -14.4072265625 599.474609375 27 644 c 4
 85.71875 707.140625 89 744 89 782 c 4
 89 848 52 900 -12 900 c 4
 -70 900 -113 855 -116 804 c 5
 -113 771 -102 753 -85 753 c 4
 -76 753 -72 759 -63 759 c 4
 -50 759 -40 741 -40 715 c 4
 -40 702 -42 686 -46 679 c 4
 -49 672 -54 670 -64 670 c 4
 -107 670 -140 724 -140 795 c 4
EndSplineSet
Validated: 1
Comment: "rempe nuquerna [u superior]"
Colour: ff00ff
EndChar

StartChar: s
Encoding: 115 115 65
Width: 500
GlyphClass: 2
Flags: W
HStem: 0 114<198.153 309.282> 367 126<330.881 399.16> 980 20G<295.189 317.052> 980 20G<295.189 317.052>
VStem: 40 69<225.303 398.233> 278 66<840.697 961.487>
AnchorPoint: "Middle" 258 280 basechar 0
AnchorPoint: "Top" 258 800 basechar 0
AnchorPoint: "Bottom" 258 -300 basechar 0
LayerCount: 2
Fore
SplineSet
460 301.829644915 m 0xec
 460 140.519861555 352.677387292 0 223.960742299 0 c 0
 109.841306597 0 40 110.455544672 40 251.496977655 c 0
 40 350.476989123 74.3964745198 457.761231078 123.635887219 552.494413356 c 0
 166 634 278 819 278 867.424330829 c 0
 278 872 277 873 275.93368989 880.330882006 c 0
 269 928 237 905 237 925.981711804 c 0
 237 951.1858547 283.175542851 1000 307.202771 1000 c 0
 326.901498289 1000 344 967.189361583 344 929.398405152 c 0
 344 826 216 661 155.044160293 532.536647433 c 0
 123.192444011 465.409719506 109 407.378392885 109 347.060739374 c 0
 109 216.016339471 175.989270125 114 261.704419625 114 c 0
 339.880713752 114 417.990791048 198.860330889 424 290 c 1
 420.09414508 340.776113964 402.725077705 367 375.152742739 367 c 0
 359 367 354 358 342.982805243 358 c 0
 322.787077968 358 309 388.24262264 309 426.448225123 c 0
 309 447.93274371 313.359828235 467.719656471 317.984048845 477.394610688 c 0
 323.954365093 489.885912733 333.685887803 493 346.203754577 493 c 0
 410.127767467 493 460 411.792116937 460 301.829644915 c 0xec
EndSplineSet
Validated: 1
Comment: "silm+AOsA [s]"
Colour: ff00
EndChar

StartChar: O
Encoding: 79 79 66
Width: 0
GlyphClass: 4
Flags: W
HStem: -380 50<-37.5307 56.7941> -178 42<-68.8053 -57.1002> 96 9<13.8132 17.9375>
VStem: -140 66<-296.194 -181.301> -39 46<19.1059 96.9191> 100 40<-283.644 -164.149>
AnchorPoint: "MarkMark" 0 571 mark 0
AnchorPoint: "Bottom" 0 -261 mark 0
LayerCount: 2
Fore
SplineSet
-74 -245 m 4
 -74 -293 -23 -330 27 -330 c 4
 72 -330 100 -270 100 -225 c 4
 100 -199 81 -158 44 -108 c 4
 -3 -45 -39 1 -39 52 c 4
 -39 70 -23 105 0 105 c 4
 8 105 17 102 19 96 c 5
 13 96 7 78 7 66 c 4
 7 43 39 3 72 -37 c 4
 136 -115 140 -175 140 -215 c 4
 140 -282 67 -380 0 -380 c 4
 -72 -380 -140 -330 -140 -246 c 4
 -140 -160 -104 -136 -75 -136 c 4
 -55 -136 -42 -157 -42 -178 c 5
 -73 -180 -74 -215 -74 -245 c 4
EndSplineSet
Validated: 1
Comment: "unurempe [o inferior]"
Colour: ff00ff
EndChar

StartChar: U
Encoding: 85 85 67
Width: 0
GlyphClass: 4
Flags: W
HStem: -380 65<-49.1413 67.5209> -168 83<46.1421 106.943> 85 20G<-11.5 10>
VStem: -140 51<-273.56 -134.108> -22 54<-6.48002 84.7264> 40 100<-167.49 -120.875>
AnchorPoint: "MarkMark" 0 621 mark 0
AnchorPoint: "Bottom" 0 -276 mark 0
LayerCount: 2
Fore
SplineSet
140 -210 m 4
 140 -273.57421875 112.9375 -326.83984375 70.6376953125 -356 c 4
 48.3984375 -371.33203125 21.9462890625 -380 -7 -380 c 4
 -85 -380 -140 -316 -140 -224 c 4
 -140 -169 -116.510742188 -113.82421875 -61 -50 c 4
 -29.2275390625 -13.46875 -22 19 -22 36 c 4
 -22 54 -29 61 -49 69 c 5
 -49 83 -21 105 -2 105 c 4
 22 105 32 82 32 53 c 4
 32 37 14.4072265625 -14.474609375 -27 -59 c 4
 -85.71875 -122.140625 -89 -159 -89 -197 c 4
 -89 -263 -52 -315 12 -315 c 4
 70 -315 113 -270 116 -219 c 5
 113 -186 102 -168 85 -168 c 4
 76 -168 72 -174 63 -174 c 4
 50 -174 40 -156 40 -130 c 4
 40 -117 42 -101 46 -94 c 4
 49 -87 54 -85 64 -85 c 4
 107 -85 140 -139 140 -210 c 4
EndSplineSet
Validated: 1
Comment: "unurempe nuquerna [u inferior]"
Colour: ff00ff
EndChar

StartChar: S
Encoding: 83 83 68
Width: 500
GlyphClass: 2
Flags: W
HStem: -610 114<198.936 309.462> -243 126<330.881 399.16> 0 114<198.268 305.197> 367 126<330.881 399.16> 980 20G<295.189 317.052> 980 20G<295.189 317.052>
VStem: 40 69<-381.04 -214.676 225.225 397.431> 278 66<840.695 961.487>
AnchorPoint: "Middle" 258 280 basechar 0
AnchorPoint: "Top" 258 800 basechar 0
AnchorPoint: "Bottom" 258 -300 basechar 0
LayerCount: 2
Fore
SplineSet
460 -308.170355085 m 0xfb
 460 -469.480138445 352.677387292 -610 225.130922641 -610 c 0
 115.375992551 -610 40 -505.948358109 40 -357.693071081 c 0
 40 -251.975050649 78.3275191045 -135.07611738 160 10 c 1
 87.270170881 40.22538353 40 135.947479564 40 252.101924487 c 0
 40 343.444768892 69.2324063803 447.84622025 123.165866834 551.599110478 c 0
 166 634 278 819 278 867.424330829 c 0
 278 872 277 873 275.93368989 880.330882006 c 0
 269 928 237 905 237 925.981711804 c 0
 237 951.1858547 283.175542851 1000 307.202771 1000 c 0
 326.901498289 1000 344 967.189361583 344 929.398405152 c 0
 344 826 216 661 155.044160293 532.536647433 c 0
 123.192444011 465.409719506 109 407.378392885 109 347.060739374 c 0
 109 216.016339471 175.989270125 114 261.704419625 114 c 0
 339.880713752 114 417.990791048 198.860330889 424 290 c 1
 420.09414508 340.776113964 402.725077705 367 375.152742739 367 c 0
 359 367 354 358 342.982805243 358 c 0
 322.787077968 358 309 388.24262264 309 426.448225123 c 0
 309 447.93274371 313.359828235 467.719656471 317.984048845 477.394610688 c 0
 323.954365093 489.885912733 333.685887803 493 346.203754577 493 c 0
 410.127767467 493 460 411.792116937 460 300.950900258 c 0
 460 136.606676884 350.360984248 0 217.838451918 0 c 0
 206.5 0 202.5 1 197 1 c 1
 131.721769968 -113.731434602 109 -181.122138711 109 -259.687350698 c 0
 109 -393.82883245 175.238087437 -496 261.377249212 -496 c 0
 339.880713752 -496 417.990791048 -411.139669111 424 -320 c 1
 420.09414508 -269.223886036 402.725077705 -243 375.152742739 -243 c 0
 359 -243 354 -252 342.982805243 -252 c 0
 322.787077968 -252 309 -221.75737736 309 -183.551774877 c 0
 309 -162.06725629 313.359828235 -142.280343529 317.984048845 -132.605389312 c 0
 323.954365093 -120.114087267 333.685887803 -117 346.203754577 -117 c 0
 410.127767467 -117 460 -198.207883063 460 -308.170355085 c 0xfb
EndSplineSet
Validated: 1
Comment: "ess+AOsA [+AN8A]"
Colour: ff00
EndChar

StartChar: less
Encoding: 60 60 69
Width: 500
GlyphClass: 2
Flags: W
HStem: 67 126<100.84 169.119> 446 114<190.718 301.847>
VStem: 156 66<-401.487 -280.697> 391 69<161.767 334.697>
AnchorPoint: "Middle" 258 280 basechar 0
AnchorPoint: "Top" 258 800 basechar 0
AnchorPoint: "Bottom" 258 -300 basechar 0
LayerCount: 2
Fore
SplineSet
40 258.170355085 m 4
 40 419.480138445 147.322612708 560 276.039257701 560 c 4
 390.158693403 560 460 449.544455328 460 308.503022345 c 4
 460 209.523010877 425.60352548 102.238768922 376.364112781 7.50558664384 c 4
 334 -74 222 -259 222 -307.424330829 c 4
 222 -312 223 -313 224.06631011 -320.330882006 c 4
 231 -368 263 -345 263 -365.981711804 c 4
 263 -391.1858547 216.824457149 -440 192.797229 -440 c 4
 173.098501711 -440 156 -407.189361583 156 -369.398405152 c 4
 156 -266 284 -101 344.955839707 27.4633525672 c 4
 376.807555989 94.5902804936 391 152.621607115 391 212.939260626 c 4
 391 343.983660529 324.010729875 446 238.295580375 446 c 4
 160.119286248 446 82.0092089524 361.139669111 76 270 c 5
 79.9058549203 219.223886036 97.2749222951 193 124.847257261 193 c 4
 141 193 146 202 157.017194757 202 c 4
 177.212922032 202 191 171.75737736 191 133.551774877 c 4
 191 112.06725629 186.640171765 92.2803435291 182.015951155 82.6053893122 c 4
 176.045634907 70.1140872671 166.314112197 67 153.796245423 67 c 4
 89.8722325335 67 40 148.207883063 40 258.170355085 c 4
EndSplineSet
Validated: 1
Comment: "silm+AOsA nuquerna [+AoMA]"
Colour: ff00
EndChar

StartChar: greater
Encoding: 62 62 70
Width: 500
GlyphClass: 2
Flags: W
HStem: -610 21G<182.948 204.811> -103 126<100.84 169.119> 12 20G<151.509 167.115> 276 114<194.803 301.732> 507 126<100.84 169.119> 622 20G<151.509 167.115> 886 114<190.538 301.064>
VStem: 40 151<-24.2038 22.1842 585.597 632.184> 156 66<-571.487 -450.695> 391 69<-7.43059 164.775 604.676 771.04>
AnchorPoint: "Middle" 258 280 basechar 0
AnchorPoint: "Top" 258 800 basechar 0
AnchorPoint: "Bottom" 258 -300 basechar 0
LayerCount: 2
Fore
SplineSet
40 698.170355085 m 0x9b40
 40 859.480138445 147.322612708 1000 274.869077359 1000 c 0
 384.624007449 1000 460 895.948358109 460 747.693071081 c 0
 460 641.975050649 421.672480896 525.07611738 340 380 c 1
 412.729829119 349.77461647 460 254.052520436 460 137.898075513 c 0
 460 46.555231108 430.76759362 -57.8462202502 376.834133166 -161.599110478 c 0
 334 -244 222 -429 222 -477.424330829 c 0
 222 -482 223 -483 224.06631011 -490.330882006 c 0
 231 -538 263 -515 263 -535.981711804 c 0
 263 -561.1858547 216.824457149 -610 192.797229 -610 c 0
 173.098501711 -610 156 -577.189361583 156 -539.398405152 c 0
 156 -436 284 -271 344.955839707 -142.536647433 c 0
 376.807555989 -75.4097195064 391 -17.3783928854 391 42.9392606263 c 0
 391 173.983660529 324.010729875 276 238.295580375 276 c 0
 160.119286248 276 82.0092089524 191.139669111 76 100 c 1
 79.9058549203 49.2238860364 97.2749222951 23 124.847257261 23 c 0xdac0
 141 23 146 32 157.017194757 32 c 0xb2c0
 177.212922032 32 191 1.75737735979 191 -36.448225123 c 0
 191 -57.9327437101 186.640171765 -77.7196564709 182.015951155 -87.3946106878 c 0
 176.045634907 -99.8859127329 166.314112197 -103 153.796245423 -103 c 0
 89.8722325335 -103 40 -21.7921169367 40 89.0490997423 c 0
 40 253.393323116 149.639015752 390 282.161548082 390 c 0
 293.5 390 297.5 389 303 389 c 1
 368.278230032 503.731434602 391 571.122138711 391 649.687350698 c 0
 391 783.82883245 324.761912563 886 238.622750788 886 c 0
 160.119286248 886 82.0092089524 801.139669111 76 710 c 1
 79.9058549203 659.223886036 97.2749222951 633 124.847257261 633 c 0xdb40
 141 633 146 642 157.017194757 642 c 0x9740
 177.212922032 642 191 611.75737736 191 573.551774877 c 0
 191 552.06725629 186.640171765 532.280343529 182.015951155 522.605389312 c 0
 176.045634907 510.114087267 166.314112197 507 153.796245423 507 c 0
 89.8722325335 507 40 588.207883063 40 698.170355085 c 0x9b40
EndSplineSet
Validated: 1
Comment: "ess+AOsA nuquerna [+AqQA]"
Colour: ff00
EndChar

StartChar: parenright
Encoding: 41 41 71
Width: 270
GlyphClass: 1
Flags: W
HStem: 883 20G<64.5 91.5>
VStem: 0 145<805.19 860.227> 137 83<93.5448 499.031>
LayerCount: 2
Fore
SplineSet
220 333 m 0xa0
 220 24 111 -269 26 -349 c 0
 25 -350 24 -351 22 -351 c 0
 16 -351 10 -344 10 -333 c 0
 10 -329 11 -324 14 -318 c 0
 114 -104 137 48 137 287 c 0xa0
 137 424 96 643 41 780 c 1
 19 822 0 806 0 824 c 0
 0 852 50 903 79 903 c 0
 104 903 129 864 145 798 c 1xc0
 194 643 220 483 220 333 c 0xa0
EndSplineSet
Validated: 1
Comment: "forya c+APoA (right parenthesis)"
Colour: 999999
EndChar

StartChar: parenleft
Encoding: 40 40 72
Width: 270
GlyphClass: 1
Flags: W
HStem: 885 20G<247 251>
VStem: 50 83<54.969 461.232> 125 145<-306.227 -251.19>
LayerCount: 2
Fore
SplineSet
50 221 m 4xc0
 50 530 159 833 244 903 c 4
 245 904 246 905 248 905 c 4
 254 905 260 898 260 887 c 4
 260 882 259 878 256 872 c 4
 156 658 133 506 133 267 c 4xc0
 133 130 174 -89 229 -226 c 5
 251 -268 270 -252 270 -270 c 4
 270 -298 220 -349 191 -349 c 4
 166 -349 141 -310 125 -244 c 5xa0
 76 -89 50 71 50 221 c 4xc0
EndSplineSet
Validated: 1
Comment: "hyarya c+APoA (left parenthesis)"
Colour: 999999
EndChar

StartChar: quotedbl
Encoding: 34 34 73
Width: 510
GlyphClass: 1
Flags: W
HStem: -610 99<145.43 266.876> 883 20G<201.243 235.297 382.358 416.163>
VStem: 50 91<-454.459 -317.798> 201 79<-7.63747 654.547> 381 79<218.213 722.564>
LayerCount: 2
Fore
SplineSet
453 -370.496009122 m 0
 453 -465.867532212 292.652629586 -610 184.014644413 -610 c 0
 106.844407534 -610 50 -537.272596243 50 -435.526424003 c 0
 50 -361.513370215 80.0793351077 -276.088058509 125.218455071 -222.381864571 c 0
 130.949760121 -215.562799849 132.219544457 -213.6157972 138.391358903 -201.660004151 c 0
 195 -92 198 78 201 96 c 1
 201 176.5 200 331.5 199.759145716 412.754755179 c 0
 199.010578071 665.292013779 196.196159565 711.346134782 178 772 c 1
 156 826 135 808 135 825.378771471 c 0
 135 852.635285222 186.656117721 903 215.830669776 903 c 0
 254.762938475 903 280 813.311365964 280 672 c 2
 280 146 l 2
 280 73.6444403013 263.279800358 -9.2598829244 232 -92 c 1
 281.412916251 -28.8612736796 318.278756108 24.6650899595 336 59 c 1
 369.322567088 140.79175558 381 214.22983367 381 342 c 2
 381 477 l 2
 381 664.347138208 380.042090466 681.884251219 368.169506457 715.184733299 c 0
 339 797 315 778 315 796.02558137 c 0
 315 822.771421799 367.837854991 873 396.877644975 873 c 0
 435.449185474 873 460 784.38690382 460 642 c 2
 460 372 l 2
 460 251.249897388 408.141136744 89.1909497124 340 -3 c 1
 340 -4 l 1
 175 -223 l 1
 151.014685432 -265.973688601 141 -303.970583328 141 -352.291288201 c 0
 141 -450.319676702 182.216823372 -511 249.129873819 -511 c 0
 313.950007521 -511 387.976884043 -454.05624883 418.033277068 -380.495024738 c 0
 426.058088175 -360.854779561 433.071284212 -353 442.658259363 -353 c 0
 450.166221042 -353 453 -357.817424229 453 -370.496009122 c 0
EndSplineSet
Validated: 1
Comment: "c+APoA sindarinwa (elvish parenthesis)"
Colour: 999999
EndChar

StartChar: l
Encoding: 108 108 74
Width: 810
GlyphClass: 2
Flags: W
HStem: -610 114<308.001 470.757> -85 21G<636.422 645.898> 29 20G<659.388 688.938> 480 80<1.45554 304 329.143 822.006>
VStem: 35 90<-287.612 -5.42829> 710 45<-274.152 -102.485>
AnchorPoint: "Middle" 443 280 basechar 0
AnchorPoint: "Top" 443 800 basechar 0
AnchorPoint: "Bottom" 423 -300 basechar 0
LayerCount: 2
Fore
SplineSet
337 480 m 1
 167.186523438 204.302734375 139.014648438 125.260742188 126.57421875 -102.693359375 c 0
 125.279296875 -126.416015625 125 -135.071289062 125 -145.205078125 c 0
 125 -352.837890625 242.206054688 -496 410.928710938 -496 c 0
 575.372070312 -496 710 -360.0078125 710 -199.138671875 c 0
 710 -133.306640625 687.454101562 -81 660.463867188 -81 c 0
 653 -81 649 -85 642.796875 -85 c 0
 630.047851562 -85 622 -68.099609375 622 -43.478515625 c 0
 622 0.5927734375 647.782226562 49 670.994140625 49 c 0
 706.880859375 49 755 -66.7138671875 755 -153.0390625 c 0
 755 -239.66796875 706.54296875 -375.6171875 646.858398438 -455.977539062 c 0
 579.0390625 -547.290039062 464.614257812 -610 365.133789062 -610 c 0
 186.725585938 -610 35 -408.310546875 35 -169.354492188 c 0
 35 32.2265625 142.973632812 293.130859375 304 480 c 1
 64 480 l 2
 -22.7119140625 480 -40 483.32421875 -40 499.788085938 c 0
 -40 535.796875 42.6953125 560 165 560 c 2
 625 560 l 2
 701.826171875 560 737.09375 560.125 761.07421875 560.125 c 0
 798.198242188 560.125 837 560 850.415039062 560 c 0
 854 560 855 558 855 550.76953125 c 0
 855 489.532226562 763.265625 480 688 480 c 2
 337 480 l 1
EndSplineSet
Validated: 1
Comment: "lamb+AOsA [l]"
Colour: ff00
EndChar

StartChar: numbersign
Encoding: 35 35 75
Width: 510
GlyphClass: 1
Flags: W
HStem: -495 69<-265.5 -131.773> -200 21G<51.5 83> 438 67<240.643 376.5>
VStem: -360 103<-393.569 -274.332> 49 94<-146.286 -18 24 40 84 337.415> 367 103<286.644 404.416>
LayerCount: 2
Fore
SplineSet
181 418 m 1
 146 390 143 375 143 246 c 2
 143 84 l 1
 273 166 l 1
 315 201 334 224 349 261 c 0
 360 288 367 313 367 338 c 0
 367 400 329 438 265 438 c 0
 237 438 208 431 181 418 c 1
143 40 m 1
 143 -28 l 2
 143 -122 111 -200 55 -200 c 2
 53 -200 l 2
 50 -200 49 -180 49 -164 c 2
 49 -18 l 1
 -165 -152 l 1
 -222 -200 -257 -265 -257 -326 c 0
 -257 -390 -220 -426 -154 -426 c 0
 -104 -426 -54 -405 -18 -369 c 0
 -7 -358 2 -352 8 -352 c 0
 14 -352 19 -358 19 -366 c 0
 19 -411 -142 -495 -229 -495 c 0
 -302 -495 -360 -435 -360 -360 c 0
 -360 -335 -353 -310 -337 -271 c 0
 -324 -239 -319 -235 -185 -122 c 1
 49 24 l 1
 49 190 l 2
 49 281 61 333 93 378 c 1
 102 427 254 505 340 505 c 0
 413 505 470 449 470 374 c 0
 470 350 464 325 452 296 c 0
 433 250 451 268 285 130 c 1
 143 40 l 1
EndSplineSet
Validated: 1
Comment: "n+APMA-t+AOsA tanna (number sign)"
Colour: 999999
EndChar

StartChar: exclam
Encoding: 33 33 76
Width: 275
GlyphClass: 1
Flags: W
HStem: 0 21G<83.9961 106.371> 980 20G<171.104 195.086> 980 20G<171.104 195.086>
VStem: 50 80<562.438 759.933> 150 75<222.425 403.018>
LayerCount: 2
Fore
SplineSet
80 12.662109375 m 0xd8
 80 52.970703125 150 58.1560414253 150 291 c 0
 150 292 l 0
 150 438 50 494 50 642.80859375 c 0
 50 756.630859375 150.16015625 1000 192.046875 1000 c 0
 198.125976562 1000 199 995.715820312 199 983.35546875 c 0
 199 950.22265625 130 922.591950047 130 675.890927411 c 0
 130 522 225 481 225 327.837890625 c 0
 225 228.407226562 126.749023438 0 85.9921875 0 c 0
 82 0 80 2 80 12.662109375 c 0xd8
EndSplineSet
Validated: 1
Comment: "v+AOEA tanna (exclamation sign)"
Colour: 999999
EndChar

StartChar: question
Encoding: 63 63 77
Width: 510
GlyphClass: 1
Flags: W
HStem: -315 30<230.578 323.369> 106 114<228.154 330.419> 446 114<228.773 330.543>
VStem: -15 141<462.526 519.687> 51 79<-343.43 14.7369 84 316.108> 411 59<-140.988 -0.778998 193.291 338.752>
LayerCount: 2
Fore
SplineSet
304.280350085 560 m 0xf4
 399.734055424 560 470 461.3737043 470 326.187579319 c 0
 470 264.565429607 455.399950124 199.755452109 429 145 c 1
 455.556037129 103.690608911 470 48.0285080899 470 -11.9766212512 c 0
 470 -151.87594175 391.487135768 -299.087562186 307.746392732 -313.141509286 c 0
 300.520259177 -314.354248689 292.125492134 -315 283.035202368 -315 c 0
 249.455176379 -315 228 -306.188052559 228 -292.582202801 c 0
 228 -285.9058809 233.166010489 -283 244.553105837 -283 c 0
 254 -283 267 -285 277.09055869 -285 c 0
 347 -285 411 -189 411 -84 c 2
 411 -81 l 1
 410 -77 409 -71 408.28863324 -66.9565310119 c 0
 390.062636707 36.6415788431 335.221094397 106 272.433228027 106 c 0
 212.337557188 106 150.114053029 42.4619147678 130 -39 c 1
 130 -198 l 2
 130 -349.796327411 28.0806377733 -608.998656037 -31.566914436 -609.917811409 c 0
 -36.9004504596 -610 -40 -608.062781537 -40 -604.331144373 c 0
 -40 -601.053287604 -37.6084486631 -595.738729078 -33.054462267 -587.756762836 c 0
 29.6277356655 -477.891000324 51 -388.492382437 51 -204.334927862 c 0xec
 51 -164.5 50 -9.5 49.7567576776 72.1049770246 c 0
 49.0125929168 321.763620384 46.2348829017 367.217056994 28 428 c 1
 6 482 -15 464 -15 481.378771471 c 0
 -15 508.635285222 36.6561177209 559 65.9022146062 559 c 0
 95.3365447604 559 117.098236866 507.98488572 126 416 c 1
 164.996186275 504.991296885 232.993055404 560 304.280350085 560 c 0xf4
130 301 m 1
 130 84 l 1
 168.790578161 168.543567786 234.624542905 220 303.868404352 220 c 0
 339.700614563 220 372.770717706 206.220790357 400 180 c 1
 407.236946075 204.812386543 411 230.811668207 411 256 c 2
 411 259 l 1
 410 263 409 269 408.28863324 273.043468988 c 0
 390.062636707 376.641578843 335.221094397 446 272.433228027 446 c 0
 212.337557188 446 150.114053029 382.461914768 130 301 c 1
EndSplineSet
Validated: 1
Comment: "cestanna (question mark)"
Colour: 999999
EndChar

StartChar: hyphen
Encoding: 45 45 78
Width: 500
GlyphClass: 1
Flags: W
HStem: 235 61<99.5428 326.785> 254 61<173.579 396.462>
LayerCount: 2
Fore
SplineSet
158.25 296 m 0x80
 215 296 256 315 315.53125 315 c 0x40
 371.46875 315 450 271.943697611 450 239.736800557 c 0
 450 235.583005244 449.125976562 235 445.966796875 235 c 0x80
 440 235 381 254 343.5 254 c 0x40
 286 254 245 235 183.38671875 235 c 0x80
 124.206054688 235 50 273.541015625 50 309.020507812 c 0
 50 314.296875 50.640625 315 56.3203125 315 c 0x40
 62.5 315 121.5 296 158.25 296 c 0x80
EndSplineSet
Validated: 1
Comment: "lanwa (defice)"
Colour: 999999
EndChar

StartChar: slash
Encoding: 47 47 79
Width: 495
GlyphClass: 1
Flags: W
HStem: -200 108<204.667 293.448> 692 108<200.792 287.493>
VStem: 40 29.9842<503.362 573.565> 66 75<-19.9224 100.135> 353 75<497.258 616.489> 424.125 30.8746<25.0162 94.8592>
LayerCount: 2
Fore
SplineSet
353 528.850499281 m 0xd8
 353 615.879062856 295.092047817 692 228.973182592 692 c 0
 163.499310981 692 88.8562589601 617.356947979 69.9842487083 533.218557917 c 0
 65.0524801001 511.23091244 59.0970527192 502 49.5584386857 502 c 0
 42.1983605456 502 40 507.495901364 40 524.48384112 c 0
 40 654.200047755 168.175782193 800 280.123852402 800 c 0
 364.23049179 800 428 717.702864405 428 609.19348206 c 0xe8
 428 543.722665894 404.78471633 475.645415131 354 392 c 1
 170 179 l 1
 160 149 141 122 141 70.4506127282 c 0
 141 -18.1219827445 197.092568657 -92 264.312157818 -92 c 0
 331.302794614 -92 406.080488263 -18.6243881069 424.125439025 64.5316131073 c 0
 429.024462881 87.1076366774 435.048321906 96 445.002776001 96 c 0
 452.559666212 96 455 90.8752990448 455 73.300376877 c 0xd4
 455 -53.9709553587 327.025455423 -200 213.877316803 -200 c 0
 129.269461447 -200 66 -118.348195024 66 -9.88323984849 c 0
 66 50.5531588403 85.6432077808 110.3623288 133 195 c 1
 322 419 l 1
 334 452 353 479 353 528.850499281 c 0xd8
EndSplineSet
Validated: 1
Comment: "ciriss+AOsA (slash)"
Colour: 999999
EndChar

StartChar: equal
Encoding: 61 61 80
Width: 500
GlyphClass: 1
Flags: W
HStem: 160 66<106.805 289.775> 184 66<210.72 391.491> 310 66<106.805 289.775> 334 66<210.72 391.491>
LayerCount: 2
Fore
SplineSet
158.25 376 m 0x20
 195 376 276 400 315.530964819 400 c 0x10
 371.468969267 400 450 351.943697611 450 319.736800557 c 0
 450 312.583005244 446.125492134 310 435.966526052 310 c 0x20
 405 310 381 334 343.5 334 c 0x10
 306 334 225 310 183.386984172 310 c 0x20
 124.206515896 310 50 358.541104383 50 394.020658863 c 0
 50 399.296719601 51.6409875979 400 57.3206945264 400 c 0x10
 90.5 400 121.5 376 158.25 376 c 0x20
158.25 226 m 0x80
 195 226 276 250 315.530964819 250 c 0x40
 371.468969267 250 450 201.943697611 450 169.736800557 c 0
 450 162.583005244 446.125492134 160 435.966526052 160 c 0x80
 405 160 381 184 343.5 184 c 0x40
 306 184 225 160 183.386984172 160 c 0x80
 124.206515896 160 50 208.541104383 50 244.020658863 c 0
 50 249.296719601 51.6409875979 250 57.3206945264 250 c 0x40
 90.5 250 121.5 226 158.25 226 c 0x80
EndSplineSet
Validated: 1
Comment: "tanta lanwa (section end)"
Colour: 999999
EndChar

StartChar: z
Encoding: 122 122 81
Width: 500
GlyphClass: 2
Flags: W
HStem: 0 114<208.556 319.706> 367 126<330.38 397.82> 980 20G<301.029 305.339> 980 20G<301.029 305.339>
VStem: 40 67<254.072 504.624> 425 35<216.48 349.991>
AnchorPoint: "Middle" 258 280 basechar 0
AnchorPoint: "Top" 258 800 basechar 0
AnchorPoint: "Bottom" 258 -300 basechar 0
LayerCount: 2
Fore
SplineSet
351.668499668 493 m 0xec
 408.810610857 493 460 397.665633063 460 289.229157257 c 0
 460 135.542648221 357.174542729 0 240.571359885 0 c 0
 123.633306861 0 40 136.322290183 40 325.946083193 c 0
 40 515.894750318 123.920122887 748.883512543 267.790596119 957.694462081 c 0
 291.684037837 992.372962407 298.380948894 1000 303.677919054 1000 c 0
 307 1000 310 997 310 993.906410559 c 0
 310 990.202555693 305.699649814 982.107778873 293.445431121 962.952366213 c 0
 187.231766162 796.92247616 107 548.894166787 107 388.381227662 c 0
 107 234.236570019 180.991735396 114 273.624941558 114 c 0
 352.306985357 114 425 200.746997474 425 291.780043427 c 0
 425 339.07619739 405.377868436 367 375.794858136 367 c 0
 359 367 354 358 343.044522318 358 c 0
 321.797482944 358 309 391.851406496 309 429.823427056 c 0
 309 472.551767502 325.204259716 493 351.668499668 493 c 0xec
EndSplineSet
Validated: 1
Comment: "+AOEA-ze [z]"
Colour: ff00
EndChar

StartChar: j
Encoding: 106 106 82
Width: 500
GlyphClass: 2
Flags: W
HStem: 67 126<102.18 169.62> 446 114<180.294 291.444>
VStem: 40 35<210.009 343.52> 393 67<55.3765 305.928>
AnchorPoint: "Middle" 228 280 basechar 0
AnchorPoint: "Top" 228 800 basechar 0
AnchorPoint: "Bottom" 228 -300 basechar 0
LayerCount: 2
Fore
SplineSet
148.331500332 67 m 0
 91.1893891433 67 40 162.334366937 40 270.770842743 c 0
 40 424.457351779 142.825457271 560 259.428640115 560 c 0
 376.366693139 560 460 423.677709817 460 234.053916807 c 0
 460 44.1052496816 376.079877113 -188.883512543 232.209403881 -397.694462081 c 0
 208.315962163 -432.372962407 201.619051106 -440 196.322080946 -440 c 0
 193 -440 190 -437 190 -433.906410559 c 0
 190 -430.202555693 194.300350186 -422.107778873 206.554568879 -402.952366213 c 0
 312.768233838 -236.92247616 393 11.1058332127 393 171.618772338 c 0
 393 325.763429981 319.008264604 446 226.375058442 446 c 0
 147.693014643 446 75 359.253002526 75 268.219956573 c 0
 75 220.92380261 94.6221315637 193 124.205141864 193 c 0
 141 193 146 202 156.955477682 202 c 0
 178.202517056 202 191 168.148593504 191 130.176572944 c 0
 191 87.4482324984 174.795740284 67 148.331500332 67 c 0
EndSplineSet
Validated: 1
Comment: "+AOEA-re nuquerna [j]"
Colour: ff00
EndChar

StartChar: dollar
Encoding: 36 36 83
Width: 455
GlyphClass: 2
Flags: W
HStem: -153 256<198.5 295> 0 21G<189 209.5> 446 114<161.765 262.212>
VStem: 30 28<226.217 319.977> 178 99<-131.479 -6.06508> 346 59<184.735 341.182>
AnchorPoint: "Middle" 228 280 basechar 0
AnchorPoint: "Top" 228 800 basechar 0
AnchorPoint: "Bottom" 228 -300 basechar 0
LayerCount: 2
Fore
SplineSet
238 5 m 5xbc
 227 2 215 0 204 0 c 4x7c
 174 0 160 13 160 38 c 4
 160 78 196 132 223 132 c 4
 227 132 229 131 232 126 c 4
 240 114 260 103 276 103 c 4
 314 103 346 166 346 240 c 4
 346 347 278 446 205 446 c 4
 135 446 63 354 58 257 c 4
 57 234 53 226 41 226 c 4
 35 226 30 228 30 263 c 4
 30 417 121 560 238 560 c 4
 336 560 405 460 405 319 c 4
 405 231 378 147 337 87 c 5
 338 87 l 5
 301 38 277 -10 277 -39 c 4
 277 -70 304 -65 304 -83 c 4
 304 -110 246 -153 203 -153 c 4
 194 -153 178 -151 178 -126 c 4
 178 -87 217 -23 238 5 c 5xbc
EndSplineSet
Validated: 1
Comment: "+AOkA-r+AOsA - standalone [e]"
Colour: ff00
EndChar

StartChar: quotesingle
Encoding: 39 39 84
Width: 490
GlyphClass: 1
Flags: W
HStem: -610 100<47.3745 168.249> 460 101<225.608 309.795>
VStem: -50 91<-454.537 -322.686> 50 80<-82 411.167 451 728.69> 359 91<273.058 403.907>
LayerCount: 2
Fore
SplineSet
130 384 m 1
 130 273 131 29 131 -82 c 1
 322 172 l 1
 348.962115213 217.935455547 359 252.932405212 359 301.285265993 c 0
 359 399.037386354 317.974844905 460 251.353260166 460 c 0
 207.170896503 460 164.130348685 433.187855458 130 384 c 1
353 -371.411952221 m 0
 353 -461.103758566 198.075570653 -610 85.8811740858 -610 c 0
 8.86777344839 -610 -50 -539.842516575 -50 -435.832225165 c 0
 -50 -357.646365731 -16.7354684177 -272.677181798 42 -201 c 1
 49 -191 l 1
 49 26 50 324 50 541 c 2
 50 574 l 2
 50 740.848802135 147.561554895 998.993040554 210.096886899 999.902331129 c 0
 216.813942393 1000 220 997.167948794 220 993.916242922 c 0
 220 990.284792483 216.026334039 982.602371625 206.537600696 966.089873325 c 0
 144.881812162 858.79514108 130 782.600262812 130 579 c 2
 130 451 l 1
 179.25029833 521.357569043 242.317802126 561 305.265180786 561 c 0
 390.341193024 561 450 488.586551533 450 385.270209794 c 0
 450 303.375144516 412.515476808 212.447340735 349 140 c 1
 75 -223 l 1
 51.0146854318 -265.973688601 41 -303.970583328 41 -352.271516107 c 0
 41 -450.009259456 82.0063289795 -510 148.785712986 -510 c 0
 213.663133535 -510 287.842573297 -453.377824086 318.122839666 -380.066697901 c 0
 326.058088175 -360.854779561 333.071284212 -353 342.366680602 -353 c 0
 349 -353 353 -357 353 -371.411952221 c 0
EndSplineSet
Validated: 1
Comment: "putta [']"
Colour: 999999
EndChar

StartChar: J
Encoding: 74 74 85
Width: 500
GlyphClass: 2
Flags: W
HStem: 67 126<102.038 169.615> 446 114<189.099 329.398>
VStem: 40 35<210.359 342.579> 393 67<-170.495 -8.74337 221.043 376.49>
AnchorPoint: "Middle" 258 280 basechar 0
AnchorPoint: "Top" 258 800 basechar 0
AnchorPoint: "Bottom" 258 -300 basechar 0
LayerCount: 2
Fore
SplineSet
276.7981713 560 m 0
 384.51931571 560 460 472.557895795 460 348 c 2
 460 345 l 2
 460 296.593057428 458.243794257 278.835866022 450.966187265 254.346342444 c 0
 436.493438447 205.644794822 409.21767454 162.074418712 374 131 c 1
 428.493410463 93.6619224606 460 22.2225624636 460 -63.8722616012 c 0
 460 -170.599871118 411.582665834 -247.241528045 253.074780852 -394.548553297 c 0
 215.655196376 -429.323906434 201.928790363 -440 194.283873815 -440 c 0
 191.831300511 -440 190 -438.901219694 190 -436.953189571 c 0
 190 -433.263447073 196.569924777 -425.430075223 221.001257225 -400.998742775 c 0
 345.221320972 -276.778679028 393 -196.337739196 393 -107.009441854 c 0
 393 -23.9389456534 351.681015877 47.7616444432 292.320698772 68.7017396158 c 0
 283.461706049 71.8268602317 281 73.7962250707 281 77.058251126 c 0
 281 97 373 153 391.977600625 264.002063904 c 0
 392.881966011 269.291796068 393 270.94427191 393 278 c 2
 393 288 l 2
 393 384.910064129 338.869677076 446 253.489964925 446 c 0
 155.487910742 446 75 365.512089258 75 268.747847055 c 0
 75 221.121940514 94.4978787564 193 124.198102446 193 c 0
 141 193 146 202 156.955477682 202 c 0
 178.202517056 202 191 168.148593504 191 130.176572944 c 0
 191 87.4482324984 174.795740284 67 148.181667146 67 c 0
 90.7962857553 67 40 162.068277927 40 272.060128669 c 0
 40 430.871327821 145.894447427 560 276.7981713 560 c 0
EndSplineSet
Validated: 1
Comment: "+AOEA-ze nuquerna [+ApAA]"
Colour: ff00
EndChar

StartChar: Z
Encoding: 90 90 86
Width: 500
GlyphClass: 2
Flags: W
HStem: 0 114<170.602 310.901> 367 126<330.385 397.962> 980 20G<301.894 306.942> 980 20G<301.894 306.942>
VStem: 40 67<183.51 338.957 568.743 730.495> 425 35<217.421 349.641>
AnchorPoint: "Middle" 258 280 basechar 0
AnchorPoint: "Top" 258 800 basechar 0
AnchorPoint: "Bottom" 258 -300 basechar 0
LayerCount: 2
Fore
SplineSet
223.2018287 0 m 0xec
 115.48068429 0 40 87.4421042046 40 212 c 2
 40 215 l 2
 40 263.406942572 41.7562057434 281.164133978 49.0338127346 305.653657556 c 0
 63.5065615533 354.355205178 90.7823254598 397.925581288 126 429 c 1
 71.5065895371 466.338077539 40 537.777437536 40 623.872261601 c 0
 40 730.599871118 88.4173341661 807.241528045 246.925219148 954.548553297 c 0
 284.344803624 989.323906434 298.071209637 1000 305.716126185 1000 c 0
 308.168699489 1000 310 998.901219694 310 996.953189571 c 0
 310 993.263447073 303.430075223 985.430075223 278.998742775 960.998742775 c 0
 154.778679028 836.778679028 107 756.337739196 107 667.009441854 c 0
 107 583.938945653 148.318984123 512.238355557 207.679301228 491.298260384 c 0
 216.538293951 488.173139768 219 486.203774929 219 482.941748874 c 0
 219 463 127 407 108.022399375 295.997936096 c 0
 107.118033989 290.708203932 107 289.05572809 107 282 c 2
 107 272 l 2
 107 175.089935871 161.130322924 114 246.510035075 114 c 0
 344.512089258 114 425 194.487910742 425 291.252152945 c 0
 425 338.878059486 405.502121244 367 375.801897554 367 c 0
 359 367 354 358 343.044522318 358 c 0
 321.797482944 358 309 391.851406496 309 429.823427056 c 0
 309 472.551767502 325.204259716 493 351.818332854 493 c 0
 409.203714245 493 460 397.931722073 460 287.939871331 c 0
 460 129.128672179 354.105552573 0 223.2018287 0 c 0xec
EndSplineSet
Validated: 1
Comment: "+AOEA-re [+AnkA]"
Colour: ff00
EndChar

StartChar: four
Encoding: 52 52 87
Width: 200
GlyphClass: 2
Flags: W
HStem: -610 116<217.564 340.051> -243 126<363.554 417.463>
VStem: 60 80<-397.179 728.69> 445 35<-391.986 -260.04>
AnchorPoint: "Middle" 102 280 basechar 0
AnchorPoint: "Top" 102 800 basechar 0
AnchorPoint: "Bottom" 102 -300 basechar 0
LayerCount: 2
Fore
SplineSet
140 -284 m 1
 140.989217461 -409.630617534 200.047785187 -494 286.259924803 -494 c 0
 371.301724415 -494 445 -411.905718336 445 -318.939701979 c 0
 445 -271.121940514 425.502121244 -243 395.801897554 -243 c 0
 379 -243 374 -252 363.044522318 -252 c 0
 341.797482944 -252 329 -218.148593504 329 -180.176572944 c 0
 329 -137.448232498 345.204259716 -117 371.668499668 -117 c 0
 428.810610857 -117 480 -212.334366937 480 -320.65531793 c 0
 480 -473.831234704 377.638652295 -610 262.761006701 -610 c 0
 153.000577526 -610 60 -485.692297366 60 -340 c 2
 60 574 l 2
 60 740.848802135 157.561554895 998.993040554 220.096886899 999.902331129 c 0
 226.813942393 1000 230 997.167948794 230 993.916242922 c 0
 230 990.284792483 226.026334039 982.602371625 216.537600696 966.089873325 c 0
 154.881812162 858.79514108 140 782.600262812 140 579 c 2
 140 -284 l 1
EndSplineSet
Validated: 1
Comment: "canta (four)"
Colour: ff00
EndChar

StartChar: five
Encoding: 53 53 88
Width: 700
GlyphClass: 2
Flags: W
HStem: -610 114<213.107 371.81> 0 114<419.884 515.326> 473 87<386.387 737.634> 476 91<130 356 388.043 562.71>
VStem: 50 80<-383.484 476 564.347 728.69> 280 59<220.209 364.144> 577 43<-291.125 -59.658> 625.723 29.2773<233.294 334.44>
AnchorPoint: "Middle" 478 280 basechar 0
AnchorPoint: "Top" 458 800 basechar 0
AnchorPoint: "Bottom" 348 -300 basechar 0
LayerCount: 2
Fore
SplineSet
130 577 m 2xef
 130 567 l 1xdf
 159.753176979 561.049364604 227.062420877 560 579 560 c 2
 761 560 l 2
 774.342773438 560 780 559.106445312 780 557 c 2
 780 554 l 2
 780 489.25 702.500642675 473 573 473 c 2
 404 473 l 1
 364 434 339 369 339 304 c 2
 339 301 l 1
 340 297 341 291 341.71136676 286.956531012 c 0
 359.937363293 183.358421157 414.778905603 114 477.713787934 114 c 0
 549.010929252 114 621.000769388 203.014464492 625.72266048 298.060658905 c 0
 626.966821149 323.104171016 632.60168751 335 643.963205922 335 c 0
 652.670833985 335 655 328.012501954 655 301.957277668 c 0
 655 200.728557873 619.842474388 106.850484165 561 51 c 1
 593.682646715 7.08269347736 620 -90.6037534637 620 -167.986911576 c 0
 620 -265.898600957 577.867386565 -393.547905028 518.670129636 -473.770122132 c 0
 456.929800181 -557.438629265 361.46907539 -610 271.466759229 -610 c 0
 122.492761192 -610 50 -465.994109524 50 -169 c 2
 50 574 l 2
 50 740.848802135 147.561554895 998.993040554 210.096886899 999.902331129 c 0
 216.813942393 1000 220 997.167948794 220 993.916242922 c 0
 220 990.284792483 216.026334039 982.602371625 206.606948904 966.210473407 c 0
 144.970698355 858.949210482 130 781.900016281 130 577 c 2xef
356 473 m 1xef
 249 473 l 2xef
 203.332718325 473 164.250461256 473.985266985 130 476 c 1xdf
 130 -181 l 2
 130 -424.395236393 172.053591324 -496 315.702000327 -496 c 0
 472.500443106 -496 545.910749 -410.685320176 572.84547713 -201.298721424 c 0
 576.182745938 -175.355286555 577 -164.186147712 577 -153.570265425 c 0
 577 -85.2908921399 543.191651886 -15.1064732699 498 10 c 1
 482.034594578 3.4260095322 464.219345011 0 446.542391992 0 c 0
 351.122286048 0 280 99.8282689714 280 232.540838142 c 0
 280 317.636493938 309.241279581 409.977376827 356 473 c 1xef
EndSplineSet
Validated: 1
Comment: "lemp+AOsA (five)"
Colour: ff00
EndChar

StartChar: six
Encoding: 54 54 89
Width: 1065
GlyphClass: 2
Flags: W
HStem: -610 114<213.6 372.003> 0 114<418.884 514.177 749.576 851.198> 473 87<386.387 686 716.387 1102.63> 476 91<130 356 388.043 562.687>
VStem: 50 80<-391.651 476 564.147 728.69> 280 59<220.702 364.144> 577 43<-291.094 -59.658> 610 59<220.819 367.066> 955.723 29.2773<234.823 334.44>
AnchorPoint: "Middle" 488 280 basechar 0
AnchorPoint: "Top" 628 800 basechar 0
AnchorPoint: "Bottom" 578 -300 basechar 0
LayerCount: 2
Fore
SplineSet
734 473 m 1xee80
 694 434 669 369 669 304 c 2
 669 301 l 1xed80
 670 297 671 291 671.71136676 286.956531012 c 0
 689.937363293 183.358421157 744.778905603 114 807.713787934 114 c 0
 879.010929252 114 951.000769388 203.014464492 955.72266048 298.060658905 c 0
 956.966821149 323.104171016 962.60168751 335 973.963205922 335 c 0
 982.670833985 335 985 328.012501954 985 302.316229987 c 0
 985 137.858013193 889.594951134 0 775.64433074 0 c 0
 704.943252148 0 646.980057463 53.0701977315 622 141 c 1
 605.680985664 104.282217744 585.52523624 74.5442267902 561 51 c 1
 593.682646715 7.08269347736 620 -90.6037534637 620 -167.986911576 c 0
 620 -265.898600957 577.867386565 -393.547905028 518.670129636 -473.770122132 c 0
 456.929800181 -557.438629265 361.46907539 -610 271.466759229 -610 c 0
 122.492761192 -610 50 -465.994109524 50 -169 c 2
 50 574 l 2
 50 740.848802135 147.561554895 998.993040554 210.096886899 999.902331129 c 0
 216.813942393 1000 220 997.167948794 220 993.916242922 c 0
 220 990.284792483 216.026334039 982.602371625 206.590752864 966.182179821 c 0
 145.08924147 859.154685214 130 782.300148662 130 581 c 2
 130 567 l 1xde80
 158.721596405 561.057600744 226.559129831 560 579 560 c 2
 1101 560 l 2
 1144.01074219 560 1145 559.932617188 1145 557 c 2
 1145 554 l 2
 1145 489.25 1067.50064267 473 938 473 c 2
 734 473 l 1xee80
686 473 m 1
 404 473 l 1
 364 434 339 369 339 304 c 2
 339 301 l 1
 340 297 341 291 341.716531582 286.927486761 c 0
 359.722885631 184.585709998 413.072550165 114 473.770422722 114 c 0
 538.365252707 114 610 193.94022524 610 270.8661363 c 0
 610 324.161849373 644.384521957 416.909573072 686 473 c 1
130 476 m 1xde80
 130 -196 l 2
 130 -425.213999638 173.887320224 -496 316.214095033 -496 c 0
 472.643084137 -496 545.935973957 -410.491628543 572.844953972 -201.303053603 c 0
 576.182745938 -175.355286555 577 -164.186147712 577 -153.570265425 c 0
 577 -85.2908921399 543.191651886 -15.1064732699 498 10 c 1
 482.034594578 3.4260095322 464.219345011 0 446.542391992 0 c 0
 351.122286048 0 280 99.8282689714 280 232.540838142 c 0
 280 317.636493938 309.241279581 409.977376827 356 473 c 1
 249 473 l 2xee80
 203.332718325 473 164.250461256 473.985266985 130 476 c 1xde80
EndSplineSet
Validated: 1
Comment: "enqu+AOsA (six)"
Colour: ff00
EndChar

StartChar: seven
Encoding: 55 55 90
Width: 180
GlyphClass: 2
Flags: W
HStem: -610 35<-157.408 -62.0427>
VStem: -290 91<-510.138 -428.731> 50 80<-453.104 728.69>
AnchorPoint: "Middle" 90 280 basechar 0
AnchorPoint: "Top" 90 800 basechar 0
AnchorPoint: "Bottom" 90 -300 basechar 0
LayerCount: 2
Fore
SplineSet
-87.1176112846 -610 m 0
 -196.420436776 -610 -290 -518.385742188 -290 -447.30078125 c 0
 -290 -421.298828125 -277.479492188 -410 -248.540039062 -410 c 0
 -216.774414062 -410 -190 -423.614257812 -190 -443.165039062 c 0
 -190 -454.5 -199 -460.5 -199 -478.498046875 c 0
 -199 -514.130859375 -163.721455348 -575 -118.936046549 -575 c 0
 -46.2501328354 -575 28.7008012986 -493.689592667 45.6207664096 -396.597772312 c 0
 48.0721826999 -382.530812451 49.0329814067 -371.241427646 50 -349 c 1
 50 574 l 2
 50 740.848802135 147.561554895 998.993040554 210.096886899 999.902331129 c 0
 216.813942393 1000 220 997.167948794 220 993.916242922 c 0
 220 990.284792483 216.026334039 982.602371625 206.537600696 966.089873325 c 0
 144.881812162 858.79514108 130 782.600262812 130 579 c 2
 130 -360 l 2
 130 -515.90998884 47.9535102688 -610 -87.1176112846 -610 c 0
EndSplineSet
Validated: 1
Comment: "otso (seven)"
Colour: ff00
EndChar

StartChar: eight
Encoding: 56 56 91
Width: 540
GlyphClass: 2
Flags: W
HStem: -610 35<-147.408 -52.0427> 0 87<140 171.132 173.232 374.317 404 494.398> 6 88<141.021 353.577> 446 114<238.151 340.365>
VStem: -280 91<-510.138 -428.731> 60 80<-453.104 6 92 354.737 424 728.69> 421 59<196.143 339.791>
AnchorPoint: "Middle" 278 280 basechar 0
AnchorPoint: "Top" 378 800 basechar 0
AnchorPoint: "Bottom" 368 -300 basechar 0
LayerCount: 2
Fore
SplineSet
-77.1176112846 -610 m 0xbe
 -186.420436776 -610 -280 -518.385742188 -280 -447.30078125 c 0
 -280 -421.298828125 -267.479492188 -410 -238.540039062 -410 c 0
 -206.774414062 -410 -180 -423.614257812 -180 -443.165039062 c 0
 -180 -454.5 -189 -460.5 -189 -478.498046875 c 0
 -189 -514.130859375 -153.721455348 -575 -108.936046549 -575 c 0
 -36.2501328354 -575 38.7008012986 -493.689592667 55.6207664096 -396.597772312 c 0
 58.0721826999 -382.530812451 59.0329814067 -371.241427646 60 -349 c 1
 60 574 l 2
 60 740.848802135 157.561554895 998.993040554 220.096886899 999.902331129 c 0
 226.813942393 1000 230 997.167948794 230 993.916242922 c 0
 230 990.284792483 226.026334039 982.602371625 216.537600696 966.089873325 c 0
 154.881812162 858.79514108 140 782.600262812 140 579 c 2
 140 424 l 1
 178.790578161 508.543567786 244.624542905 560 313.848276894 560 c 0
 409.582266258 560 480 461.584854048 480 327.768581195 c 0
 480 241.479570417 450.719724032 148.630274255 404 87 c 1
 425.170522104 87 449.320127555 87.7546751703 465.602705599 88.9036108301 c 0
 552 95 542 123 554.625652447 123 c 0
 558 123 560 121 560 111.155300035 c 0
 560 55.7725643017 496.704354163 3.98521770817 417 0 c 1
 384 0 l 2xde
 310 0 219 6 145 6 c 2
 140 6 l 1
 140 -360 l 2
 140 -515.90998884 57.9535102688 -610 -77.1176112846 -610 c 0xbe
140 301 m 1
 140 92 l 1
 162.077037206 93.8397531005 164.721111048 94 171.444436025 94 c 0xbe
 209 94 284 89 357 87 c 1
 396.31006392 126.31006392 421 191.506926382 421 256 c 2
 421 259 l 1
 420 263 419 269 418.28863324 273.043468988 c 0
 400.062636707 376.641578843 345.221094397 446 282.433228027 446 c 0
 222.337557188 446 160.114053029 382.461914768 140 301 c 1
EndSplineSet
Validated: 1
Comment: "tolto (eight)"
Colour: ff00
EndChar

StartChar: nine
Encoding: 57 57 92
Width: 850
GlyphClass: 2
Flags: W
HStem: -610 35<-167.66 -72.0871> 5 82<120 353.412 386 684.381> 446 114<218.206 320.427 547.645 651.413>
VStem: -300 91<-510.446 -427.375> 40 80<-453.104 5 87 354.737 424 728.69> 401 59<192.573 339.256> 731 59<195.439 339.298>
AnchorPoint: "Middle" 428 280 basechar 0
AnchorPoint: "Top" 438 800 basechar 0
AnchorPoint: "Bottom" 438 -300 basechar 0
LayerCount: 2
Fore
SplineSet
-97.1176112846 -610 m 0
 -206.420436776 -610 -300 -518.385742188 -300 -447.30078125 c 0
 -300 -421.298828125 -287.479492188 -410 -258.952148438 -410 c 0
 -228.747070312 -410 -200 -422.66796875 -200 -440.514648438 c 0
 -200 -450.5 -209 -456.5 -209 -475.732421875 c 0
 -209 -513.275390625 -174.703089352 -575 -129.16070234 -575 c 0
 -56.2501328354 -575 18.7008012986 -493.689592667 35.6207664096 -396.597772312 c 0
 38.0721826999 -382.530812451 39.0329814067 -371.241427646 40 -349 c 1
 40 574 l 2
 40 740.848802135 137.561554895 998.993040554 200.096886899 999.902331129 c 0
 206.813942393 1000 210 997.167948794 210 993.916242922 c 0
 210 990.284792483 206.026334039 982.602371625 196.537600696 966.089873325 c 0
 134.881812162 858.79514108 120 782.600262812 120 579 c 2
 120 424 l 1
 158.790578161 508.543567786 224.624542905 560 294.298586967 560 c 0
 365.056747852 560 423.019942537 506.929802268 448 419 c 1
 486.768007457 506.476529646 553.577445629 560 624.037975306 560 c 0
 719.582266258 560 790 461.584854048 790 327.43313196 c 0
 790 242.214622551 761.584362291 150.439792653 716 89 c 1
 784.45986667 91.8524944446 829.215965587 98.4959778776 843.444508198 107.77109225 c 0
 853 114 859 128 866.804643142 128 c 0
 869.205266808 128 870 126.67544468 870 123 c 2
 870 119 l 2
 870 60.8208687559 805.699586168 15.9693455273 707.956478454 5.83774855657 c 0
 672.574644437 2.17023183099 602.04210993 0 516.635437665 0 c 0
 387 0 279 5 153 5 c 2
 120 5 l 1
 120 -360 l 2
 120 -515.90998884 37.9535102688 -610 -97.1176112846 -610 c 0
120 301 m 1
 120 87 l 1
 147.495924721 91.3993479553 172.572806754 93 210.791569698 93 c 0
 241 93 282 92 340 91 c 1
 377.58291665 130.614425658 401 193.955716687 401 256 c 2
 401 259 l 1
 400 263 399 269 398.28863324 273.043468988 c 0
 380.062636707 376.641578843 325.221094397 446 262.433228027 446 c 0
 202.337557188 446 140.114053029 382.461914768 120 301 c 1
596.229577278 446 m 0
 531.634747293 446 460 366.05977476 460 289.292117558 c 0
 460 236.960366814 426.711234676 146.091034442 386 90 c 1
 474.264963992 87.6357598931 518.344316578 87 562.775776811 87 c 0
 618.5 87 642.5 88 667 88 c 1
 706.501412441 127.501412441 731 191.810204784 731 256 c 2
 731 259 l 1
 730 263 729 269 728.283468418 273.072513239 c 0
 710.277114369 375.414290002 656.927449835 446 596.229577278 446 c 0
EndSplineSet
Validated: 1
Comment: "nert+AOsA (nine)"
Colour: ff00
EndChar

StartChar: L
Encoding: 76 76 93
Width: 770
GlyphClass: 2
Flags: W
HStem: -610 70<253.647 456.736> -243 108<144.331 229.481> 20 100<237.352 496.274> 480 80<-5.39273 188 244.986 804.724>
VStem: 35 74<230.815 336.8> 640 95<-334.23 -147.906>
AnchorPoint: "Middle" 408 290 basechar 0
AnchorPoint: "Top" 408 800 basechar 0
AnchorPoint: "Bottom" 408 -300 basechar 0
LayerCount: 2
Fore
SplineSet
178.346679688 -135 m 0
 226.086914062 -135 255 -174.051757812 255 -238.178710938 c 0
 255 -250.133789062 253.995117188 -252 247.895507812 -252 c 0
 234.5 -252 208.5 -243 192.338867188 -243 c 0
 151.939453125 -243 99.904296875 -299.240234375 96 -350 c 1
 102.067382812 -444.05078125 234.375976562 -540 358.364257812 -540 c 0
 505.951171875 -540 640 -404.049804688 640 -254.008789062 c 0
 640 -117.9375 529.750976562 20 421 20 c 2
 297 20 l 2
 169.770507812 20 35 138.82421875 35 252.3671875 c 0
 35 333.118164062 103.166992188 435.145507812 188 480 c 1
 64 480 l 2
 -23.58203125 480 -40 483.315429688 -40 500.868164062 c 0
 -40 537.633789062 32.0263671875 560 150 560 c 2
 610 560 l 2
 684.588867188 560 715.265625 560 738.301757812 560 c 0
 778.200195312 560 817 560 829.895507812 560 c 0
 833.821289062 560 835 557.40625 835 549.331054688 c 0
 835 488.037109375 747.057617188 480 653 480 c 2
 315 480 l 1
 214.625 466.819335938 109 370.936523438 109 292.205078125 c 0
 109 209.916992188 224.384765625 120 331 120 c 2
 436 120 l 2
 604.559570312 120 735 -22.21875 735 -206.975585938 c 0
 735 -419.494140625 562.413085938 -610 364.9375 -610 c 0
 198.4453125 -610 50 -474.583984375 50 -317.44140625 c 0
 50 -218.904296875 108.368164062 -135 178.346679688 -135 c 0
EndSplineSet
Validated: 1
Comment: "alda [ld]"
Colour: ff00
EndChar

StartChar: Y
Encoding: 89 89 94
Width: 520
GlyphClass: 2
Flags: W
HStem: 0 99<21.0981 146.802> 980 20G<133.957 167.095> 980 20G<133.957 167.095>
VStem: 260 260<74.873 435.911>
AnchorPoint: "Middle" 238 280 basechar 0
AnchorPoint: "Top" 238 800 basechar 0
AnchorPoint: "Bottom" 238 -300 basechar 0
LayerCount: 2
Fore
SplineSet
276 742 m 2xd0
 371 408 l 2
 419.957124724 234.691778478 443.448502104 168.772097055 468.89043045 133.240301819 c 0
 502 87 520 118 520 93.8000955048 c 0
 520 55.945936203 475.957454479 0 446.128338834 0 c 0
 409.681460075 0 368.567199009 83.5234594889 319 258 c 2
 307 300 l 1
 281.869084582 225.573827416 220.597062255 121.597062255 175.737303417 76.737303417 c 0
 135.23751723 36.2375172301 64.1929110816 0 25.9627240673 0 c 0
 8 0 0 8 0 25.7488950557 c 0
 0 66.4218503744 42.0105921558 125 73.2125650063 125 c 0
 94 125 89 99 114.11173937 99 c 0
 179.492496814 99 260 275.246155624 260 426.382385913 c 0
 260 445.439696971 258.719963269 463.680220385 256 480 c 1
 224 592 l 2
 175.042875276 765.308221522 151.551497896 831.227902945 126.10956955 866.759698181 c 0
 93 913 75 882 75 906.199904495 c 0
 75 944.054063797 119.042545521 1000 148.871661166 1000 c 0
 185.318539925 1000 226.432800991 916.476540511 276 742 c 2xd0
EndSplineSet
Validated: 1
Comment: "hyarmen [+AOcA]"
Colour: ff00
EndChar

StartChar: y
Encoding: 121 121 95
Width: 520
GlyphClass: 2
Flags: W
HStem: 0 99<21.1261 162> 540 20G<255.5 309.5>
VStem: 260 260<74.5 368.5>
AnchorPoint: "Middle" 283 280 basechar 0
AnchorPoint: "Top" 283 800 basechar 0
AnchorPoint: "Bottom" 283 -300 basechar 0
LayerCount: 2
Fore
SplineSet
260 348 m 0
 260 389 253 415 239 436 c 0
 226 454 216 456 208 456 c 2
 202 456 l 2
 197 456 195 457 195 466 c 0
 195 504 240 560 271 560 c 0
 348 560 403 225 471 131 c 0
 502 87 520 118 520 94 c 0
 520 55 473 0 439 0 c 0
 406 0 382 50 315 258 c 1
 295.615384615 216.615384615 285.615384615 196.615384615 264 165 c 0
 178.595137139 40.0839906192 73 0 26 0 c 0
 8 0 0 9 0 27 c 0
 0 68 42 125 77 125 c 0
 100 125 96 99 128 99 c 0
 196 99 260 217 260 348 c 0
EndSplineSet
Validated: 1
Comment: "yanta [y,+AOQA]"
Colour: ff00
EndChar

StartChar: bar
Encoding: 124 124 96
Width: 560
GlyphClass: 2
Flags: W
HStem: -610 99<117.374 238.412> -160 21G<17.5593 46.9182> 460 100<289.448 379.729>
VStem: 0 99<-138.751 -24.7965> 20 91<-454.797 -322.691> 429 91<271.081 404.225>
AnchorPoint: "Middle" 308 280 basechar 0
AnchorPoint: "Top" 308 800 basechar 0
AnchorPoint: "Bottom" 308 -300 basechar 0
LayerCount: 2
Fore
SplineSet
423 -371.411952221 m 0xec
 423 -461.103758566 268.075570653 -610 155.881174086 -610 c 0
 78.8677734484 -610 20 -539.842516575 20 -435.832225165 c 0xec
 20 -357.646365731 53.2645315823 -272.677181798 112 -201 c 1
 211 -69 l 1
 202 -32 192 14 180 61 c 1
 132.750890263 33.4380193201 99 -9.47977940939 99 -40.1131856706 c 0
 99 -67 125 -62 125 -84.2377413326 c 0
 125 -117.390154556 67.2140452195 -160 26.6222850634 -160 c 0
 8.49637662132 -160 0 -151.503623379 0 -133.963748593 c 0xf4
 0 -76.7873073978 90.2848786057 56.2071844405 167 112 c 1
 107.872343571 349.530068068 93.5754488486 396.590679863 70.6239707263 428.14610363 c 0
 38 473 20 442 20 466.199904495 c 0
 20 504.054063797 64.0425455215 560 93.6599736996 560 c 0
 118.809900338 560 143.782937333 519.658940239 172 434 c 1
 225.749098503 511.637586726 303.666319889 560 375.516004135 560 c 0
 461.833401695 560 520 490.200082034 520 386.063324653 c 0
 520 303.059396064 483.045880282 213.052332197 419 140 c 1
 145 -223 l 1
 121.014685432 -265.973688601 111 -303.970583328 111 -352.291288201 c 0
 111 -450.319676702 152.216823372 -511 219.129873819 -511 c 0
 283.950007521 -511 357.976884043 -454.05624883 388.033277068 -380.495024738 c 0
 396.058088175 -360.854779561 403.071284212 -353 412.366680602 -353 c 0
 419 -353 423 -357 423 -371.411952221 c 0xec
279 21 m 1
 392 172 l 1
 418.962115213 217.935455547 429 252.932405212 429 300.865956764 c 0
 429 398.583727159 387.283286372 460 320.88424198 460 c 0
 276.249690245 460 224.213747656 432.247497286 186 388 c 1
 195.926077718 352.549722437 202.618950039 327.524199846 209 302 c 2
 279 21 l 1
EndSplineSet
Validated: 1
Comment: "arda [rh/rd]"
Colour: ff00
EndChar

StartChar: guillemotleft
Encoding: 171 171 97
Width: 330
GlyphClass: 1
Flags: W
HStem: 849 20G<140.66 157.239 260.66 277.239>
VStem: 109 60<682.061 862.723> 229 60<682.061 862.723>
LayerCount: 2
Fore
SplineSet
169 850 m 2
 169 810 l 2
 169 696.512032157 92.2041604482 502.004536899 47.7547212998 501.088031786 c 0
 43.4852813742 501 41 502.656854249 41 505.314308697 c 0
 41 507 40 504 47.7069884505 517.783529233 c 0
 92.6860535506 598.226138261 110 668.547397686 110 780.979554411 c 0
 110 808 109 788 109 819 c 2
 109 829 l 2
 109 849 130 869 151.320274286 869 c 0
 163.158417573 869 169 862.833885216 169 850 c 2
289 850 m 2
 289 810 l 2
 289 696.512032157 212.204160448 502.004536899 167.7547213 501.088031786 c 0
 163.485281374 501 161 502.656854249 161 505.314308697 c 0
 161 507 160 504 167.706988451 517.783529233 c 0
 212.686053551 598.226138261 230 668.547397686 230 780.979554411 c 0
 230 808 229 788 229 819 c 2
 229 829 l 2
 229 849 250 869 271.320274286 869 c 0
 283.158417573 869 289 862.833885216 289 850 c 2
EndSplineSet
Validated: 1
Comment: "eques yesta (beginning of quotation)"
Colour: 999999
EndChar

StartChar: logicalnot
Encoding: 172 172 98
Width: 0
GlyphClass: 4
Flags: W
HStem: 245 73<-210.406 201.708>
AnchorPoint: "Middle" 0 290 mark 0
LayerCount: 2
Fore
SplineSet
150 318 m 2
 245 318 228 350 247 350 c 0
 249 350 250 349 250 345 c 2
 250 341 l 2
 250 283 186 246 128 245 c 1
 -186 245 l 2
 -213 245 -220 246 -220 263 c 0
 -220 313 -185 318 -102 318 c 2
 150 318 l 2
EndSplineSet
Validated: 1
Comment: "tarna t+AOsA-a (crossing line)"
Colour: ff00ff
EndChar

StartChar: Udieresis
Encoding: 220 220 99
Width: 0
GlyphClass: 4
Flags: W
HStem: 180 46<-51.7155 27.3861> 319 61<-51.6803 25.8726>
VStem: -100 41<234.488 309.998> 34 66<233.549 311.832>
AnchorPoint: "MarkMark" 0 800 mark 0
AnchorPoint: "Middle" 0 280 mark 0
LayerCount: 2
Fore
SplineSet
100 280 m 0
 100 225 55 180 0 180 c 0
 -55 180 -100 225 -100 280 c 0
 -100 335 -55 380 0 380 c 0
 55 380 100 335 100 280 c 0
34 272.052021686 m 0
 34 298.283198411 13.7239814239 319 -12.0502250046 319 c 0
 -38 319 -59 298 -59 272.050225005 c 0
 -59 246.276018576 -38.2831984114 226 -12.0520216858 226 c 0
 14 226 34 246 34 272.052021686 c 0
EndSplineSet
Validated: 1
Comment: "end+AOsA-a +APwA (+APwA middle) [+APwA]"
Colour: ff00ff
EndChar

StartChar: underscore
Encoding: 95 95 100
Width: 0
GlyphClass: 4
Flags: W
HStem: -200 73<-210.406 183.574> -115 20G<207.5 218>
AnchorPoint: "Bottom" 0 -300 mark 0
AnchorPoint: "MarkMark" 0 525 mark 0
LayerCount: 2
Fore
SplineSet
140 -127 m 2
 215 -127 198 -95 217 -95 c 0
 219 -95 220 -96 220 -100 c 2
 220 -104 l 2
 220 -162 176 -199 118 -200 c 1
 -186 -200 l 2
 -213 -200 -220 -199 -220 -182 c 0
 -220 -132 -185 -127 -102 -127 c 2
 140 -127 l 2
EndSplineSet
Validated: 1
Comment: "n+APoA-n t+AOsA-a (lowline)"
Colour: ff00ff
EndChar

StartChar: asciicircum
Encoding: 94 94 101
Width: 830
GlyphClass: 3
Flags: W
HStem: 0 111<184.379 272.013 499.854 607.627> 453 104<471.5 577.438> 896 104<628.459 765.769>
VStem: 40 59<222.549 406.576> 360 59<212.221 369.876> 700 80<201.144 743.176> 703 141<40.8774 96.2165>
AnchorPoint: "Bottom" 398 -300 basechar 0
AnchorPoint: "Top" 398 800 basechar 0
AnchorPoint: "Middle" 398 280 basechar 0
LayerCount: 2
Fore
SplineSet
863 1000 m 2xfc
 868 1000 870 998 870 995 c 0
 870 990 864 981 858 970 c 0
 795 859 780 782 780 577 c 2
 780 286 l 2xfc
 780 214 786 167 801 131 c 0
 823 77 844 94 844 77 c 0
 844 50 793 0 764 0 c 0
 734 0 711 54 703 146 c 1xfa
 661 44 597 0 536 0 c 0
 464 0 397 60 375 131 c 1
 336 54 263 0 197 0 c 0
 104 0 40 105 40 256 c 0
 40 621 417 1000 780 1000 c 2
 863 1000 l 2xfc
361 208 m 1
 360 215 360 221 360 229 c 0
 360 403 456 557 562 557 c 0
 587 557 605 548 605 521 c 0
 605 484 571 425 542 425 c 0
 537 425 534 426 532 430 c 0
 525 442 507 453 491 453 c 0
 452 453 419 390 419 316 c 0
 419 210 486 111 559 111 c 0
 617 111 679 174 700 254 c 1
 700 574 l 2
 700 672 724 778 767 873 c 1
 754 891 737 896 697 896 c 0
 405 896 99 610 99 340 c 0
 99 217 163 114 238 114 c 0
 283 114 331 151 361 208 c 1
EndSplineSet
Validated: 1
Comment: "ligature [sc]"
Colour: ff00
EndChar

StartChar: periodcentered
Encoding: 183 183 102
Width: 400
GlyphClass: 1
Flags: W
HStem: 180 200<172 228>
VStem: 100 200<253.906 306.094>
LayerCount: 2
Fore
SplineSet
213 374 m 2
 293 292 l 2
 297.608514495 287.391485505 300 283.291796068 300 280 c 0
 300 276.708203932 297.608514495 272.608514495 293 268 c 2
 213 186 l 2
 209.280786712 182.280786712 204.339082169 180 200 180 c 0
 195.660917831 180 190.719213288 182.280786712 187 186 c 2
 107 268 l 2
 102.391485505 272.608514495 100 276.708203932 100 280 c 0
 100 283.291796068 102.391485505 287.391485505 107 292 c 2
 187 374 l 2
 190.719213288 377.719213288 195.660917831 380 200 380 c 0
 204.339082169 380 209.280786712 377.719213288 213 374 c 2
EndSplineSet
Validated: 1
Comment: "talca (bullet)"
Colour: 999999
EndChar

StartChar: degree
Encoding: 176 176 103
Width: 200
GlyphClass: 1
Flags: W
HStem: 647 67<61.2177 147.175> 886 67<53.2073 139.866>
VStem: 0 33<751.572 863.651> 167 33<735.757 849.344>
LayerCount: 2
Fore
SplineSet
200 838 m 1
 200 824 l 2
 200 725.930683685 154.960457332 647 99 647 c 2
 78 647 l 2
 31.2207067854 647 0 698.634245837 0 776 c 2
 0 784 l 2
 0 876.014851933 46.0088754717 953 101 953 c 2
 121 953 l 2
 162 953 200 899 200 838 c 1
108.74430474 714 m 0
 144.227959138 714 167 742.94750957 167 789.512072868 c 0
 167 843.996902513 135.822443102 886 93.8153657946 886 c 0
 57.9618791256 886 33 855.401567523 33 809.205483695 c 0
 33 756.147746996 65.9279273404 714 108.74430474 714 c 0
EndSplineSet
Validated: 1
Comment: "lesta (degree, measure)"
Colour: 999999
EndChar

StartChar: acute
Encoding: 180 180 104
Width: 0
GlyphClass: 4
Flags: W
HStem: 595 73<-210.406 171.708> 680 20G<207.5 218>
AnchorPoint: "MarkMark" 0 780 basemark 0
AnchorPoint: "Top" 0 780 mark 0
LayerCount: 2
Fore
SplineSet
120 668 m 6
 215 668 198 700 217 700 c 0
 219 700 220 699 220 695 c 2
 220 691 l 2
 220 633 156 596 98 595 c 5
 -186 595 l 2
 -213 595 -220 596 -220 613 c 0
 -220 663 -185 668 -102 668 c 2
 120 668 l 6
EndSplineSet
Validated: 1
Comment: "inga t+AOsA-a (top line)"
Colour: ff00ff
EndChar

StartChar: guillemotright
Encoding: 187 187 105
Width: 330
GlyphClass: 1
Flags: W
VStem: 41 60<-497.723 -317.061> 161 60<-497.723 -317.061>
LayerCount: 2
Fore
SplineSet
161 -485 m 2
 161 -445 l 2
 161 -331.512032157 237.795839552 -137.004536899 282.2452787 -136.088031786 c 0
 286.514718626 -136 289 -137.656854249 289 -140.314308697 c 0
 289 -142 290 -139 282.293011549 -152.783529233 c 0
 237.313946449 -233.226138261 220 -303.547397686 220 -415.979554411 c 0
 220 -443 221 -423 221 -454 c 2
 221 -464 l 2
 221 -484 200 -504 178.679725714 -504 c 0
 166.841582427 -504 161 -497.833885216 161 -485 c 2
41 -485 m 2
 41 -445 l 2
 41 -331.512032157 117.795839552 -137.004536899 162.2452787 -136.088031786 c 0
 166.514718626 -136 169 -137.656854249 169 -140.314308697 c 0
 169 -142 170 -139 162.293011549 -152.783529233 c 0
 117.313946449 -233.226138261 100 -303.547397686 100 -415.979554411 c 0
 100 -443 101 -423 101 -454 c 2
 101 -464 l 2
 101 -484 80 -504 58.6797257136 -504 c 0
 46.8415824272 -504 41 -497.833885216 41 -485 c 2
EndSplineSet
Validated: 1
Comment: "eques metta (end of quotation)"
Colour: 999999
EndChar

StartChar: questiondown
Encoding: 191 191 106
Width: 645
GlyphClass: 1
Flags: W
HStem: 35 94<110.125 365.117> 35 87<228.344 415.775> 225 94<43.4821 519.1> 225 87<167.624 618.982> 405 94<110.125 365.117> 405 87<228.344 415.775>
LayerCount: 2
Fore
SplineSet
207 41 m 0x80
 170 41 129 35 91 35 c 0x40
 76 35 70 36 70 39 c 2
 70 42 l 2
 70 100 125 129 226 129 c 0x80
 276 129 327 122 367 122 c 0x40
 458 122 447 158 460 158 c 0
 464 158 465 155 465 146 c 0
 465 89 420 35 334 35 c 0
 305 35 244 41 207 41 c 0x80
207 411 m 0
 170 411 129 405 91 405 c 0x04
 76 405 70 406 70 409 c 2
 70 412 l 2
 70 470 125 499 226 499 c 0x08
 276 499 327 492 367 492 c 0x04
 458 492 447 528 460 528 c 0
 464 528 465 525 465 516 c 0
 465 459 420 405 334 405 c 0x08
 305 405 244 411 207 411 c 0
132 231 m 0
 67 231 85 225 28 225 c 0x10
 5 225 0 226 0 229 c 2
 0 232 l 2
 0 289 54 319 165 319 c 0x20
 218 319 463 312 522 312 c 0
 544 312 574 313 591 314 c 0
 677 320 667 348 680 348 c 0
 683 348 685 346 685 336 c 0
 685 281 622 229 542 225 c 1x10
 509 225 l 2x20
 439 225 197 231 132 231 c 0
EndSplineSet
Validated: 1
Comment: "v+AOEA metta (ending exclamation)"
Colour: 999999
EndChar

StartChar: cedilla
Encoding: 184 184 107
Width: 0
GlyphClass: 4
Flags: W
HStem: -482 199
VStem: -146 252
AnchorPoint: "Bottom" 0 -300 mark 0
LayerCount: 2
Fore
SplineSet
97 -283 m 4
 101.100585938 -283 106 -286.0625 106 -288 c 6
 106 -289 l 5
 48 -452 l 6
 44.970703125 -461.088867188 39.9619140625 -469.01953125 36 -471 c 6
 -4 -482 l 5
 -6 -482 l 6
 -9.900390625 -482 -12.9736328125 -480.079101562 -14 -477 c 6
 -26 -436 l 5
 -26 -433 l 6
 -26 -431 -25 -431 -14 -417 c 6
 96 -284 l 6
 97 -283 97 -283 97 -283 c 4
-23 -283 m 4
 -18.8994140625 -283 -14 -286.0625 -14 -288 c 6
 -14 -289 l 5
 -72 -452 l 6
 -75.029296875 -461.088867188 -80.0380859375 -469.01953125 -84 -471 c 6
 -124 -482 l 5
 -126 -482 l 6
 -129.900390625 -482 -132.973632812 -480.079101562 -134 -477 c 6
 -146 -436 l 5
 -146 -433 l 6
 -146 -431 -145 -431 -134 -417 c 6
 -24 -284 l 6
 -23 -283 -23 -283 -23 -283 c 4
EndSplineSet
Validated: 1
Comment: "tanta unutecco (double e inferior) [+ARMA]"
Colour: ff00ff
EndChar

StartChar: ordmasculine
Encoding: 186 186 108
Width: 0
GlyphClass: 4
Flags: W
HStem: 833 199
VStem: -76 252
AnchorPoint: "MarkMark" 0 800 basemark 0
AnchorPoint: "Top" 0 800 mark 0
LayerCount: 2
Fore
SplineSet
-67 833 m 0
 -71.1003876027 833 -76 836.062257748 -76 838 c 2
 -76 839 l 1
 -18 1002 l 2
 -14.9705295524 1011.08841134 -9.96161520075 1019.0191924 -6 1021 c 2
 34 1032 l 1
 36 1032 l 2
 39.9005703608 1032 42.9735341156 1030.07939765 44 1027 c 2
 56 986 l 1
 56 983 l 2
 56 981 55 981 44 967 c 2
 -66 834 l 2
 -67 833 -67 833 -67 833 c 0
53 833 m 0
 48.8996123973 833 44 836.062257748 44 838 c 2
 44 839 l 1
 102 1002 l 2
 105.029470448 1011.08841134 110.038384799 1019.0191924 114 1021 c 2
 154 1032 l 1
 156 1032 l 2
 159.900570361 1032 162.973534116 1030.07939765 164 1027 c 2
 176 986 l 1
 176 983 l 2
 176 981 175 981 164 967 c 2
 54 834 l 2
 53 833 53 833 53 833 c 0
EndSplineSet
Validated: 1
Comment: "tanta tecco (double e superior) [+ARMA]"
Colour: ff00ff
EndChar

StartChar: multiply
Encoding: 215 215 109
Width: 540
GlyphClass: 2
Flags: W
HStem: 124 102<237.279 359.715> 466 94<-140.08 87.5472> 558 103<282 390>
VStem: 441 59<323.652 500.739>
AnchorPoint: "Middle" 238 280 basechar 0
AnchorPoint: "Top" 238 800 basechar 0
AnchorPoint: "Bottom" 238 -300 basechar 0
LayerCount: 2
Fore
SplineSet
500 405 m 4xb0
 500 222 402 124 306 124 c 4
 217 124 129 209 125 391 c 5
 115 445 80 466 -3 466 c 6
 -55 466 l 6
 -134 466 -160 488 -160 553 c 6
 -160 556 l 6
 -160 559 -156 560 -140 560 c 6
 -62 560 l 6xd0
 111 560 143 533 161 367 c 5
 182 285 240 226 300 226 c 4
 375 226 441 317 441 422 c 4
 441 495 409 558 371 558 c 4
 355 558 335 547 327 535 c 4
 324 530 322 529 318 529 c 4
 291 529 255 583 255 623 c 4
 255 648 270 661 298 661 c 4
 395 661 500 520 500 405 c 4xb0
EndSplineSet
Validated: 1
Comment: "yanta nuquerna telda (+AO0A final) [+AO0A]"
Colour: ff00
EndChar

StartChar: Uacute
Encoding: 218 218 110
Width: 510
GlyphClass: 2
Flags: W
HStem: 2 94<-115.056 362.271> 347 114<169.358 356.754>
VStem: 60 34.1289<186.233 275.81> 430 40<142.134 281.284>
AnchorPoint: "Middle" 268 280 basechar 0
AnchorPoint: "Top" 268 800 basechar 0
AnchorPoint: "Bottom" 268 -300 basechar 0
LayerCount: 2
Fore
SplineSet
179 96 m 2
 374.481445312 96 430 120.331054688 430 205.698242188 c 0
 430 295.327148438 368.798828125 347 262.9296875 347 c 0
 161.771484375 347 97.9912109375 299.825195312 94.12890625 220.236328125 c 0
 92.99609375 196.892578125 86.9443359375 186 74.32421875 186 c 0
 63.201171875 186 60 194.4609375 60 223.875 c 0
 60 369.276367188 138.235351562 461 262.573242188 461 c 0
 389.53125 461 470 365.370117188 470 215.107421875 c 0
 470 70.7646484375 395.747070312 2 240 2 c 2
 -140 2 l 2
 -155.504882812 2 -160 2.8994140625 -160 6 c 2
 -160 9 l 2
 -160 65.2001953125 -98.6669921875 96 -5 96 c 2
 179 96 l 2
EndSplineSet
Validated: 1
Comment: "n+APoA-n sarinc+AOsA (z final) [z]"
Colour: ff00
EndChar

StartChar: germandbls
Encoding: 223 223 111
Width: 500
GlyphClass: 2
Flags: W
HStem: 4 17G<51.3527 57.8546 380.704 411.978> 507 126<102.18 169.62> 622 20G<151.478 167.579> 886 114<179.679 294.112>
VStem: 40 35<649.993 783.451> 393 67<597.868 773.482>
AnchorPoint: "Middle" 228 280 basechar 0
AnchorPoint: "Top" 228 800 basechar 0
AnchorPoint: "Bottom" 228 -300 basechar 0
LayerCount: 2
Fore
SplineSet
460 94.0004737123 m 0xdc
 460 48.9232184718 428.689140178 0 395.267205467 0 c 0
 366.141622778 0 335.554692113 37.1536163447 219 215 c 1
 161.045901913 139.589848272 148.550780078 122.929685825 125.189689452 89.1051890916 c 0
 85.178553654 31.1731107569 62.4845270878 4 53.2247135812 4 c 0
 49.4807406984 4 48 8.44222209522 48 20.7120850976 c 0
 48 208 393 492 393 687.287213679 c 0
 393 783.601207131 309.082940478 886 225.043492257 886 c 0
 147.693014643 886 75 799.253002526 75 708.219956573 c 0
 75 660.92380261 94.6221315637 633 124.205141864 633 c 0xdc
 141 633 146 642 156.955477682 642 c 0xbc
 178.202517056 642 191 608.148593504 191 570.176572944 c 0
 191 527.448232498 174.795740284 507 148.331500332 507 c 0
 91.1893891433 507 40 602.334366937 40 710.713595222 c 0
 40 864.145607666 142.593489383 1000 258.403943561 1000 c 0
 370.033287712 1000 460 873.778045447 460 718.425143996 c 0
 460 597.267796502 405.280436295 469.387269169 279 295 c 1
 343 196 416 143 438 119 c 1
 441.5 119 445.5 120 447.999220646 120 c 0
 455.302866504 120 460 111.459757279 460 94.0004737123 c 0xdc
EndSplineSet
Validated: 1
Comment: "ornavala [sk]"
Colour: ff00
EndChar

StartChar: agrave
Encoding: 224 224 112
Width: 0
GlyphClass: 4
Flags: W
HStem: 758 85<-140.57 -95.662 100.415 131.559> 758 71<-138.6 -89.6398> 939 20G<-10.5 34>
VStem: -150 300<795.406 811.916>
AnchorPoint: "MarkMark" 0 815 basemark 0
AnchorPoint: "Top" 0 815 mark 0
LayerCount: 2
Fore
SplineSet
-150 783.618814022 m 0xb0
 -150 811.91569605 -132.613863892 843 -117.585607186 843 c 0xb0
 -107.5 843 -104.5 829 -95.2320574439 829 c 0x70
 -92.6329931619 829 -94.6515307717 827.898979486 -89.356178652 831.744232589 c 0
 -5 893 -32 941 11 959 c 1
 57 959 91 842 136.768683696 842 c 0
 141 842 141 843 143.152844881 843 c 0xb0
 148.107975624 843 150 837.702331747 150 829.030912882 c 0
 150 795.405787737 121.550527637 758 95.6603378575 758 c 0x70
 59 758 37 833 14.8233172644 857.322813323 c 0
 6 867 5 876 -1.75 876 c 0
 -4 876 -6 877 -8.89248352252 875.39306471 c 0
 -24 867 -85 758 -130.836050297 758 c 0
 -143.713183733 758 -150 766.603011734 -150 783.618814022 c 0xb0
EndSplineSet
Validated: 1
Comment: "am+APYA-tix+AOsA (+AOsA superior) [+AOsA]"
Colour: ff00ff
EndChar

StartChar: bracketleft
Encoding: 91 91 113
Width: 830
GlyphClass: 2
Flags: W
HStem: -3 114<182.962 265.092 499.662 591.389> 453 104<161.468 241.967 485.401 561.978>
VStem: 40 59<221.435 373.696> 360 59<215.662 370.696> 700 80<199.594 427.338> 703 142<41.5 96.3383>
AnchorPoint: "Bottom" 398 -300 basechar 0
AnchorPoint: "Top" 398 800 basechar 0
AnchorPoint: "Middle" 398 280 basechar 0
LayerCount: 2
Fore
SplineSet
360 238 m 4xf4
 360 380 443 557 546 557 c 4
 605 557 605 535 605 535 c 5
 605 474 565 425 542 425 c 4
 537 425 535 427 533 430 c 4
 526 443 506 453 490 453 c 4
 451 453 419 389 419 321 c 4
 419 235 471 111 557 111 c 4
 620 111 680 177 700 255 c 5
 705 443 761 560 798 560 c 4
 801 560 806 559 806 553 c 6
 806 550 l 5
 798 513 780 444 780 340 c 6
 780 310 l 6xf8
 780 257 781 185 802 131 c 4
 824 77 845 94 845 80 c 4
 845 60 803 0 767 0 c 4
 731 0 711 62 703 146 c 5
 654 29 561 -3 512 -3 c 4
 448 -3 398 53 375 131 c 5
 324 29 238 0 192 0 c 4
 101 0 40 113 40 241 c 4
 40 383 123 560 226 560 c 4
 285 560 285 538 285 538 c 5
 285 477 245 428 222 428 c 4
 217 428 215 430 213 433 c 4
 206 446 186 456 170 456 c 4
 131 456 99 392 99 324 c 4
 99 238 151 114 237 114 c 4
 286 114 333 154 361 208 c 5
 360 218 360 228 360 238 c 4xf4
EndSplineSet
Validated: 1
Comment: "+APEA-oldo [+APEA]"
Colour: ff00
EndChar

StartChar: braceleft
Encoding: 123 123 114
Width: 850
GlyphClass: 2
Flags: W
HStem: 0 114<198.587 302.355 529.692 631.837> 473 96<497.981 755.176> 473 87<165.571 466 496.387 593.021> 476 141<21.6612 79.8226>
VStem: 60 59<220.702 363.861> 390 59<220.819 367.066> 720 80<-344.883 116 187.073 428.381>
AnchorPoint: "Bottom" 418 -300 basechar 0
AnchorPoint: "Top" 418 800 basechar 0
AnchorPoint: "Middle" 418 280 basechar 0
LayerCount: 2
Fore
SplineSet
344.338293232 560 m 0xae
 578.5 560 635.5 569 757.829424296 569 c 0xce
 820.718433827 569 825 566.621352126 825 564 c 2
 825 549 l 1
 824 546 827 521 816 504 c 1
 805.134861082 449.674305408 800 396.721050504 800 339 c 2
 800 -200 l 2
 800 -351.426174398 698.228431752 -608.996192804 638.460834484 -609.917368513 c 0
 633.09954954 -610 630 -608.062781537 630 -604.331144373 c 0
 630 -601.053287604 632.391551337 -595.738729078 636.034282996 -589.31201271 c 0
 698.744207286 -478.675563305 720 -390.240968926 720 -248 c 2
 720 116 l 1
 680.06544187 43.1194314135 619.103487113 0 555.931713884 0 c 0
 485.442277353 0 426.804624746 53.6877208932 402 141 c 1
 363.231992543 53.523470354 296.422554371 0 225.962024694 0 c 0
 130.417733742 0 60 98.4151459523 60 232.498478318 c 0
 60 320.076937987 90.041876698 414.054090735 138 476 c 1
 31.763283509 481.957199056 -15 498.767529729 -15 531.065873808 c 0
 -15 563.695139511 32.7264448564 617 61.7702746698 617 c 0x9e
 80 617 62 596 107.910641714 577.86883439 c 0
 144.277337259 563.506792062 198.171194208 560 344.338293232 560 c 0xae
185 474 m 1
 144.70128579 435.7162215 119 369.515939921 119 304 c 2
 119 301 l 1
 120 297 121 291 121.716531582 286.927486761 c 0
 139.722885631 184.585709998 193.072550165 114 253.770422722 114 c 0
 318.365252707 114 390 193.94022524 390 270.8661363 c 0
 390 324.161849373 424.384521957 416.909573072 466 473 c 1
 259 473 l 2xae
 218.277168078 473 202.228890428 473.216868617 185 474 c 1
514 473 m 1xce
 474 434 449 369 449 304 c 2
 449 301 l 1
 450 297 451 291 451.71136676 286.956531012 c 0
 469.937363293 183.358421157 524.778905603 114 587.396694664 114 c 0
 638.789656332 114 692.887519565 160.720881882 720 228 c 1
 720 237 l 2
 720 327.168499123 732.784975972 412.40167227 756 477 c 1
 738.492786579 474.235703144 715.9412042 473 683 473 c 2
 514 473 l 1xce
EndSplineSet
Validated: 1
Comment: "ungw+AOsA [ngw]"
Colour: ff00
EndChar

StartChar: bracketright
Encoding: 93 93 115
Width: 530
GlyphClass: 2
Flags: W
HStem: 2 112<200.823 305.411> 474 86<166.387 400> 475 142<21.7412 81.6106> 980 20G<528.5 563> 980 20G<528.5 563>
VStem: 60 59<222.337 377.981> 400 80<208.428 478 564.944 728.759> 403 141<37.6005 98.1048>
AnchorPoint: "Middle" 248 280 basechar 0
AnchorPoint: "Top" 248 800 basechar 0
AnchorPoint: "Bottom" 348 -300 basechar 0
LayerCount: 2
Fore
SplineSet
475 552 m 1030x84
184 473 m 5
 144 435 119 370 119 304 c 6
 119 301 l 6
 119 299 120 296 120 294 c 4
 120 292 122 289 122 287 c 4
 140 183 195 114 258 114 c 4
 318 114 380 178 400 259 c 5
 400 478 l 5
 384 475 365 474 333 474 c 6
 279 474 l 6xc6
 259 474 240 473 225 473 c 6
 184 473 l 5
137 475 m 5xb5
 32 481 -15 498 -15 530 c 4
 -15 563 33 617 62 617 c 4xb5
 80 617 63 595 115 576 c 4
 146 564 179 560 269 560 c 4
 292 560 297 560 400 566 c 5
 400 574 l 6
 400 741 497 999 560 1000 c 4
 566 1000 570 997 570 994 c 4
 570 992 570 992 557 966 c 4
 495 859 480 783 480 579 c 6
 480 286 l 6xd6
 480 69 544 102 544 77 c 4
 544 50 492 0 463 0 c 4
 433 0 411 52 403 143 c 5
 358 41 296 3 226 2 c 4
 225 2 225 2 225 2 c 4
 118 2 60 109 60 234 c 4
 60 362 95 419 137 475 c 5xb5
EndSplineSet
Validated: 1
Comment: "hwesta [hw]"
Colour: ff00
EndChar

StartChar: braceright
Encoding: 125 125 116
Width: 530
GlyphClass: 2
Flags: W
HStem: 0 114<199.635 301.849> 473 87<164.862 400> 475 142<23.8337 81.8375>
VStem: 60 59<220.209 362.638> 400 80<-344.883 136 205.263 478 564.981 730.134>
AnchorPoint: "Middle" 248 280 basechar 0
AnchorPoint: "Top" 248 800 basechar 0
AnchorPoint: "Bottom" 228 -300 basechar 0
LayerCount: 2
Fore
SplineSet
475 552 m 1026x98
184 473 m 1xd8
 144.302521861 435.287395768 119 369.500838929 119 304 c 2
 119 301 l 1
 120 297 121 291 121.71136676 286.956531012 c 0
 139.937363293 183.358421157 194.778905603 114 257.566771973 114 c 0
 317.662442812 114 379.885946971 177.538085232 400 259 c 1
 400 478 l 1
 383.818990387 475.144527715 364.648151155 474 332.784218832 474 c 0
 303 474 255 473 225 473 c 2
 184 473 l 1xd8
137 475 m 1xb8
 31.5810911853 480.967108046 -15 497.822108146 -15 529.762966824 c 0
 -15 562.319822391 33.3950997228 617 62.1685507346 617 c 0xb8
 80 617 62 596 114.507529544 575.519035504 c 0
 145.420937274 563.461023793 178.646765684 560 268.701278441 560 c 0xd8
 291.59495561 560 296.851406296 560.223678753 400 566 c 1
 400 576 l 2
 400 742.45828269 497.409688474 998.990629976 561.034589819 999.909083455 c 0
 567.33273811 1000 570 997.629100543 570 994.461635506 c 0
 570 989.830458915 564.29803322 978.806656474 556.088999628 964.614269523 c 0
 494.79142498 858.638469966 480 783.300812066 480 581 c 2
 480 -200 l 2
 480 -351.426174398 378.228431752 -608.996192804 318.460834484 -609.917368513 c 0
 313.09954954 -610 310 -608.062781537 310 -604.389462629 c 0
 310 -601.59629495 311.792154013 -597.613730478 318.447047363 -585.791493249 c 0
 378.849730636 -478.487767512 400 -391.014431254 400 -250 c 2
 400 136 l 1
 361.209421839 51.4564322142 295.375457095 0 226.151723106 0 c 0
 130.417733742 0 60 98.4151459523 60 231.84151725 c 0
 60 318.66262824 89.8159994586 412.757275882 137 475 c 1xb8
EndSplineSet
Validated: 1
Comment: "anda hwesta [+AqgA]"
Colour: ff00
EndChar

StartChar: backslash
Encoding: 92 92 117
Width: 510
GlyphClass: 2
Flags: W
HStem: -610 114<188.241 300.335> -243 126<320.897 389.125> 0 103<252.456 360> 446 114<214.339 328.204>
VStem: -15 141<461.662 520.491> 30 69<-383.939 -246.667> 50 79<135.81 349.391> 411 59<160.58 342.712>
AnchorPoint: "Middle" 268 280 basechar 0
AnchorPoint: "Top" 268 800 basechar 0
AnchorPoint: "Bottom" 268 -300 basechar 0
LayerCount: 2
Fore
SplineSet
450 -308 m 0xf5
 450 -469 344 -610 217 -610 c 0
 110 -610 30 -511 30 -379 c 0xf5
 30 -244 114 -57 240 87 c 1
 255 113 275 132 288 132 c 0
 293 132 296 130 299 125 c 0
 305 114 325 103 341 103 c 0
 379 103 411 166 411 240 c 0
 411 347 343 446 270 446 c 0
 209 446 148 377 129 286 c 1
 122 137 76 0 32 0 c 0
 26 0 24 2 24 7 c 2
 24 10 l 1
 45 109 50 148 50 219 c 2
 50 249 l 2xf3
 50 334 43 385 28 425 c 0
 6 482 -15 464 -15 481 c 0
 -15 508 37 559 66 559 c 0
 95 559 117 509 126 419 c 1xf9
 169 516 224 560 276 560 c 0
 426 560 470 411 470 256 c 0
 470 142 365 0 270 0 c 0
 246 0 229 9 226 24 c 1
 141 -73 99 -170 99 -269 c 0
 99 -396 167 -496 252 -496 c 0
 330 -496 408 -411 414 -320 c 1
 410 -269 393 -243 365 -243 c 0
 349 -243 344 -252 333 -252 c 0
 313 -252 299 -222 299 -184 c 0
 299 -163 303 -143 308 -133 c 0
 314 -121 323 -117 336 -117 c 0
 400 -117 450 -198 450 -308 c 0xf5
EndSplineSet
Validated: 1
Comment: "ligature [rl]"
Colour: ff00
EndChar

StartChar: onehalf
Encoding: 189 189 118
Width: 525
GlyphClass: 1
Flags: W
HStem: 0 21G<124.932 158.924> 473 87<168.681 478.404> 478 139<38.402 96.3339>
VStem: 80 80<136.552 426.867>
LayerCount: 2
Fore
SplineSet
144.332140935 0 m 0xd0
 105.532431074 0 80 87.5958789166 80 223.81723563 c 0
 80 321.202802814 93.0494125519 411.137943374 117 478 c 1
 37.338610787 485.966138921 0 502.880210474 0 531.085194589 c 0
 0 563.139030072 48.2243567956 617 77.0197538301 617 c 0xb0
 95 617 77 596 127.864392143 575.909360588 c 0
 156.750550987 564.499779605 191.342606701 560 247.766414243 560 c 0
 323 560 426 568 496.053060761 568 c 0
 519.13664655 568 525 567.131355044 525 564 c 2
 525 561 l 2
 525 502.16844806 468.339328615 474 344.780500846 474 c 0
 321.5 474 272.5 473 226.869442562 473 c 0
 205.23724357 473 188.830867958 473.224744871 171 474 c 1
 163.593613955 427.445573435 160 383.668821613 160 340 c 2
 160 310 l 2
 160 221.134001579 166.153580829 171.62564673 181.676698374 132.813915815 c 0
 204 77 225 94 225 76.6775252517 c 0
 225 49.5543361565 173.514975422 0 144.332140935 0 c 0xd0
EndSplineSet
Validated: 1
Comment: "hilyat+AOsA-a (dash)"
Colour: 999999
EndChar

StartChar: Oslash
Encoding: 216 216 119
Width: 465
GlyphClass: 1
Flags: W
HStem: -610 114<183.514 281.527> -177 20G<96.1878 116.668> 980 20G<220.419 238.964> 980 20G<220.419 238.964>
VStem: 40 49<-384.036 -232.257 226.349 377.681> 162 54<713.19 904.516> 367 58<-404.84 -224.165 197.982 384.305>
AnchorPoint: "Middle" 228 280 basechar 0
AnchorPoint: "Top" 228 800 basechar 0
AnchorPoint: "Bottom" 228 -300 basechar 0
LayerCount: 2
Fore
SplineSet
121 440.368060957 m 0xee
 121 396 89 368 89 311.207581634 c 0
 89 222.068488297 167.832568758 114 239.714441062 114 c 0
 302.715031891 114 367 197.013659605 367 278.310036916 c 0
 367 323.67637248 346.981365604 376.093171979 343.797224216 389.888477623 c 0
 332 441 192 596 167.798264514 700.587912698 c 0
 164.029795261 716.873370139 162 736.833023543 162 759.058553135 c 0
 162 860.981099332 204.68630145 1000 236.151127117 1000 c 0
 241.77747585 1000 244 995.5549517 244 980.925582354 c 0
 244 929 216 880 216 811.277705344 c 0
 216 647 376 578 412.044126946 439.749806673 c 0
 419.576996477 410.85687023 425 365.387071457 425 329.453865381 c 0
 425 209.162456985 364.226091184 73.8628789643 288 25 c 1
 337 -47 389 -85 411.357038157 -172.354018672 c 0
 419.313825802 -203.442992609 425 -244.870833193 425 -272.658339438 c 0
 425 -332.140050465 398.945189477 -442.091350871 375 -482 c 1
 336.270865079 -562.437434068 273.473414746 -610 206.501304462 -610 c 0
 109.41829593 -610 40 -510.054381161 40 -371.133596329 c 0
 40 -267.886383467 78.34388961 -157 114.031726099 -157 c 0
 119.305173952 -157 121 -159.421180068 121 -169.631939043 c 0
 121 -214 89 -242 89 -298.792418366 c 0
 89 -387.931511703 167.832568758 -496 240.181297419 -496 c 0
 303.684220811 -496 367 -412.742243113 367 -329 c 2
 367 -320 l 1
 364 -279 345 -226 342.659727133 -215.078726619 c 0
 336 -184 257 -89 217.111647282 -18.8581769802 c 0
 206.700863299 -0.551294949164 205.046978452 0 198.446418686 0 c 0
 107.999879126 0 40 103.515739561 40 239.366816161 c 0
 40 341.611085091 78.5176621649 453 114.064432795 453 c 0
 119.305173952 453 121 450.578819932 121 440.368060957 c 0xee
EndSplineSet
Validated: 1
Comment: "minqu+AOsA (B duodecmal)"
Colour: ff00
EndChar

StartChar: udieresis
Encoding: 252 252 120
Width: 0
GlyphClass: 4
Flags: W
HStem: -400 46<-51.7155 27.3861> -261 61<-51.6803 25.8726>
VStem: -100 41<-345.512 -270.002> 34 66<-346.451 -268.168>
AnchorPoint: "MarkMark" 0 800 mark 0
AnchorPoint: "Bottom" 0 -300 mark 0
LayerCount: 2
Fore
SplineSet
100 -300 m 0
 100 -355 55 -400 0 -400 c 0
 -55 -400 -100 -355 -100 -300 c 0
 -100 -245 -55 -200 0 -200 c 0
 55 -200 100 -245 100 -300 c 0
34 -307.947978314 m 0
 34 -281.716801589 13.7239814239 -261 -12.0502250046 -261 c 0
 -38 -261 -59 -282 -59 -307.949774995 c 0
 -59 -333.723981424 -38.2831984114 -354 -12.0520216858 -354 c 0
 14 -354 34 -334 34 -307.947978314 c 0
EndSplineSet
Validated: 1
Comment: "un+APwA-tix+AOsA (+APwA inferior) [+APwA]"
Colour: ff00ff
EndChar

StartChar: egrave
Encoding: 232 232 121
Width: 0
GlyphClass: 4
Flags: W
HStem: 758 21G<-34 10.5> 874 85<-131.559 -100.415 95.662 140.57> 888 71<89.6398 138.6>
VStem: -150 300<905.084 921.594>
AnchorPoint: "MarkMark" 0 815 basemark 0
AnchorPoint: "Top" 0 815 mark 0
LayerCount: 2
Fore
SplineSet
150 933.381185978 m 0xd0
 150 905.08430395 132.613863892 874 117.585607186 874 c 0xd0
 107.5 874 104.5 888 95.2320574439 888 c 0xb0
 92.6329931619 888 94.6515307717 889.101020514 89.356178652 885.255767411 c 0
 5 824 32 776 -11 758 c 1
 -57 758 -91 875 -136.768683696 875 c 0
 -141 875 -141 874 -143.152844881 874 c 0xd0
 -148.107975624 874 -150 879.297668253 -150 887.969087118 c 0
 -150 921.594212263 -121.550527637 959 -95.6603378575 959 c 0xb0
 -59 959 -37 884 -14.8233172644 859.677186677 c 0
 -6 850 -5 841 1.75 841 c 0
 4 841 6 840 8.89248352252 841.60693529 c 0
 24 850 85 959 130.836050297 959 c 0
 143.713183733 959 150 950.396988266 150 933.381185978 c 0xd0
EndSplineSet
Validated: 1
Comment: "am+AOsA-tix+AOsA (+AlsA superior) [+AlsA]"
Colour: ff00ff
EndChar

StartChar: ecircumflex
Encoding: 234 234 122
Width: 520
GlyphClass: 2
Flags: W
HStem: 0 21G<210.297 264.228> 461 99<358.402 498.412>
VStem: 0 260<191.739 485.991>
AnchorPoint: "Middle" 283 280 basechar 0
AnchorPoint: "Top" 283 800 basechar 0
AnchorPoint: "Bottom" 283 -300 basechar 0
LayerCount: 2
Fore
SplineSet
260 212.337858666 m 0
 260 171.140917298 266.378889375 145.017846523 280.779845186 124.449417173 c 0
 293.668874757 106.040424214 304.571581043 104.171590691 312.326283045 104.171590691 c 0
 314.301870956 104.171590691 316.073145018 104.292882957 317.620897296 104.292882957 c 0
 322.356864568 104.292882957 325 103.157224889 325 93.9359084051 c 0
 325 55.828849727 279.861781072 0 248.593763573 0 c 0
 172 0 117 335 49.3489037416 429.301528118 c 0
 18 473 0 442 0 466.410756149 c 0
 0 505.570723912 46.32278816 560 80.5081594869 560 c 0
 113.373490369 560 137.747011827 509.693051712 205 302 c 1
 225.275862069 344.275862069 235.275862069 364.275862069 255.874875451 394.874875451 c 0
 340.759137727 520.967063903 446.658409207 560 493.514572664 560 c 0
 511.503623379 560 520 551.503623379 520 533.377714937 c 0
 520 492.785954781 477.390154556 435 442.741427886 435 c 0
 419.5 435 424.5 461 392.483258212 461 c 0
 324.321055359 461 260 343.156314635 260 212.337858666 c 0
EndSplineSet
Validated: 1
Comment: "yanta nuquerna [+AlsA]"
Colour: ff00
EndChar

StartChar: eacute
Encoding: 233 233 123
Width: 0
GlyphClass: 4
Flags: W
HStem: 38 199
VStem: -66 132
AnchorPoint: "MarkMark" 0 634 mark 0
AnchorPoint: "Middle" 0 229 mark 0
LayerCount: 2
Fore
SplineSet
57 237 m 1
 60.3030615433 237 66 233.835034191 66 232 c 2
 66 231 l 1
 8 68 l 2
 4.97052955237 58.9115886571 -0.0383847992525 50.9808076004 -4 49 c 2
 -45 38 l 1
 -46 38 l 2
 -49.9005703608 38 -52.9735341156 39.9206023468 -54 43 c 2
 -66 84 l 1
 -66 87 l 2
 -66 89 -65 89 -54 103 c 2
 56 236 l 1
 57 237 l 1
EndSplineSet
Validated: 1
Comment: "end+AOsA-a e (middle e) [e]"
Colour: ff00ff
EndChar

StartChar: ugrave
Encoding: 249 249 124
Width: 0
GlyphClass: 4
Flags: W
HStem: 700 46<-51.7155 27.3861> 839 61<-51.6803 25.8726>
VStem: -100 41<754.488 829.998> 34 66<753.549 831.832>
AnchorPoint: "MarkMark" 0 800 basemark 0
AnchorPoint: "Top" 0 800 mark 0
LayerCount: 2
Fore
SplineSet
100 800 m 0
 100 745 55 700 0 700 c 0
 -55 700 -100 745 -100 800 c 0
 -100 855 -55 900 0 900 c 0
 55 900 100 855 100 800 c 0
34 792.052021686 m 0
 34 818.283198411 13.7239814239 839 -12.0502250046 839 c 0
 -38 839 -59 818 -59 792.050225005 c 0
 -59 766.276018576 -38.2831984114 746 -12.0520216858 746 c 0
 14 746 34 766 34 792.052021686 c 0
EndSplineSet
Validated: 1
Comment: "am+APwA-tix+AOsA (+APwA superior) [+APwA]"
Colour: ff00ff
EndChar

StartChar: ucircumflex
Encoding: 251 251 125
Width: 445
GlyphClass: 2
Flags: W
HStem: -153 21G<195.521 224.418> 0 114<171.9 242.951> 456 104<141.395 247.463>
VStem: 30 59<215.622 374.605> 376.801 28.1995<237.014 334.444>
AnchorPoint: "Middle" 218 280 basechar 0
AnchorPoint: "Top" 218 800 basechar 0
AnchorPoint: "Bottom" 218 -300 basechar 0
LayerCount: 2
Fore
SplineSet
30 240.628720678 m 0
 30 406.168346727 127.106231129 560 232.442118342 560 c 0
 257.705269339 560 275 551.15153315 275 524.497223319 c 0
 275 487.182441207 241.104601854 428 210.964233381 428 c 0
 206.899367063 428 204.961781899 429.076436203 202.932201338 432.679120399 c 0
 195.743235914 445.440167005 176.460062618 456 160.646778476 456 c 0
 122.143599285 456 89 393.395423573 89 319.031103503 c 0
 89 213.050955931 156.316183642 114 229.630202785 114 c 0
 300.07727376 114 372.074267374 205.455640537 376.800509687 301.588377423 c 0
 377.996244631 325.909871141 382.954496736 335 395.238189927 335 c 0
 401 335 405 333 405 301.892646021 c 0
 405 226.687876598 381.621070728 142.111161878 337.280619849 84.0908818147 c 0
 299 34 282 -28 277 -39 c 1
 277 -64 304 -59 304 -80.2295867199 c 0
 304 -111.800181488 244.290118099 -153 204.545255374 -153 c 0
 186.496376621 -153 178 -144.503623379 178 -127.283895395 c 0
 178 -94.8179906986 208.202034597 -30.7530688254 244 13 c 1
 223.965005912 4.41357396227 203.934170237 0 185.581017677 0 c 0
 96.7602872473 0 30 103.370767351 30 240.628720678 c 0
EndSplineSet
Validated: 1
Comment: "telcol+APMA-ra hanna (stemless u) [+APwA]"
Colour: ff00
EndChar

StartChar: uacute
Encoding: 250 250 126
Width: 0
GlyphClass: 4
Flags: W
HStem: 35 65<-49.1413 67.5209> 247 83<46.1421 106.943>
VStem: -140 51<141.44 280.892> -22 54<408.52 499.726> 40 100<247.51 294.125>
AnchorPoint: "MarkMark" 0 800 mark 0
AnchorPoint: "Middle" 0 280 mark 0
LayerCount: 2
Fore
SplineSet
140 205 m 4
 140 141.42578125 112.9375 88.16015625 70.6376953125 59 c 4
 48.3984375 43.66796875 21.9462890625 35 -7 35 c 4
 -85 35 -140 99 -140 191 c 4
 -140 246 -116.510742188 301.17578125 -61 365 c 4
 -29.2275390625 401.53125 -22 434 -22 451 c 4
 -22 469 -29 476 -49 484 c 5
 -49 498 -21 520 -2 520 c 4
 22 520 32 497 32 468 c 4
 32 452 14.4072265625 400.525390625 -27 356 c 4
 -85.71875 292.859375 -89 256 -89 218 c 4
 -89 152 -52 100 12 100 c 4
 70 100 113 145 116 196 c 5
 113 229 102 247 85 247 c 4
 76 247 72 241 63 241 c 4
 50 241 40 259 40 285 c 4
 40 298 42 314 46 321 c 4
 49 328 54 330 64 330 c 4
 107 330 140 276 140 205 c 4
EndSplineSet
Validated: 1
Comment: "end+AOsA-a rempe nuquerna (u middle) [u]"
Colour: ff00ff
EndChar

StartChar: igrave
Encoding: 236 236 127
Width: 0
GlyphClass: 4
Flags: W
HStem: 761 113<-25.1875 25.1875> 871 113<-109.578 -58.4219 58.4219 109.578>
VStem: -140 112<901.016 954.984> -56 112<790.719 843.281> 28 112<901.016 954.984>
AnchorPoint: "MarkMark" 0 818 basemark 0
AnchorPoint: "Top" 0 818 mark 0
LayerCount: 2
Fore
SplineSet
76 875 m 2x48
 31 920 l 2
 29.0986328125 921.901367188 28 924.831054688 28 928 c 0
 28 931.168945312 29.0986328125 934.098632812 31 936 c 2
 76 981 l 2
 77.9013671875 982.901367188 80.8310546875 984 84 984 c 0
 87.1689453125 984 90.0986328125 982.901367188 92 981 c 2
 137 936 l 2
 138.901367188 934.098632812 140 931.168945312 140 928 c 0
 140 924.831054688 138.901367188 921.901367188 137 920 c 2
 92 875 l 2
 90 873 86 871 84 871 c 0
 82 871 78 873 76 875 c 2x48
-92 875 m 2
 -137 920 l 2
 -138.901367188 921.901367188 -140 924.831054688 -140 928 c 0
 -140 931.168945312 -138.901367188 934.098632812 -137 936 c 2
 -92 981 l 2
 -90.0986328125 982.901367188 -87.1689453125 984 -84 984 c 0
 -80.8310546875 984 -77.9013671875 982.901367188 -76 981 c 2
 -31 936 l 2
 -29.0986328125 934.098632812 -28 931.168945312 -28 928 c 0x60
 -28 924.831054688 -29.0986328125 921.901367188 -31 920 c 2
 -76 875 l 2
 -78 873 -82 871 -84 871 c 0
 -86 871 -90 873 -92 875 c 2
-8 764 m 2
 -52 809 l 2
 -54 811 -56 815 -56 817 c 0
 -56 819 -54 823 -52 825 c 2
 -8 870 l 2
 -6 872 -2 874 0 874 c 0
 2 874 6 872 8 870 c 2
 52 825 l 2
 54 823 56 819 56 817 c 0
 56 815 54 811 52 809 c 2
 8 764 l 2
 6.09878030638 762.098780306 3.16869948936 761 0 761 c 0x90
 -3.16869948936 761 -6.09878030638 762.098780306 -8 764 c 2
EndSplineSet
Validated: 1
Comment: "am+AO8A-tix+AOsA (+AO8A superior) [+AO8A]"
Colour: ff00ff
EndChar

StartChar: icircumflex
Encoding: 238 238 128
Width: 495
GlyphClass: 2
Flags: W
HStem: 0 114<199.681 301.326> 473 87<164.862 469.972> 475 142<23.8337 81.3231>
VStem: 60 59<220.209 362.638> 405.723 29.2773<234.823 334.44>
AnchorPoint: "Middle" 248 280 basechar 0
AnchorPoint: "Top" 248 800 basechar 0
AnchorPoint: "Bottom" 248 -300 basechar 0
LayerCount: 2
Fore
SplineSet
184 473 m 1xd8
 144.302521861 435.287395768 119 369.500838929 119 304 c 2
 119 301 l 1
 120 297 121 291 121.71136676 286.956531012 c 0
 139.937363293 183.358421157 194.778905603 114 257.713787934 114 c 0
 329.010929252 114 401.000769388 203.014464492 405.72266048 298.060658905 c 0
 406.966821149 323.104171016 412.60168751 335 423.963205922 335 c 0
 432.670833985 335 435 328.012501954 435 302.316229987 c 0
 435 137.858013193 339.594951134 0 226.21477432 0 c 0
 130.417733742 0 60 98.4151459523 60 231.84151725 c 0
 60 318.66262824 89.8159994586 412.757275882 137 475 c 1
 31.5810911853 480.967108046 -15 497.822108146 -15 529.762966824 c 0
 -15 562.319822391 33.3950997228 617 62.1685507346 617 c 0xb8
 80 617 62 596 112.811471429 576.273326218 c 0
 147.037775353 562.985556483 187.156190588 560 328 560 c 2
 436 560 l 2
 495.329260745 560 510 559.206987067 510 556 c 2
 510 553 l 2
 510 498.167119498 456.159328714 474 329.719939589 474 c 0
 304 474 256 473 226 473 c 2
 184 473 l 1xd8
EndSplineSet
Validated: 1
Comment: "telcol+APMA-ra wilya (stemless +AO8A) [+AO8A]"
Colour: ff00
EndChar

StartChar: idieresis
Encoding: 239 239 129
Width: 0
GlyphClass: 4
Flags: W
HStem: -483 112<-110.984 -57.0156 57.0156 110.984> -374 112<-25.1875 25.1875>
VStem: -140 112<-453.984 -400.016> -56 112<-344.281 -292.719> 28 112<-453.984 -400.016>
AnchorPoint: "MarkMark" 0 507 mark 0
AnchorPoint: "Bottom" 0 -318 mark 0
LayerCount: 2
Fore
SplineSet
-76 -374 m 2x60
 -31 -419 l 2
 -29.0986328125 -420.901367188 -28 -423.831054688 -28 -427 c 0
 -28 -430.168945312 -29.0986328125 -433.098632812 -31 -435 c 2
 -76 -480 l 2
 -77.9013671875 -481.901367188 -80.8310546875 -483 -84 -483 c 0xa0
 -87.1689453125 -483 -90.0986328125 -481.901367188 -92 -480 c 2
 -137 -435 l 2
 -138.901367188 -433.098632812 -140 -430.168945312 -140 -427 c 0
 -140 -423.831054688 -138.901367188 -420.901367188 -137 -419 c 2
 -92 -374 l 2x60
 -90.0986328125 -372.098632812 -87.1689453125 -371 -84 -371 c 0xa0
 -80.8310546875 -371 -77.9013671875 -372.098632812 -76 -374 c 2x60
92 -374 m 2x48
 137 -419 l 2
 138.901367188 -420.901367188 140 -423.831054688 140 -427 c 0
 140 -430.168945312 138.901367188 -433.098632812 137 -435 c 2
 92 -480 l 2
 90.0986328125 -481.901367188 87.1689453125 -483 84 -483 c 0x88
 80.8310546875 -483 77.9013671875 -481.901367188 76 -480 c 2
 31 -435 l 2
 29.0986328125 -433.098632812 28 -430.168945312 28 -427 c 0
 28 -423.831054688 29.0986328125 -420.901367188 31 -419 c 2
 76 -374 l 2x48
 77.9013671875 -372.098632812 80.8310546875 -371 84 -371 c 0x88
 87.1689453125 -371 90.0986328125 -372.098632812 92 -374 c 2x48
8 -266 m 2
 52 -311 l 2
 54.3431457505 -313.343145751 56 -316.242640687 56 -318.032981258 c 0
 56 -320 54 -324 52 -326 c 2
 8 -371 l 2x90
 6.09878030638 -372.901219694 3.16869948936 -374 0 -374 c 0x50
 -3.16869948936 -374 -6.09878030638 -372.901219694 -8 -371 c 2x90
 -52 -326 l 2
 -54 -324 -56 -320 -56 -318.032981258 c 0
 -56 -316.242640687 -54.3431457505 -313.343145751 -52 -311 c 2
 -8 -266 l 2
 -6 -264 -2 -262 0 -262 c 0x50
 2 -262 6 -264 8 -266 c 2
EndSplineSet
Validated: 1
Comment: "un+AO8A-tix+AOsA (+AO8A inferior) [+AO8A]"
Colour: ff00ff
EndChar

StartChar: iacute
Encoding: 237 237 130
Width: 0
GlyphClass: 4
Flags: W
HStem: 224 112<-25.875 25.875>
VStem: -56 112<253.719 305.875>
AnchorPoint: "MarkMark" 0 670 mark 0
AnchorPoint: "Middle" 0 280 mark 0
LayerCount: 2
Fore
SplineSet
-8 227 m 2
 -52 272 l 2
 -54 274 -56 278 -56 280 c 0
 -56 282 -54 286 -52 288 c 2
 -8 332 l 2
 -6 334 -2 336 0 336 c 0
 2 336 6 334 8 332 c 2
 52 288 l 2
 54 286 56 282 56 280 c 0
 56 278 54 274 52 272 c 2
 8 227 l 2
 6.09878030638 225.098780306 3.16869948936 224 0 224 c 0
 -3.16869948936 224 -6.09878030638 225.098780306 -8 227 c 2
EndSplineSet
Validated: 1
Comment: "end+AOsA-a i (i middle) [i]"
Colour: ff00ff
EndChar

StartChar: acircumflex
Encoding: 226 226 131
Width: 0
GlyphClass: 4
Flags: W
HStem: -357 85<-131.559 -100.415 95.662 140.57> -343 71<89.6398 138.6>
VStem: -150 300<-325.916 -309.406>
AnchorPoint: "MarkMark" 0 507 mark 0
AnchorPoint: "Bottom" 0 -318 mark 0
LayerCount: 2
Fore
SplineSet
150 -297.618814022 m 0xa0
 150 -325.91569605 132.613863892 -357 117.585607186 -357 c 0xa0
 107.5 -357 104.5 -343 95.2320574439 -343 c 0x60
 92.6329931619 -343 94.6515307717 -341.898979486 89.356178652 -345.744232589 c 0
 5 -407 32 -455 -11 -473 c 1
 -57 -473 -91 -356 -136.768683696 -356 c 0
 -141 -356 -141 -357 -143.152844881 -357 c 0xa0
 -148.107975624 -357 -150 -351.702331747 -150 -343.030912882 c 0
 -150 -309.405787737 -121.550527637 -272 -95.6603378575 -272 c 0x60
 -59 -272 -37 -347 -14.8233172644 -371.322813323 c 0
 -6 -381 -5 -390 1.75 -390 c 0
 4 -390 6 -391 8.89248352252 -389.39306471 c 0
 24 -381 85 -272 130.836050297 -272 c 0
 143.713183733 -272 150 -280.603011734 150 -297.618814022 c 0xa0
EndSplineSet
Validated: 1
Comment: "un+APYA-tix+AOsA (+AOsA inferior) [+AOsA]"
Colour: ff00ff
EndChar

StartChar: aacute
Encoding: 225 225 132
Width: 0
GlyphClass: 4
Flags: W
HStem: 97 112<-25.1875 25.1875> 206 112<-110.984 -57.0156 57.0156 110.984>
VStem: -140 112<235.016 288.984> -56 112<127.719 179.281> 28 112<235.016 288.984>
AnchorPoint: "MarkMark" 0 652 mark 0
AnchorPoint: "Middle" 0 262 mark 0
LayerCount: 2
Fore
SplineSet
76 209 m 2x88
 31 254 l 2
 29.0986328125 255.901367188 28 258.831054688 28 262 c 0
 28 265.168945312 29.0986328125 268.098632812 31 270 c 2
 76 315 l 2
 77.9013671875 316.901367188 80.8310546875 318 84 318 c 0x48
 87.1689453125 318 90.0986328125 316.901367188 92 315 c 2
 137 270 l 2
 138.901367188 268.098632812 140 265.168945312 140 262 c 0
 140 258.831054688 138.901367188 255.901367188 137 254 c 2
 92 209 l 2x88
 90.0986328125 207.098632812 87.1689453125 206 84 206 c 0x48
 80.8310546875 206 77.9013671875 207.098632812 76 209 c 2x88
-92 209 m 2xa0
 -137 254 l 2
 -138.901367188 255.901367188 -140 258.831054688 -140 262 c 0
 -140 265.168945312 -138.901367188 268.098632812 -137 270 c 2
 -92 315 l 2
 -90.0986328125 316.901367188 -87.1689453125 318 -84 318 c 0x60
 -80.8310546875 318 -77.9013671875 316.901367188 -76 315 c 2
 -31 270 l 2
 -29.0986328125 268.098632812 -28 265.168945312 -28 262 c 0
 -28 258.831054688 -29.0986328125 255.901367188 -31 254 c 2
 -76 209 l 2xa0
 -77.9013671875 207.098632812 -80.8310546875 206 -84 206 c 0x60
 -87.1689453125 206 -90.0986328125 207.098632812 -92 209 c 2xa0
-8 101 m 2
 -52 146 l 2
 -54.3431457505 148.343145751 -56 151.242640687 -56 153.032981258 c 0
 -56 155 -54 159 -52 161 c 2
 -8 206 l 2x50
 -6.09878030638 207.901219694 -3.16869948936 209 0 209 c 0x90
 3.16869948936 209 6.09878030638 207.901219694 8 206 c 2x50
 52 161 l 2
 54 159 56 155 56 153.032981258 c 0
 56 151.242640687 54.3431457505 148.343145751 52 146 c 2
 8 101 l 2
 6 99 2 97 0 97 c 0x90
 -2 97 -6 99 -8 101 c 2
EndSplineSet
Validated: 1
Comment: "end+AOsA-a a (middle a) [a]"
Colour: ff00ff
EndChar

StartChar: atilde
Encoding: 227 227 133
Width: 0
GlyphClass: 4
Flags: W
HStem: 770 97<-131.027 -75.491 86.9059 136.105> 770 80<-137.145 -59.7946> 949 91<-81.3427 -38.0295>
VStem: -150 300<802.973 825.194>
AnchorPoint: "MarkMark" 0 826 basemark 0
AnchorPoint: "Top" 0 826 mark 0
LayerCount: 2
Fore
SplineSet
-10 890 m 1x70
 -43.8647926842 938.805142398 -54.9236212696 949 -72.4963710825 949 c 0
 -78 949 -81 948 -83.4960919657 948 c 0
 -90.8578643763 948 -95 956.69848481 -95 971.925523999 c 0
 -95 1006.43423122 -73.7259211974 1040 -49.5640153977 1040 c 0
 1 1040 67 893 107.669423897 867.567856421 c 0
 114.698890283 863.172062695 122.663120166 861 129.119324471 861 c 0
 133.5 861 138.5 862 140.62487998 862 c 0
 146.864471274 862 150 853.377296004 150 839.487217142 c 0
 150 802.973191952 128.331902431 770 103.842502978 770 c 0xb0
 81.6337542166 770 54.2335749634 797.117703178 7 866 c 1
 -10 847 -25 834 -32.1961630623 825.206944921 c 0
 -52.3862371593 800.536515409 -108.462383637 770 -133.186106065 770 c 0x70
 -144.796396689 770 -150 776.734074873 -150 791.564528568 c 0
 -150 825.193536138 -123.243863128 867 -100.502018021 867 c 0xb0
 -86 867 -86 850 -68.3457088879 850 c 0
 -51.2435562254 850 -27.3136404073 865.953277212 -10 890 c 1x70
EndSplineSet
Validated: 1
Comment: "am+AOQA-tix+AOsA (+AOQA superior) [+AOQA]"
Colour: ff00ff
EndChar

StartChar: adieresis
Encoding: 228 228 134
Width: 0
GlyphClass: 4
Flags: W
HStem: 150 91<38.0295 81.3427> 329 91<-136.105 -91.268 75.491 135.288> 340 80<59.7946 137.145>
VStem: -150 300<364.806 387.027>
AnchorPoint: "MarkMark" 0 671 mark 0
AnchorPoint: "Middle" 0 281 mark 0
LayerCount: 2
Fore
SplineSet
10 300 m 1xb0
 43.8647926842 251.194857602 54.9236212696 241 72.4963710825 241 c 0
 78 241 81 242 83.4960919657 242 c 0
 90.8578643763 242 95 233.30151519 95 218.074476001 c 0
 95 183.565768777 73.7259211974 150 49.5640153977 150 c 0
 -1 150 -67 297 -107.605814119 322.401132844 c 0
 -114.508623254 326.719213288 -122.491376746 329 -128.212047019 329 c 0
 -132 329 -137 328 -139.248063088 328 c 0
 -145.954619006 328 -150 336.899838187 -150 352.024021759 c 0
 -150 387.026808048 -128.331902431 420 -103.842502978 420 c 0
 -81.6337542166 420 -54.2335749634 392.882296822 -7 324 c 1
 10 343 25 356 32.1961630623 364.793055079 c 0
 52.3862371593 389.463484591 108.462383637 420 133.186106065 420 c 0xd0
 144.796396689 420 150 413.265925127 150 398.435471432 c 0
 150 364.806463862 123.243863128 323 100.502018021 323 c 0
 86 323 86 340 68.3457088879 340 c 0
 51.2435562254 340 27.3136404073 324.046722788 10 300 c 1xb0
EndSplineSet
Validated: 1
Comment: "end+AOsA-a +AOQA (+AOQA middle) [+AOQA]"
Colour: ff00ff
EndChar

StartChar: aring
Encoding: 229 229 135
Width: 0
GlyphClass: 4
Flags: W
HStem: -534 91<38.1457 81.3427> -355 91<-136.105 -91.2678 75.4911 135.289> -344 80<59.7944 137.146>
VStem: -150 300<-319.193 -296.974>
AnchorPoint: "MarkMark" 0 495 mark 0
AnchorPoint: "Bottom" 0 -330 mark 0
LayerCount: 2
Fore
SplineSet
10 -384 m 1xb0
 44.0146484375 -433.020507812 55.0087890625 -443 73.2314453125 -443 c 0
 79 -443 83 -442 85.2509765625 -442 c 0
 91.7880859375 -442 95 -450.431640625 95 -464.424804688 c 0
 95 -500.434570312 73.7255859375 -534 49.564453125 -534 c 0
 -1 -534 -67 -387 -107.60546875 -361.598632812 c 0
 -114.508789062 -357.28125 -122.491210938 -355 -128.211914062 -355 c 0
 -132 -355 -137 -356 -139.248046875 -356 c 0
 -145.955078125 -356 -150 -347.100585938 -150 -331.975585938 c 0
 -150 -296.973632812 -128.33203125 -264 -103.842773438 -264 c 0
 -81.6337890625 -264 -54.2333984375 -291.118164062 -7 -360 c 1
 10 -341 25 -328 32.1962890625 -319.20703125 c 0
 52.38671875 -294.536132812 108.461914062 -264 133.186523438 -264 c 0xd0
 144.796875 -264 150 -270.734375 150 -285.564453125 c 0
 150 -319.193359375 123.244140625 -361 100.501953125 -361 c 0
 86 -361 86 -344 68.345703125 -344 c 0
 51.2431640625 -344 27.3134765625 -359.953125 10 -384 c 1xb0
EndSplineSet
Validated: 1
Comment: "un+AOQA-tix+AOsA (+AOQA inferior) [+AOQA]"
Colour: ff00ff
EndChar

StartChar: ccedilla
Encoding: 231 231 136
Width: 0
GlyphClass: 4
Flags: W
HStem: 744 112<-110.281 -57.7188 57.7188 110.281>
VStem: -140 112<773.438 826.562> 28 112<773.438 826.562>
AnchorPoint: "MarkMark" 0 800 basemark 0
AnchorPoint: "Top" 0 800 mark 0
LayerCount: 2
Fore
SplineSet
-76 852 m 2
 -31 808 l 2
 -29.0986328125 806.098632812 -28 803.168945312 -28 800 c 0
 -28 796.831054688 -29.0986328125 793.901367188 -31 792 c 2
 -76 748 l 2
 -78 746 -82 744 -84 744 c 0
 -86 744 -90 746 -92 748 c 2
 -137 792 l 2
 -138.901367188 793.901367188 -140 796.831054688 -140 800 c 0
 -140 803.168945312 -138.901367188 806.098632812 -137 808 c 2
 -92 852 l 2
 -90 854 -86 856 -84 856 c 0
 -82 856 -78 854 -76 852 c 2
92 852 m 2
 137 808 l 2
 138.901367188 806.098632812 140 803.168945312 140 800 c 0
 140 796.831054688 138.901367188 793.901367188 137 792 c 2
 92 748 l 2
 90 746 86 744 84 744 c 0
 82 744 78 746 76 748 c 2
 31 792 l 2
 29.0986328125 793.901367188 28 796.831054688 28 800 c 0
 28 803.168945312 29.0986328125 806.098632812 31 808 c 2
 76 852 l 2
 78 854 82 856 84 856 c 0
 86 856 90 854 92 852 c 2
EndSplineSet
Validated: 1
Comment: "amayanta (y superior) [y]"
Colour: ff00ff
EndChar

StartChar: eth
Encoding: 240 240 137
Width: 840
GlyphClass: 2
Flags: W
HStem: 0 114<199.635 301.849> 0 103<582.785 689.894> 446 114<565.536 659.91> 473 87<164.862 400> 475 142<23.8337 81.8375>
VStem: 60 59<220.209 362.638> 400 80<-344.883 136 205.263 384.028 462 478 564.981 730.134> 741 59<184.675 344.297>
AnchorPoint: "Middle" 438 280 basechar 0
AnchorPoint: "Top" 248 800 basechar 0
AnchorPoint: "Bottom" 642 -300 basechar 0
LayerCount: 2
Fore
SplineSet
475 552 m 1026x07
800 319.473868698 m 0
 800 153.063209307 704.335494183 0 599.44911624 0 c 0
 569.837618106 0 555 12.1998193312 555 37.5016572268 c 0
 555 77.1259788281 591.390140356 132 618.324037778 132 c 0
 622.366750419 132 624.427204202 130.76372773 627.377376703 126.08150956 c 0
 635.128585846 113.779567122 655.281689595 103 670.982682045 103 c 0
 708.804613319 103 741 165.55103698 741 239.669380272 c 0
 741 346.711900329 673.848628242 446 601.036431695 446 c 0x67
 555.959175525 446 508.973749017 407.945687622 480 348 c 1
 480 -200 l 2
 480 -351.426174398 378.228431752 -608.996192804 318.460834484 -609.917368513 c 0
 313.09954954 -610 310 -608.062781537 310 -604.389462629 c 0
 310 -601.59629495 311.792154013 -597.613730478 318.447047363 -585.791493249 c 0
 378.849730636 -478.487767512 400 -391.014431254 400 -250 c 2
 400 136 l 1
 361.209421839 51.4564322142 295.375457095 0 226.151723106 0 c 0
 130.417733742 0 60 98.4151459523 60 231.84151725 c 0
 60 318.66262824 89.8159994586 412.757275882 137 475 c 1
 31.5810911853 480.967108046 -15 497.822108146 -15 529.762966824 c 0
 -15 562.319822391 33.3950997228 617 62.1685507346 617 c 0x8f
 80 617 62 596 114.507529544 575.519035504 c 0
 145.420937274 563.461023793 178.646765684 560 268.701278441 560 c 0x17
 291.59495561 560 296.851406296 560.223678753 400 566 c 1
 400 576 l 2
 400 742.45828269 497.409688474 998.990629976 561.034589819 999.909083455 c 0
 567.33273811 1000 570 997.629100543 570 994.461635506 c 0
 570 989.830458915 564.29803322 978.806656474 556.088999628 964.614269523 c 0
 494.79142498 858.638469966 480 783.300812066 480 581 c 2
 480 462 l 1
 519.07341954 519.633293821 586.625866614 560 643.42243876 560 c 0x27
 733.703801202 560 800 458.005848003 800 319.473868698 c 0
184 473 m 1x97
 144.302521861 435.287395768 119 369.500838929 119 304 c 2
 119 301 l 1
 120 297 121 291 121.71136676 286.956531012 c 0
 139.937363293 183.358421157 194.778905603 114 257.566771973 114 c 0
 317.662442812 114 379.885946971 177.538085232 400 259 c 1
 400 478 l 1
 383.818990387 475.144527715 364.648151155 474 332.784218832 474 c 0
 303 474 255 473 225 473 c 2
 184 473 l 1x97
EndSplineSet
Validated: 1
Comment: "ligature [+AqgA-t]"
Colour: ff00
EndChar

StartChar: thorn
Encoding: 254 254 138
Width: 500
GlyphClass: 2
Flags: W
HStem: 466 94<-120.29 352.271> 650 21G<58.7627 70.6343> 811 114<159.358 346.754>
VStem: 50 34.1289<650.233 739.81> 420 40<606.134 745.284>
AnchorPoint: "Middle" 258 280 basechar 0
AnchorPoint: "Top" 258 800 basechar 0
AnchorPoint: "Bottom" 258 -300 basechar 0
LayerCount: 2
Fore
SplineSet
169 560 m 2
 364.481445312 560 420 584.331054688 420 669.698242188 c 0
 420 759.327148438 358.798828125 811 252.9296875 811 c 0
 151.771484375 811 87.9912109375 763.825195312 84.12890625 684.236328125 c 0
 82.99609375 660.892578125 76.9443359375 650 64.32421875 650 c 0
 53.201171875 650 50 658.4609375 50 687.875 c 0
 50 833.276367188 128.235351562 925 252.573242188 925 c 0
 379.53125 925 460 829.370117188 460 679.107421875 c 0
 460 534.764648438 385.747070312 466 230 466 c 2
 -140 466 l 2
 -155.504882812 466 -160 466.899414062 -160 470 c 2
 -160 473 l 2
 -160 529.200195312 -108.666992188 560 -15 560 c 2
 169 560 l 2
EndSplineSet
Validated: 1
Comment: "sarinc+AOsA (s final) [s]"
Colour: ff00
EndChar

